{
.appVersion = "895";
copyright = "Copyright 2016 The Montserrat and Sector Project Authors";
customParameters = (
{
name = fsType;
value = (
);
},
{
name = license;
value = "This Font Software is licensed under the SIL Open Font License Version 1.1.";
},
{
name = licenseURL;
value = "http://scripts.sil.org/OFL";
}
);
date = "2016-04-14 23:39:46 +0000";
designer = "Montserrat by Julieta Ulanovsky; Sector Gurmukhi by Gunnar Vilhjalmsson";
designerURL = "Montserrat http://www.zkysky.com.ar; Sector Gurmukhi http://universalthirst.com";
familyName = Sector;
fontMaster = (
{
alignmentZones = (
"{850, 19}",
"{691, 20}",
"{216, -9}",
"{-132, -19}"
);
ascender = 866;
capHeight = 691;
descender = -196;
id = "56A87FB8-163D-4578-80C9-082B510993A7";
weight = Bold;
weightValue = 147;
xHeight = 691;
}
);
glyphs = (
{
glyphname = A;
layers = (
{
anchors = (
{
name = ogonek;
position = "{782, 10}";
},
{
name = top;
position = "{380, 700}";
}
);
layerId = "56A87FB8-163D-4578-80C9-082B510993A7";
paths = (
{
closed = 1;
nodes = (
"301 700 LINE",
"-3 0 LINE",
"160 0 LINE",
"378 535 LINE",
"594 0 LINE",
"763 0 LINE",
"464 700 LINE"
);
},
{
closed = 1;
nodes = (
"168 263 LINE",
"168 136 LINE SMOOTH",
"581 136 LINE",
"581 263 LINE"
);
}
);
width = 759;
}
);
leftKerningGroup = A;
rightKerningGroup = A;
unicode = 0041;
},
{
glyphname = Aogonek;
layers = (
{
layerId = "56A87FB8-163D-4578-80C9-082B510993A7";
paths = (
{
closed = 1;
nodes = (
"302 700 LINE",
"-3 0 LINE",
"161 0 LINE",
"217 136 LINE",
"538 136 LINE",
"595 0 LINE",
"643 0 LINE",
"613 -43 OFFCURVE",
"594 -82 OFFCURVE",
"594 -121 CURVE SMOOTH",
"594 -181 OFFCURVE",
"639 -202 OFFCURVE",
"679 -202 CURVE SMOOTH",
"720 -202 OFFCURVE",
"758 -180 OFFCURVE",
"783 -138 CURVE",
"742 -90 LINE",
"728 -109 OFFCURVE",
"713 -121 OFFCURVE",
"697 -121 CURVE SMOOTH",
"683 -121 OFFCURVE",
"673 -112 OFFCURVE",
"673 -96 CURVE SMOOTH",
"673 -75 OFFCURVE",
"688 -42 OFFCURVE",
"718 0 CURVE",
"763 0 LINE",
"465 700 LINE"
);
},
{
closed = 1;
nodes = (
"491 263 LINE",
"266 263 LINE",
"379 536 LINE"
);
}
);
width = 759;
}
);
leftKerningGroup = A;
rightKerningGroup = A;
unicode = 0104;
},
{
glyphname = Aring;
layers = (
{
components = (
{
name = A;
}
);
layerId = "56A87FB8-163D-4578-80C9-082B510993A7";
paths = (
{
closed = 1;
nodes = (
"312 895 OFFCURVE",
"256 839 OFFCURVE",
"256 769 CURVE SMOOTH",
"256 700 OFFCURVE",
"312 644 OFFCURVE",
"382 644 CURVE SMOOTH",
"452 644 OFFCURVE",
"509 700 OFFCURVE",
"509 769 CURVE SMOOTH",
"509 839 OFFCURVE",
"452 895 OFFCURVE",
"382 895 CURVE SMOOTH"
);
},
{
closed = 1;
nodes = (
"416 826 OFFCURVE",
"442 801 OFFCURVE",
"442 769 CURVE SMOOTH",
"442 738 OFFCURVE",
"416 713 OFFCURVE",
"382 713 CURVE SMOOTH",
"349 713 OFFCURVE",
"323 738 OFFCURVE",
"323 769 CURVE SMOOTH",
"323 801 OFFCURVE",
"349 826 OFFCURVE",
"382 826 CURVE SMOOTH"
);
}
);
width = 759;
}
);
leftKerningGroup = A;
leftMetricsKey = A;
rightKerningGroup = A;
rightMetricsKey = A;
unicode = 00C5;
},
{
glyphname = AE;
layers = (
{
anchors = (
{
name = bottom;
position = "{756, 0}";
},
{
name = ogonek;
position = "{1033, 10}";
},
{
name = top;
position = "{637, 700}";
}
);
layerId = "56A87FB8-163D-4578-80C9-082B510993A7";
paths = (
{
closed = 1;
nodes = (
"398 700 LINE",
"-3 0 LINE",
"162 0 LINE",
"473 574 LINE",
"765 574 LINE",
"762 700 LINE"
);
},
{
closed = 1;
nodes = (
"202 274 LINE",
"198 154 LINE",
"576 154 LINE",
"579 274 LINE"
);
},
{
closed = 1;
nodes = (
"495 700 LINE",
"495 0 LINE",
"1038 0 LINE",
"1038 132 LINE",
"653 132 LINE",
"653 286 LINE",
"990 286 LINE",
"990 417 LINE",
"653 417 LINE",
"653 569 LINE",
"1027 569 LINE",
"1027 700 LINE"
);
}
);
width = 1086;
}
);
leftKerningGroup = A;
leftMetricsKey = A;
rightKerningGroup = E;
rightMetricsKey = E;
unicode = 00C6;
},
{
glyphname = B;
layers = (
{
layerId = "56A87FB8-163D-4578-80C9-082B510993A7";
paths = (
{
closed = 1;
nodes = (
"77 700 LINE",
"77 0 LINE",
"410 0 LINE SMOOTH",
"572 0 OFFCURVE",
"674 74 OFFCURVE",
"674 194 CURVE SMOOTH",
"674 286 OFFCURVE",
"618 354 OFFCURVE",
"528 371 CURVE",
"603 390 OFFCURVE",
"649 449 OFFCURVE",
"649 525 CURVE SMOOTH",
"649 633 OFFCURVE",
"553 700 OFFCURVE",
"399 700 CURVE SMOOTH"
);
},
{
closed = 1;
nodes = (
"466 296 OFFCURVE",
"511 265 OFFCURVE",
"511 214 CURVE SMOOTH",
"511 160 OFFCURVE",
"466 129 OFFCURVE",
"391 129 CURVE SMOOTH",
"235 129 LINE",
"235 296 LINE",
"391 296 LINE SMOOTH"
);
},
{
closed = 1;
nodes = (
"451 571 OFFCURVE",
"487 544 OFFCURVE",
"487 496 CURVE SMOOTH",
"487 447 OFFCURVE",
"451 418 OFFCURVE",
"391 418 CURVE SMOOTH",
"235 418 LINE",
"235 571 LINE",
"391 571 LINE SMOOTH"
);
}
);
width = 712;
}
);
leftKerningGroup = H;
rightKerningGroup = B;
unicode = 0042;
},
{
glyphname = C;
layers = (
{
anchors = (
{
name = bottom;
position = "{378, 0}";
},
{
name = top;
position = "{380, 700}";
}
);
layerId = "56A87FB8-163D-4578-80C9-082B510993A7";
paths = (
{
closed = 1;
nodes = (
"188 705 OFFCURVE",
"27 553 OFFCURVE",
"27 351 CURVE SMOOTH",
"27 148 OFFCURVE",
"185 -7 OFFCURVE",
"393 -7 CURVE SMOOTH",
"496 -7 OFFCURVE",
"603 42 OFFCURVE",
"676 118 CURVE",
"584 219 LINE",
"533 169 OFFCURVE",
"465 137 OFFCURVE",
"402 137 CURVE SMOOTH",
"281 137 OFFCURVE",
"189 231 OFFCURVE",
"189 353 CURVE SMOOTH",
"189 475 OFFCURVE",
"281 568 OFFCURVE",
"402 568 CURVE SMOOTH",
"467 568 OFFCURVE",
"536 532 OFFCURVE",
"584 477 CURVE",
"676 589 LINE",
"606 660 OFFCURVE",
"501 705 OFFCURVE",
"399 705 CURVE SMOOTH"
);
}
);
width = 694;
}
);
leftKerningGroup = O;
rightKerningGroup = C;
unicode = 0043;
},
{
glyphname = D;
layers = (
{
anchors = (
{
name = center;
position = "{381, 350}";
},
{
name = top;
position = "{361, 700}";
}
);
layerId = "56A87FB8-163D-4578-80C9-082B510993A7";
paths = (
{
closed = 1;
nodes = (
"77 700 LINE",
"77 0 LINE",
"368 0 LINE SMOOTH",
"589 0 OFFCURVE",
"742 144 OFFCURVE",
"742 350 CURVE SMOOTH",
"742 557 OFFCURVE",
"590 700 OFFCURVE",
"373 700 CURVE SMOOTH"
);
},
{
closed = 1;
nodes = (
"491 567 OFFCURVE",
"581 478 OFFCURVE",
"581 349 CURVE SMOOTH",
"581 221 OFFCURVE",
"495 133 OFFCURVE",
"377 133 CURVE SMOOTH",
"235 133 LINE",
"235 567 LINE",
"370 567 LINE SMOOTH"
);
}
);
width = 769;
}
);
leftKerningGroup = H;
rightKerningGroup = O;
unicode = 0044;
},
{
glyphname = Eth;
layers = (
{
components = (
{
name = D;
transform = "{1, 0, 0, 1, 28.005, 0}";
}
);
layerId = "56A87FB8-163D-4578-80C9-082B510993A7";
paths = (
{
closed = 1;
nodes = (
"0 395 LINE",
"0 307 LINE",
"435 307 LINE",
"435 395 LINE"
);
}
);
width = 797;
}
);
leftKerningGroup = H;
rightKerningGroup = O;
rightMetricsKey = D;
unicode = 00D0;
},
{
glyphname = E;
layers = (
{
anchors = (
{
name = bottom;
position = "{338, 0}";
},
{
name = ogonek;
position = "{615, 10}";
},
{
name = top;
position = "{346, 700}";
}
);
layerId = "56A87FB8-163D-4578-80C9-082B510993A7";
paths = (
{
closed = 1;
nodes = (
"77 700 LINE",
"77 0 LINE",
"620 0 LINE",
"620 131 LINE",
"235 131 LINE",
"235 286 LINE",
"572 286 LINE",
"572 417 LINE",
"235 417 LINE",
"235 569 LINE",
"609 569 LINE",
"609 700 LINE"
);
}
);
width = 668;
}
);
leftKerningGroup = H;
rightKerningGroup = E;
unicode = 0045;
},
{
glyphname = Eogonek;
layers = (
{
layerId = "56A87FB8-163D-4578-80C9-082B510993A7";
paths = (
{
closed = 1;
nodes = (
"77 700 LINE",
"77 0 LINE",
"482 0 LINE",
"451 -44 OFFCURVE",
"433 -83 OFFCURVE",
"433 -121 CURVE SMOOTH",
"433 -181 OFFCURVE",
"478 -202 OFFCURVE",
"518 -202 CURVE SMOOTH",
"559 -202 OFFCURVE",
"597 -180 OFFCURVE",
"621 -138 CURVE",
"581 -90 LINE",
"567 -109 OFFCURVE",
"552 -121 OFFCURVE",
"536 -121 CURVE SMOOTH",
"522 -121 OFFCURVE",
"511 -112 OFFCURVE",
"511 -96 CURVE SMOOTH",
"511 -75 OFFCURVE",
"526 -44 OFFCURVE",
"557 0 CURVE",
"626 0 LINE",
"626 126 LINE",
"235 126 LINE",
"235 291 LINE",
"578 291 LINE",
"578 417 LINE",
"235 417 LINE",
"235 574 LINE",
"616 574 LINE",
"616 700 LINE"
);
}
);
width = 674;
}
);
leftKerningGroup = H;
rightKerningGroup = E;
unicode = 0118;
},
{
glyphname = F;
layers = (
{
layerId = "56A87FB8-163D-4578-80C9-082B510993A7";
paths = (
{
closed = 1;
nodes = (
"77 700 LINE",
"77 0 LINE",
"235 0 LINE",
"235 265 LINE",
"551 265 LINE",
"551 397 LINE",
"235 397 LINE",
"235 569 LINE",
"579 569 LINE",
"580 700 LINE"
);
}
);
width = 595;
}
);
leftKerningGroup = H;
rightKerningGroup = F;
unicode = 0046;
},
{
glyphname = G;
layers = (
{
anchors = (
{
name = bottom;
position = "{390, 0}";
},
{
name = top;
position = "{390, 700}";
}
);
layerId = "56A87FB8-163D-4578-80C9-082B510993A7";
paths = (
{
closed = 1;
nodes = (
"191 705 OFFCURVE",
"27 552 OFFCURVE",
"27 350 CURVE SMOOTH",
"27 147 OFFCURVE",
"188 -7 OFFCURVE",
"399 -7 CURVE SMOOTH",
"497 -7 OFFCURVE",
"610 30 OFFCURVE",
"684 84 CURVE",
"593 199 LINE",
"539 158 OFFCURVE",
"467 131 OFFCURVE",
"410 131 CURVE SMOOTH",
"285 131 OFFCURVE",
"189 226 OFFCURVE",
"189 350 CURVE SMOOTH",
"189 473 OFFCURVE",
"284 568 OFFCURVE",
"409 568 CURVE SMOOTH",
"476 568 OFFCURVE",
"549 538 OFFCURVE",
"600 490 CURVE",
"690 603 LINE",
"619 665 OFFCURVE",
"512 705 OFFCURVE",
"409 705 CURVE SMOOTH"
);
},
{
closed = 1;
nodes = (
"547 353 LINE",
"547 84 LINE",
"684 84 LINE",
"684 353 LINE"
);
}
);
width = 745;
}
);
leftKerningGroup = O;
rightKerningGroup = G;
unicode = 0047;
},
{
glyphname = H;
layers = (
{
anchors = (
{
name = center;
position = "{394, 351}";
},
{
name = top;
position = "{401, 700}";
}
);
layerId = "56A87FB8-163D-4578-80C9-082B510993A7";
paths = (
{
closed = 1;
nodes = (
"552 700 LINE",
"552 408 LINE",
"235 408 LINE",
"235 700 LINE",
"77 700 LINE",
"77 0 LINE",
"235 0 LINE",
"235 276 LINE",
"552 276 LINE",
"552.005 0 LINE",
"710 0 LINE",
"710 700 LINE"
);
}
);
width = 787;
}
);
leftKerningGroup = H;
rightKerningGroup = H;
unicode = 0048;
},
{
glyphname = Hbar;
layers = (
{
components = (
{
name = H;
transform = "{1, 0, 0, 1, 37, 0}";
}
);
layerId = "56A87FB8-163D-4578-80C9-082B510993A7";
paths = (
{
closed = 1;
nodes = (
"28 609 LINE",
"28 513 LINE",
"834 513 LINE",
"834 609 LINE"
);
}
);
width = 862;
}
);
leftKerningGroup = H;
rightKerningGroup = H;
unicode = 0126;
},
{
glyphname = I;
layers = (
{
anchors = (
{
name = ogonek;
position = "{267, 10}";
},
{
name = top;
position = "{156, 700}";
}
);
layerId = "56A87FB8-163D-4578-80C9-082B510993A7";
paths = (
{
closed = 1;
nodes = (
"77 700 LINE",
"77 0 LINE",
"235 0 LINE",
"235 700 LINE"
);
}
);
width = 313;
}
);
leftKerningGroup = H;
rightKerningGroup = H;
unicode = 0049;
},
{
glyphname = Iogonek;
layers = (
{
layerId = "56A87FB8-163D-4578-80C9-082B510993A7";
paths = (
{
closed = 1;
nodes = (
"226 -90 LINE",
"212 -109 OFFCURVE",
"197 -121 OFFCURVE",
"180 -121 CURVE SMOOTH",
"166 -121 OFFCURVE",
"157 -112 OFFCURVE",
"157 -96 CURVE SMOOTH",
"157 -75 OFFCURVE",
"172 -42 OFFCURVE",
"202 0 CURVE",
"235 0 LINE",
"235 700 LINE",
"77 700 LINE",
"77 0 LINE",
"126 0 LINE",
"97 -43 OFFCURVE",
"78 -82 OFFCURVE",
"78 -121 CURVE SMOOTH",
"78 -181 OFFCURVE",
"123 -202 OFFCURVE",
"163 -202 CURVE SMOOTH",
"204 -202 OFFCURVE",
"242 -180 OFFCURVE",
"266 -138 CURVE"
);
}
);
width = 313;
}
);
leftKerningGroup = H;
rightKerningGroup = H;
unicode = 012E;
},
{
glyphname = J;
layers = (
{
anchors = (
{
name = top;
position = "{257, 700}";
}
);
layerId = "56A87FB8-163D-4578-80C9-082B510993A7";
paths = (
{
closed = 1;
nodes = (
"60 700 LINE",
"60 566 LINE",
"300 566 LINE",
"300 228 LINE SMOOTH",
"300 168 OFFCURVE",
"269 136 OFFCURVE",
"217 136 CURVE SMOOTH",
"174 136 OFFCURVE",
"118 162 OFFCURVE",
"69 214 CURVE",
"-4 102 LINE",
"54 33 OFFCURVE",
"131 -7 OFFCURVE",
"225 -7 CURVE SMOOTH",
"370 -7 OFFCURVE",
"460 77 OFFCURVE",
"460 224 CURVE SMOOTH",
"460 700 LINE"
);
}
);
width = 524;
}
);
leftKerningGroup = J;
rightKerningGroup = U;
unicode = 004A;
},
{
glyphname = K;
layers = (
{
anchors = (
{
name = bottom;
position = "{360, 0}";
},
{
name = top;
position = "{360, 700}";
}
);
layerId = "56A87FB8-163D-4578-80C9-082B510993A7";
paths = (
{
closed = 1;
nodes = (
"525 700 LINE",
"235 382 LINE",
"235 700 LINE",
"77 700 LINE",
"77 0 LINE",
"235 0 LINE",
"235 173 LINE",
"709 700 LINE"
);
},
{
closed = 1;
nodes = (
"327 298 LINE",
"537 0 LINE",
"727 0 LINE",
"432 428 LINE"
);
}
);
width = 737;
}
);
leftKerningGroup = H;
rightKerningGroup = X;
unicode = 004B;
},
{
glyphname = L;
layers = (
{
anchors = (
{
name = bottom;
position = "{291, 0}";
},
{
name = top;
position = "{155, 700}";
}
);
layerId = "56A87FB8-163D-4578-80C9-082B510993A7";
paths = (
{
closed = 1;
nodes = (
"77 700 LINE",
"77 0 LINE",
"534 0 LINE",
"534 138 LINE",
"235 138 LINE",
"235 700 LINE"
);
}
);
width = 552;
}
);
leftKerningGroup = H;
rightKerningGroup = L;
unicode = 004C;
},
{
glyphname = Lslash;
layers = (
{
components = (
{
name = L;
transform = "{1, 0, 0, 1, 19, 0}";
}
);
layerId = "56A87FB8-163D-4578-80C9-082B510993A7";
paths = (
{
closed = 1;
nodes = (
"-7 417 LINE",
"20 320 LINE",
"429 439 LINE",
"403 537 LINE"
);
}
);
width = 571;
}
);
leftKerningGroup = H;
rightKerningGroup = L;
rightMetricsKey = L;
unicode = 0141;
},
{
glyphname = M;
layers = (
{
layerId = "56A87FB8-163D-4578-80C9-082B510993A7";
paths = (
{
closed = 1;
nodes = (
"660 700 LINE",
"458 272 LINE",
"254 700 LINE",
"77 700 LINE",
"77 0 LINE",
"220 0 LINE",
"220 472 LINE",
"405 71 LINE",
"509 71 LINE",
"694 472 LINE",
"695 0 LINE",
"837 0 LINE",
"837 700 LINE"
);
}
);
width = 915;
}
);
leftKerningGroup = H;
rightKerningGroup = H;
unicode = 004D;
},
{
glyphname = N;
layers = (
{
anchors = (
{
name = bottom;
position = "{394, 0}";
},
{
name = top;
position = "{394, 700}";
}
);
layerId = "56A87FB8-163D-4578-80C9-082B510993A7";
paths = (
{
closed = 1;
nodes = (
"561 700 LINE",
"561 250 LINE",
"221 700 LINE",
"77 700 LINE",
"77 0 LINE",
"227 0 LINE",
"227 449 LINE",
"567 0 LINE",
"710 0 LINE",
"710 700 LINE"
);
}
);
width = 788;
}
);
leftKerningGroup = H;
rightKerningGroup = H;
unicode = 004E;
},
{
glyphname = Eng;
layers = (
{
anchors = (
{
name = bottom;
position = "{394, 0}";
},
{
name = top;
position = "{394, 700}";
}
);
layerId = "56A87FB8-163D-4578-80C9-082B510993A7";
paths = (
{
closed = 1;
nodes = (
"561 -36 OFFCURVE",
"529 -69 OFFCURVE",
"475 -69 CURVE SMOOTH",
"440 -69 OFFCURVE",
"395 -55 OFFCURVE",
"353 -26 CURVE",
"290 -148 LINE",
"339 -189 OFFCURVE",
"402 -212 OFFCURVE",
"476 -212 CURVE SMOOTH",
"617 -212 OFFCURVE",
"708 -131 OFFCURVE",
"711 1 CURVE",
"561 25 LINE"
);
},
{
closed = 1;
nodes = (
"561 700 LINE",
"561 250 LINE",
"221 700 LINE",
"77 700 LINE",
"77 0 LINE",
"227 0 LINE",
"227 449 LINE",
"567 0 LINE",
"710 0 LINE",
"710 700 LINE"
);
}
);
width = 788;
}
);
leftKerningGroup = H;
rightKerningGroup = H;
unicode = 014A;
},
{
glyphname = O;
layers = (
{
anchors = (
{
name = top;
position = "{396, 700}";
}
);
layerId = "56A87FB8-163D-4578-80C9-082B510993A7";
paths = (
{
closed = 1;
nodes = (
"189 705 OFFCURVE",
"27 554 OFFCURVE",
"27 350 CURVE SMOOTH",
"27 147 OFFCURVE",
"189 -7 OFFCURVE",
"403 -7 CURVE SMOOTH",
"617 -7 OFFCURVE",
"779 148 OFFCURVE",
"779 350 CURVE SMOOTH",
"779 553 OFFCURVE",
"617 705 OFFCURVE",
"403 705 CURVE SMOOTH"
);
},
{
closed = 1;
nodes = (
"522 567 OFFCURVE",
"617 473 OFFCURVE",
"617 350 CURVE SMOOTH",
"617 227 OFFCURVE",
"522 131 OFFCURVE",
"405 131 CURVE SMOOTH",
"288 131 OFFCURVE",
"189 227 OFFCURVE",
"189 350 CURVE SMOOTH",
"189 473 OFFCURVE",
"287 567 OFFCURVE",
"405 567 CURVE SMOOTH"
);
}
);
width = 806;
}
);
leftKerningGroup = O;
rightKerningGroup = O;
unicode = 004F;
},
{
glyphname = Oslash;
layers = (
{
anchors = (
{
name = top;
position = "{391, 700}";
}
);
components = (
{
name = O;
}
);
layerId = "56A87FB8-163D-4578-80C9-082B510993A7";
paths = (
{
closed = 1;
nodes = (
"511 809 LINE",
"190 -116 LINE",
"279 -116 LINE",
"601 809 LINE"
);
}
);
width = 806;
}
);
leftKerningGroup = O;
leftMetricsKey = O;
rightKerningGroup = O;
rightMetricsKey = O;
unicode = 00D8;
},
{
glyphname = OE;
layers = (
{
anchors = (
{
name = bottom;
position = "{778, 0}";
},
{
name = ogonek;
position = "{1055, 10}";
},
{
name = top;
position = "{553, 700}";
}
);
layerId = "56A87FB8-163D-4578-80C9-082B510993A7";
paths = (
{
closed = 1;
nodes = (
"402 700 LINE",
"188 700 OFFCURVE",
"27 548 OFFCURVE",
"27 350 CURVE SMOOTH",
"27 150 OFFCURVE",
"189 0 OFFCURVE",
"402 0 CURVE",
"563 0 LINE",
"565 135 LINE",
"403 134 LINE",
"281 134 OFFCURVE",
"189 226 OFFCURVE",
"189 349 CURVE SMOOTH",
"189 472 OFFCURVE",
"281 564 OFFCURVE",
"403 564 CURVE",
"552 564 LINE",
"552 700 LINE"
);
},
{
closed = 1;
nodes = (
"517 700 LINE",
"517 0 LINE",
"1061 0 LINE",
"1061 132 LINE",
"675 132 LINE",
"675 286 LINE",
"1012 286 LINE",
"1012 417 LINE",
"675 417 LINE",
"675 569 LINE",
"1050 569 LINE",
"1050 700 LINE"
);
}
);
width = 1109;
}
);
leftKerningGroup = O;
leftMetricsKey = O;
rightKerningGroup = E;
rightMetricsKey = E;
unicode = 0152;
},
{
glyphname = P;
layers = (
{
layerId = "56A87FB8-163D-4578-80C9-082B510993A7";
paths = (
{
closed = 1;
nodes = (
"77 700 LINE",
"77 0 LINE",
"235 0 LINE",
"235 200 LINE",
"374 200 LINE SMOOTH",
"552 200 OFFCURVE",
"654 294 OFFCURVE",
"654 457 CURVE SMOOTH",
"654 612 OFFCURVE",
"552 700 OFFCURVE",
"374 700 CURVE SMOOTH"
);
},
{
closed = 1;
nodes = (
"454 569 OFFCURVE",
"504 530 OFFCURVE",
"504 452 CURVE SMOOTH",
"504 372 OFFCURVE",
"454 332 OFFCURVE",
"366 332 CURVE SMOOTH",
"235 332 LINE",
"235 569 LINE",
"366 569 LINE SMOOTH"
);
}
);
width = 678;
}
);
leftKerningGroup = H;
rightKerningGroup = P;
unicode = 0050;
},
{
glyphname = Thorn;
layers = (
{
layerId = "56A87FB8-163D-4578-80C9-082B510993A7";
paths = (
{
closed = 1;
nodes = (
"203 606 LINE",
"225 480 LINE",
"359 480 LINE SMOOTH",
"450 480 OFFCURVE",
"500 438 OFFCURVE",
"500 362 CURVE SMOOTH",
"500 284 OFFCURVE",
"450 241 OFFCURVE",
"359 241 CURVE SMOOTH",
"225 241 LINE",
"225 115 LINE",
"365 115 LINE SMOOTH",
"552 115 OFFCURVE",
"661 209 OFFCURVE",
"661 367 CURVE SMOOTH",
"661 517 OFFCURVE",
"552 606 OFFCURVE",
"365 606 CURVE SMOOTH"
);
},
{
closed = 1;
nodes = (
"77 700 LINE",
"77 0 LINE",
"235 0 LINE",
"235 700 LINE"
);
}
);
width = 685;
}
);
leftKerningGroup = H;
leftMetricsKey = H;
rightKerningGroup = Thorn;
rightMetricsKey = P;
unicode = 00DE;
},
{
glyphname = Q;
layers = (
{
components = (
{
name = O;
}
);
layerId = "56A87FB8-163D-4578-80C9-082B510993A7";
paths = (
{
closed = 1;
nodes = (
"390 -1 LINE",
"439 -101 OFFCURVE",
"521 -162 OFFCURVE",
"618 -162 CURVE SMOOTH",
"686 -162 OFFCURVE",
"762 -133 OFFCURVE",
"816 -85 CURVE",
"759 18 LINE",
"715 -16 OFFCURVE",
"669 -37 OFFCURVE",
"636 -37 CURVE SMOOTH",
"593 -37 OFFCURVE",
"553 -5 OFFCURVE",
"519 44 CURVE"
);
}
);
width = 815;
}
);
leftKerningGroup = O;
rightKerningGroup = O;
unicode = 0051;
},
{
glyphname = R;
layers = (
{
anchors = (
{
name = bottom;
position = "{360, 0}";
},
{
name = top;
position = "{361, 700}";
}
);
layerId = "56A87FB8-163D-4578-80C9-082B510993A7";
paths = (
{
closed = 1;
nodes = (
"77 700 LINE",
"77 0 LINE",
"235 0 LINE",
"235 200 LINE",
"380 200 LINE SMOOTH",
"563 200 OFFCURVE",
"668 294 OFFCURVE",
"668 457 CURVE SMOOTH",
"668 612 OFFCURVE",
"563 700 OFFCURVE",
"380 700 CURVE SMOOTH"
);
},
{
closed = 1;
nodes = (
"362 262 LINE",
"507 0 LINE",
"686 0 LINE",
"517 262 LINE"
);
},
{
closed = 1;
nodes = (
"468 569 OFFCURVE",
"518 530 OFFCURVE",
"518 452 CURVE SMOOTH",
"518 372 OFFCURVE",
"468 332 OFFCURVE",
"381 332 CURVE SMOOTH",
"235 332 LINE",
"235 569 LINE",
"381 569 LINE SMOOTH"
);
}
);
width = 724;
}
);
leftKerningGroup = H;
rightKerningGroup = R;
unicode = 0052;
},
{
glyphname = S;
layers = (
{
anchors = (
{
name = bottom;
position = "{326, 0}";
},
{
name = top;
position = "{333, 700}";
}
);
layerId = "56A87FB8-163D-4578-80C9-082B510993A7";
paths = (
{
closed = 1;
nodes = (
"171 707 OFFCURVE",
"63 627 OFFCURVE",
"63 500 CURVE SMOOTH",
"63 252 OFFCURVE",
"435 329 OFFCURVE",
"435 197 CURVE SMOOTH",
"435 154 OFFCURVE",
"396 130 OFFCURVE",
"331 130 CURVE SMOOTH",
"257 130 OFFCURVE",
"155 171 OFFCURVE",
"83 235 CURVE",
"20 106 LINE",
"99 39 OFFCURVE",
"215 -5 OFFCURVE",
"329 -5 CURVE SMOOTH",
"484 -5 OFFCURVE",
"604 69 OFFCURVE",
"604 206 CURVE SMOOTH",
"604 458 OFFCURVE",
"232 386 OFFCURVE",
"232 515 CURVE SMOOTH",
"232 553 OFFCURVE",
"267 572 OFFCURVE",
"321 572 CURVE SMOOTH",
"377 572 OFFCURVE",
"464 544 OFFCURVE",
"538 500 CURVE",
"600 631 LINE",
"530 677 OFFCURVE",
"432 707 OFFCURVE",
"334 707 CURVE SMOOTH"
);
}
);
width = 637;
}
);
leftKerningGroup = S;
rightKerningGroup = S;
unicode = 0053;
},
{
glyphname = T;
lastChange = "2016-05-14 08:45:32 +0000";
layers = (
{
anchors = (
{
name = bottom;
position = "{288, 0}";
},
{
name = center;
position = "{291, 350}";
},
{
name = top;
position = "{311, 700}";
}
);
layerId = "56A87FB8-163D-4578-80C9-082B510993A7";
paths = (
{
closed = 1;
nodes = (
"8 700 LINE",
"8 566 LINE",
"221 566 LINE",
"221 0 LINE",
"379 0 LINE",
"379 566 LINE",
"594 566 LINE",
"594 700 LINE"
);
}
);
width = 601;
}
);
leftKerningGroup = T;
rightKerningGroup = T;
unicode = 0054;
},
{
glyphname = U;
layers = (
{
anchors = (
{
name = ogonek;
position = "{557, 10}";
},
{
name = top;
position = "{380, 700}";
}
);
layerId = "56A87FB8-163D-4578-80C9-082B510993A7";
paths = (
{
closed = 1;
nodes = (
"537 700 LINE",
"537 293 LINE SMOOTH",
"537 192 OFFCURVE",
"476 131 OFFCURVE",
"382 131 CURVE SMOOTH",
"287 131 OFFCURVE",
"222 192 OFFCURVE",
"222 293 CURVE SMOOTH",
"222 700 LINE",
"64 700 LINE",
"64 293 LINE SMOOTH",
"64 108 OFFCURVE",
"187 -7 OFFCURVE",
"381 -7 CURVE SMOOTH",
"575 -7 OFFCURVE",
"696 108 OFFCURVE",
"696 293 CURVE SMOOTH",
"696 700 LINE"
);
}
);
width = 760;
}
);
leftKerningGroup = U;
rightKerningGroup = U;
unicode = 0055;
},
{
glyphname = Uogonek;
layers = (
{
layerId = "56A87FB8-163D-4578-80C9-082B510993A7";
paths = (
{
closed = 1;
nodes = (
"538 700 LINE",
"538 293 LINE SMOOTH",
"538 192 OFFCURVE",
"477 131 OFFCURVE",
"383 131 CURVE SMOOTH",
"288 131 OFFCURVE",
"223 193 OFFCURVE",
"223 293 CURVE SMOOTH",
"223 700 LINE",
"65 700 LINE",
"65 293 LINE SMOOTH",
"65 109 OFFCURVE",
"188 -7 OFFCURVE",
"382 -7 CURVE SMOOTH",
"575 -7 OFFCURVE",
"697 109 OFFCURVE",
"697 293 CURVE SMOOTH",
"697 700 LINE"
);
},
{
closed = 1;
nodes = (
"429 18 LINE",
"392 -31 OFFCURVE",
"368 -77 OFFCURVE",
"368 -121 CURVE SMOOTH",
"368 -181 OFFCURVE",
"413 -202 OFFCURVE",
"453 -202 CURVE SMOOTH",
"494 -202 OFFCURVE",
"532 -180 OFFCURVE",
"557 -138 CURVE",
"516 -90 LINE",
"502 -109 OFFCURVE",
"488 -121 OFFCURVE",
"471 -121 CURVE SMOOTH",
"457 -121 OFFCURVE",
"447 -112 OFFCURVE",
"447 -96 CURVE SMOOTH",
"447 -72 OFFCURVE",
"467 -34 OFFCURVE",
"504 18 CURVE"
);
}
);
width = 761;
}
);
leftKerningGroup = U;
rightKerningGroup = U;
unicode = 0172;
},
{
glyphname = V;
layers = (
{
layerId = "56A87FB8-163D-4578-80C9-082B510993A7";
paths = (
{
closed = 1;
nodes = (
"553 700 LINE",
"361 172 LINE",
"170 700 LINE",
"0 700 LINE",
"275 0 LINE",
"438 0 LINE",
"715 700 LINE"
);
}
);
width = 716;
}
);
leftKerningGroup = V;
rightKerningGroup = V;
unicode = 0056;
},
{
glyphname = W;
layers = (
{
anchors = (
{
name = top;
position = "{537, 700}";
}
);
layerId = "56A87FB8-163D-4578-80C9-082B510993A7";
paths = (
{
closed = 1;
nodes = (
"911 700 LINE",
"766 172 LINE",
"618 700 LINE",
"463 700 LINE",
"317 172 LINE",
"170 700 LINE",
"0 700 LINE",
"230 0 LINE",
"393 0 LINE",
"537 499 LINE",
"679 0 LINE",
"842 0 LINE",
"1074 700 LINE"
);
}
);
width = 1066;
}
);
leftKerningGroup = V;
rightKerningGroup = V;
unicode = 0057;
},
{
glyphname = X;
layers = (
{
layerId = "56A87FB8-163D-4578-80C9-082B510993A7";
paths = (
{
closed = 1;
nodes = (
"502 700 LINE",
"355 486 LINE",
"209 700 LINE",
"24 700 LINE",
"259 358 LINE",
"8 0 LINE",
"193 0 LINE",
"355 233 LINE",
"519 0 LINE",
"709 0 LINE",
"456 365 LINE",
"688 700 LINE"
);
}
);
width = 721;
}
);
leftKerningGroup = X;
rightKerningGroup = X;
unicode = 0058;
},
{
glyphname = Y;
layers = (
{
anchors = (
{
name = top;
position = "{333, 700}";
}
);
layerId = "56A87FB8-163D-4578-80C9-082B510993A7";
paths = (
{
closed = 1;
nodes = (
"510 700 LINE",
"335 386 LINE",
"156 700 LINE",
"-3 700 LINE",
"324 96 LINE",
"344 96 LINE",
"669 700 LINE"
);
},
{
closed = 1;
nodes = (
"256 304 LINE",
"256 0 LINE",
"414 0 LINE",
"414 304 LINE"
);
}
);
width = 666;
}
);
leftKerningGroup = V;
rightKerningGroup = V;
unicode = 0059;
},
{
glyphname = Z;
layers = (
{
anchors = (
{
name = top;
position = "{349, 700}";
}
);
layerId = "56A87FB8-163D-4578-80C9-082B510993A7";
paths = (
{
closed = 1;
nodes = (
"44 700 LINE",
"43 568 LINE",
"423 568 LINE",
"31 107 LINE",
"31 0 LINE",
"640 0 LINE",
"640 132 LINE",
"243 132 LINE",
"635 594 LINE",
"635 700 LINE"
);
}
);
width = 672;
}
);
leftKerningGroup = Z;
rightKerningGroup = Z;
unicode = 005A;
},
{
glyphname = A.ss01;
layers = (
{
anchors = (
{
name = ogonek;
position = "{726, 10}";
},
{
name = top;
position = "{382, 700}";
}
);
layerId = "56A87FB8-163D-4578-80C9-082B510993A7";
paths = (
{
closed = 1;
nodes = (
"186 707 OFFCURVE",
"64 590 OFFCURVE",
"64 406 CURVE SMOOTH",
"64 0 LINE",
"222 0 LINE",
"222 173 LINE",
"541 173 LINE",
"541 0 LINE",
"699 0 LINE",
"699 406 LINE SMOOTH",
"699 590 OFFCURVE",
"577 707 OFFCURVE",
"380 707 CURVE SMOOTH"
);
},
{
closed = 1;
nodes = (
"480 569 OFFCURVE",
"541 506 OFFCURVE",
"541 406 CURVE SMOOTH",
"542 301 LINE",
"222 301 LINE",
"222 406 LINE SMOOTH",
"222 506 OFFCURVE",
"283 569 OFFCURVE",
"381 569 CURVE SMOOTH"
);
}
);
width = 763;
}
);
leftKerningGroup = A.ss01;
leftMetricsKey = U;
rightKerningGroup = A.ss01;
rightMetricsKey = U;
},
{
glyphname = Aogonek.ss01;
layers = (
{
layerId = "56A87FB8-163D-4578-80C9-082B510993A7";
paths = (
{
closed = 1;
nodes = (
"186 707 OFFCURVE",
"64 590 OFFCURVE",
"64 406 CURVE SMOOTH",
"64 0 LINE",
"222 0 LINE",
"222 173 LINE",
"541 173 LINE",
"541 0 LINE",
"586 0 LINE",
"556 -43 OFFCURVE",
"537 -82 OFFCURVE",
"537 -121 CURVE SMOOTH",
"537 -181 OFFCURVE",
"583 -202 OFFCURVE",
"622 -202 CURVE SMOOTH",
"663 -202 OFFCURVE",
"702 -180 OFFCURVE",
"726 -138 CURVE",
"685 -90 LINE",
"672 -109 OFFCURVE",
"657 -121 OFFCURVE",
"640 -121 CURVE SMOOTH",
"626 -121 OFFCURVE",
"616 -112 OFFCURVE",
"616 -96 CURVE SMOOTH",
"616 -75 OFFCURVE",
"631 -42 OFFCURVE",
"661 0 CURVE",
"700 0 LINE",
"699 406 LINE SMOOTH",
"699 590 OFFCURVE",
"577 707 OFFCURVE",
"380 707 CURVE SMOOTH"
);
},
{
closed = 1;
nodes = (
"480 569 OFFCURVE",
"541 506 OFFCURVE",
"541 406 CURVE SMOOTH",
"541 301 LINE",
"222 301 LINE",
"222 406 LINE SMOOTH",
"222 506 OFFCURVE",
"283 569 OFFCURVE",
"381 569 CURVE SMOOTH"
);
}
);
width = 769;
}
);
leftKerningGroup = Aogonek.ss01;
rightKerningGroup = Aogonek.ss01;
},
{
glyphname = E.ss01;
layers = (
{
anchors = (
{
name = bottom;
position = "{301, 0}";
},
{
name = ogonek;
position = "{541, 10}";
},
{
name = top;
position = "{301, 700}";
}
);
layerId = "56A87FB8-163D-4578-80C9-082B510993A7";
paths = (
{
closed = 1;
nodes = (
"179 707 OFFCURVE",
"74 633 OFFCURVE",
"74 524 CURVE SMOOTH",
"74 453 OFFCURVE",
"118 392 OFFCURVE",
"182 370 CURVE",
"94 345 OFFCURVE",
"37 272 OFFCURVE",
"37 191 CURVE SMOOTH",
"37 73 OFFCURVE",
"155 -7 OFFCURVE",
"319 -7 CURVE SMOOTH",
"417 -7 OFFCURVE",
"524 22 OFFCURVE",
"586 61 CURVE",
"525 181 LINE",
"486 157 OFFCURVE",
"403 128 OFFCURVE",
"334 128 CURVE SMOOTH",
"259 128 OFFCURVE",
"200 160 OFFCURVE",
"200 213 CURVE SMOOTH",
"200 261 OFFCURVE",
"250 296 OFFCURVE",
"322 296 CURVE SMOOTH",
"478 296 LINE",
"478 424 LINE",
"322 424 LINE SMOOTH",
"263 424 OFFCURVE",
"223 457 OFFCURVE",
"223 499 CURVE SMOOTH",
"223 548 OFFCURVE",
"277 573 OFFCURVE",
"349 573 CURVE SMOOTH",
"399 573 OFFCURVE",
"460 560 OFFCURVE",
"509 538 CURVE",
"560 658 LINE",
"507 687 OFFCURVE",
"413 707 OFFCURVE",
"335 707 CURVE SMOOTH"
);
}
);
width = 601;
}
);
leftKerningGroup = E.ss01;
leftMetricsKey = eight;
rightKerningGroup = E.ss01;
},
{
glyphname = Eogonek.ss01;
layers = (
{
layerId = "56A87FB8-163D-4578-80C9-082B510993A7";
paths = (
{
closed = 1;
nodes = (
"179 707 OFFCURVE",
"74 633 OFFCURVE",
"74 524 CURVE SMOOTH",
"74 453 OFFCURVE",
"118 392 OFFCURVE",
"182 370 CURVE",
"94 345 OFFCURVE",
"37 272 OFFCURVE",
"37 191 CURVE SMOOTH",
"37 73 OFFCURVE",
"155 -7 OFFCURVE",
"319 -7 CURVE SMOOTH",
"417 -7 OFFCURVE",
"524 22 OFFCURVE",
"586 61 CURVE",
"525 181 LINE",
"486 157 OFFCURVE",
"403 128 OFFCURVE",
"334 128 CURVE SMOOTH",
"259 128 OFFCURVE",
"200 160 OFFCURVE",
"200 213 CURVE SMOOTH",
"200 261 OFFCURVE",
"250 296 OFFCURVE",
"322 296 CURVE SMOOTH",
"478 296 LINE",
"478 424 LINE",
"322 424 LINE SMOOTH",
"263 424 OFFCURVE",
"223 457 OFFCURVE",
"223 499 CURVE SMOOTH",
"223 548 OFFCURVE",
"277 573 OFFCURVE",
"349 573 CURVE SMOOTH",
"399 573 OFFCURVE",
"460 560 OFFCURVE",
"509 538 CURVE",
"560 658 LINE",
"507 687 OFFCURVE",
"413 707 OFFCURVE",
"335 707 CURVE SMOOTH"
);
},
{
closed = 1;
nodes = (
"413 18 LINE",
"376 -31 OFFCURVE",
"352 -76 OFFCURVE",
"352 -121 CURVE SMOOTH",
"352 -181 OFFCURVE",
"397 -202 OFFCURVE",
"437 -202 CURVE SMOOTH",
"478 -202 OFFCURVE",
"516 -180 OFFCURVE",
"541 -138 CURVE",
"500 -90 LINE",
"486 -109 OFFCURVE",
"471 -121 OFFCURVE",
"455 -121 CURVE SMOOTH",
"441 -121 OFFCURVE",
"430 -112 OFFCURVE",
"430 -96 CURVE SMOOTH",
"430 -68 OFFCURVE",
"455 -25 OFFCURVE",
"501 33 CURVE"
);
}
);
width = 601;
}
);
leftKerningGroup = Eogonek.ss01;
rightKerningGroup = Eogonek.ss01;
},
{
glyphname = F.ss01;
layers = (
{
layerId = "56A87FB8-163D-4578-80C9-082B510993A7";
paths = (
{
closed = 1;
nodes = (
"222 0 LINE",
"222 466 LINE SMOOTH",
"222 529 OFFCURVE",
"264 569 OFFCURVE",
"328 569 CURVE SMOOTH",
"383 569 OFFCURVE",
"457 550 OFFCURVE",
"512 526 CURVE",
"549 662 LINE",
"491 689 OFFCURVE",
"400 707 OFFCURVE",
"314 707 CURVE SMOOTH",
"162 707 OFFCURVE",
"64 614 OFFCURVE",
"64 469 CURVE SMOOTH",
"64 0 LINE"
);
},
{
closed = 1;
nodes = (
"99 387 LINE",
"99 256 LINE SMOOTH",
"488 256 LINE",
"488 387 LINE"
);
}
);
width = 549;
}
);
leftKerningGroup = F.ss01;
leftMetricsKey = U;
rightKerningGroup = F.ss01;
},
{
glyphname = G.ss01;
layers = (
{
anchors = (
{
name = bottom;
position = "{375, 0}";
},
{
name = top;
position = "{375, 700}";
}
);
layerId = "56A87FB8-163D-4578-80C9-082B510993A7";
paths = (
{
closed = 1;
nodes = (
"191 705 OFFCURVE",
"27 552 OFFCURVE",
"27 350 CURVE SMOOTH",
"27 147 OFFCURVE",
"181 -7 OFFCURVE",
"383 -7 CURVE SMOOTH",
"485 -7 OFFCURVE",
"590 55 OFFCURVE",
"645 141 CURVE",
"569 229 LINE",
"536 171 OFFCURVE",
"470 131 OFFCURVE",
"400 131 CURVE SMOOTH",
"281 131 OFFCURVE",
"189 226 OFFCURVE",
"189 350 CURVE SMOOTH",
"189 473 OFFCURVE",
"285 568 OFFCURVE",
"409 568 CURVE SMOOTH",
"477 568 OFFCURVE",
"549 538 OFFCURVE",
"600 490 CURVE",
"691 603 LINE",
"619 665 OFFCURVE",
"511 705 OFFCURVE",
"407 705 CURVE SMOOTH"
);
},
{
closed = 1;
nodes = (
"547 361 LINE",
"547 112 LINE",
"567 93 LINE",
"567 0 LINE",
"684 0 LINE",
"684 361 LINE"
);
}
);
width = 746;
}
);
leftKerningGroup = O;
leftMetricsKey = O;
rightKerningGroup = G;
},
{
glyphname = I.ss01;
layers = (
{
anchors = (
{
name = ogonek;
position = "{448, 10}";
},
{
name = top;
position = "{249, 700}";
}
);
layerId = "56A87FB8-163D-4578-80C9-082B510993A7";
paths = (
{
closed = 1;
nodes = (
"47 569 LINE",
"451 569 LINE",
"451 700 LINE",
"47 700 LINE"
);
},
{
closed = 1;
nodes = (
"47 0 LINE",
"451 0 LINE",
"451 132 LINE",
"47 132 LINE"
);
},
{
closed = 1;
nodes = (
"170 700 LINE",
"170 0 LINE",
"328 0 LINE",
"328 700 LINE"
);
}
);
width = 498;
}
);
leftKerningGroup = I.ss01;
rightKerningGroup = I.ss01;
},
{
glyphname = J.ss01;
layers = (
{
anchors = (
{
name = top;
position = "{266, 700}";
}
);
layerId = "56A87FB8-163D-4578-80C9-082B510993A7";
paths = (
{
closed = 1;
nodes = (
"60 700 LINE",
"60 566 LINE",
"301 566 LINE",
"301 128 LINE SMOOTH",
"301 68 OFFCURVE",
"269 36 OFFCURVE",
"217 36 CURVE SMOOTH",
"174 36 OFFCURVE",
"118 62 OFFCURVE",
"69 114 CURVE",
"-4 2 LINE",
"54 -67 OFFCURVE",
"131 -107 OFFCURVE",
"225 -107 CURVE SMOOTH",
"370 -107 OFFCURVE",
"460 -23 OFFCURVE",
"460 124 CURVE SMOOTH",
"460 700 LINE"
);
}
);
width = 524;
}
);
leftKerningGroup = J.ss01;
leftMetricsKey = J;
rightKerningGroup = J.ss01;
rightMetricsKey = J;
},
{
glyphname = M.ss01;
layers = (
{
anchors = (
{
name = ogonek;
position = "{267, 10}";
},
{
name = top;
position = "{156, 700}";
}
);
layerId = "56A87FB8-163D-4578-80C9-082B510993A7";
paths = (
{
closed = 1;
nodes = (
"289 699 OFFCURVE",
"184 578 OFFCURVE",
"184 398 CURVE",
"235 377 LINE",
"235 476 OFFCURVE",
"298 551 OFFCURVE",
"387 552 CURVE SMOOTH",
"466 552 OFFCURVE",
"517 493 OFFCURVE",
"517 405 CURVE SMOOTH",
"517 0 LINE",
"677 0 LINE",
"677 444 LINE SMOOTH",
"677 597 OFFCURVE",
"583 700 OFFCURVE",
"449 700 CURVE SMOOTH"
);
},
{
closed = 1;
nodes = (
"731 699 OFFCURVE",
"626 578 OFFCURVE",
"626 398 CURVE",
"677 377 LINE",
"677 476 OFFCURVE",
"740 551 OFFCURVE",
"829 552 CURVE SMOOTH",
"908 552 OFFCURVE",
"959 493 OFFCURVE",
"959 405 CURVE SMOOTH",
"959 0 LINE",
"1119 0 LINE",
"1119 444 LINE SMOOTH",
"1119 597 OFFCURVE",
"1025 700 OFFCURVE",
"890 700 CURVE SMOOTH"
);
},
{
closed = 1;
nodes = (
"77 700 LINE",
"77 0 LINE",
"235 0 LINE",
"235 700 LINE"
);
}
);
width = 1183;
}
);
leftKerningGroup = M.ss01;
leftMetricsKey = H;
rightKerningGroup = M.ss01;
rightMetricsKey = U;
},
{
glyphname = N.ss01;
layers = (
{
anchors = (
{
name = bottom;
position = "{384, 0}";
},
{
name = ogonek;
position = "{267, 10}";
},
{
name = top;
position = "{391, 700}";
}
);
layerId = "56A87FB8-163D-4578-80C9-082B510993A7";
paths = (
{
closed = 1;
nodes = (
"294 699 OFFCURVE",
"183 578 OFFCURVE",
"183 398 CURVE",
"235 377 LINE",
"235 476 OFFCURVE",
"303 551 OFFCURVE",
"402 552 CURVE SMOOTH",
"486 552 OFFCURVE",
"542 492 OFFCURVE",
"542 406 CURVE SMOOTH",
"542 0 LINE",
"702 0 LINE",
"702 444 LINE SMOOTH",
"702 598 OFFCURVE",
"604 700 OFFCURVE",
"461 700 CURVE SMOOTH"
);
},
{
closed = 1;
nodes = (
"77 700 LINE",
"77 0 LINE",
"235 0 LINE",
"235 700 LINE"
);
}
);
width = 766;
}
);
leftKerningGroup = N.ss01;
leftMetricsKey = H;
rightKerningGroup = N.ss01;
rightMetricsKey = U;
},
{
glyphname = Eng.ss01;
lastChange = "2016-05-14 08:45:32 +0000";
layers = (
{
anchors = (
{
name = bottom;
position = "{384, 0}";
},
{
name = ogonek;
position = "{267, 10}";
},
{
name = top;
position = "{391, 700}";
}
);
layerId = "56A87FB8-163D-4578-80C9-082B510993A7";
paths = (
{
closed = 1;
nodes = (
"543 -39 OFFCURVE",
"512 -69 OFFCURVE",
"462 -69 CURVE SMOOTH",
"427 -69 OFFCURVE",
"384 -55 OFFCURVE",
"343 -26 CURVE",
"282 -148 LINE",
"331 -189 OFFCURVE",
"394 -212 OFFCURVE",
"468 -212 CURVE SMOOTH",
"609 -212 OFFCURVE",
"700 -132 OFFCURVE",
"703 0 CURVE",
"543 17 LINE"
);
},
{
closed = 1;
nodes = (
"294 699 OFFCURVE",
"183 578 OFFCURVE",
"183 398 CURVE",
"235 377 LINE",
"235 476 OFFCURVE",
"303 551 OFFCURVE",
"402 552 CURVE SMOOTH",
"486 552 OFFCURVE",
"542 492 OFFCURVE",
"542 406 CURVE SMOOTH",
"542 0 LINE",
"702 0 LINE",
"702 444 LINE SMOOTH",
"702 598 OFFCURVE",
"604 700 OFFCURVE",
"461 700 CURVE SMOOTH"
);
},
{
closed = 1;
nodes = (
"77 700 LINE",
"77 0 LINE",
"235 0 LINE",
"235 700 LINE"
);
}
);
width = 767;
}
);
leftKerningGroup = H;
rightKerningGroup = H;
},
{
glyphname = Q.ss01;
layers = (
{
components = (
{
name = O;
}
);
layerId = "56A87FB8-163D-4578-80C9-082B510993A7";
paths = (
{
closed = 1;
nodes = (
"341 -122 LINE",
"455 -122 LINE",
"455 285 LINE",
"341 285 LINE"
);
}
);
width = 806;
}
);
leftKerningGroup = O;
leftMetricsKey = O;
rightKerningGroup = O;
rightMetricsKey = O;
},
{
glyphname = T.ss01;
layers = (
{
anchors = (
{
name = bottom;
position = "{321, 0}";
},
{
name = center;
position = "{337, 350}";
},
{
name = top;
position = "{337, 700}";
}
);
layerId = "56A87FB8-163D-4578-80C9-082B510993A7";
paths = (
{
closed = 1;
nodes = (
"221 707 OFFCURVE",
"111 680 OFFCURVE",
"21 630 CURVE",
"68 502 LINE",
"144 542 OFFCURVE",
"237 566 OFFCURVE",
"332 566 CURVE SMOOTH",
"428 566 OFFCURVE",
"520 543 OFFCURVE",
"599 502 CURVE",
"646 629 LINE",
"554 680 OFFCURVE",
"444 707 OFFCURVE",
"332 707 CURVE SMOOTH"
);
},
{
closed = 1;
nodes = (
"255 628 LINE",
"255 0 LINE",
"413 0 LINE",
"413 628 LINE"
);
}
);
width = 674;
}
);
leftKerningGroup = T;
rightKerningGroup = T;
},
{
glyphname = W.ss01;
layers = (
{
anchors = (
{
name = top;
position = "{585, 700}";
}
);
layerId = "56A87FB8-163D-4578-80C9-082B510993A7";
paths = (
{
closed = 1;
nodes = (
"948 700 LINE",
"948 270 LINE SMOOTH",
"948 188 OFFCURVE",
"893 131 OFFCURVE",
"809 131 CURVE SMOOTH",
"725 131 OFFCURVE",
"664 188 OFFCURVE",
"664 270 CURVE SMOOTH",
"664 700 LINE",
"506 700 LINE",
"506 270 LINE SMOOTH",
"506 188 OFFCURVE",
"448 131 OFFCURVE",
"364 131 CURVE SMOOTH",
"280 131 OFFCURVE",
"222 188 OFFCURVE",
"222 270 CURVE SMOOTH",
"222 700 LINE",
"64 700 LINE",
"64 270 LINE SMOOTH",
"64 108 OFFCURVE",
"178 -7 OFFCURVE",
"339 -7 CURVE SMOOTH",
"450 -7 OFFCURVE",
"544 47 OFFCURVE",
"586 123 CURVE",
"628 47 OFFCURVE",
"724 -7 OFFCURVE",
"834 -7 CURVE SMOOTH",
"993 -7 OFFCURVE",
"1106 108 OFFCURVE",
"1106 270 CURVE SMOOTH",
"1106 700 LINE"
);
}
);
width = 1170;
}
);
leftKerningGroup = W.ss01;
leftMetricsKey = U;
rightKerningGroup = W.ss01;
rightMetricsKey = U;
},
{
glyphname = Y.ss01;
layers = (
{
anchors = (
{
name = top;
position = "{371, 700}";
}
);
layerId = "56A87FB8-163D-4578-80C9-082B510993A7";
paths = (
{
closed = 1;
nodes = (
"470 156 OFFCURVE",
"571 275 OFFCURVE",
"571 455 CURVE",
"520 466 LINE",
"520 366 OFFCURVE",
"456 297 OFFCURVE",
"364 296 CURVE SMOOTH",
"280 296 OFFCURVE",
"222 353 OFFCURVE",
"222 435 CURVE SMOOTH",
"222 700 LINE",
"64 700 LINE",
"64 420 LINE SMOOTH",
"64 262 OFFCURVE",
"167 154 OFFCURVE",
"317 154 CURVE SMOOTH"
);
},
{
closed = 1;
nodes = (
"520 700 LINE",
"520 185 LINE SMOOTH",
"520 94 OFFCURVE",
"449 31 OFFCURVE",
"345 31 CURVE",
"274 31 OFFCURVE",
"191 63 OFFCURVE",
"139 109 CURVE",
"72 -1 LINE",
"138 -64 OFFCURVE",
"254 -107 OFFCURVE",
"365 -107 CURVE SMOOTH",
"551 -107 OFFCURVE",
"678 9 OFFCURVE",
"678 181 CURVE SMOOTH",
"678 700 LINE"
);
}
);
width = 742;
}
);
leftKerningGroup = Y.ss01;
leftMetricsKey = U;
rightKerningGroup = Y.ss01;
rightMetricsKey = J;
},
{
glyphname = Z.ss01;
layers = (
{
anchors = (
{
name = top;
position = "{336, 700}";
}
);
layerId = "56A87FB8-163D-4578-80C9-082B510993A7";
paths = (
{
closed = 1;
nodes = (
"333 409 LINE",
"333 298 LINE",
"581 298 LINE",
"581 409 LINE"
);
},
{
closed = 1;
nodes = (
"95 404 LINE",
"95 293 LINE",
"335 293 LINE",
"335 404 LINE"
);
},
{
closed = 1;
nodes = (
"44 700 LINE",
"43 568 LINE",
"423 568 LINE",
"31 107 LINE",
"31 0 LINE",
"640 0 LINE",
"640 132 LINE",
"243 132 LINE",
"635 594 LINE",
"635 700 LINE"
);
}
);
width = 672;
}
);
leftKerningGroup = Z.ss01;
leftMetricsKey = Z;
rightKerningGroup = Z.ss01;
rightMetricsKey = Z;
},
{
glyphname = a;
layers = (
{
anchors = (
{
name = ogonek;
position = "{563, 10}";
},
{
name = top;
position = "{296, 538}";
}
);
layerId = "56A87FB8-163D-4578-80C9-082B510993A7";
paths = (
{
closed = 1;
nodes = (
"214 544 OFFCURVE",
"146 522 OFFCURVE",
"65 482 CURVE",
"113 376 LINE",
"169 407 OFFCURVE",
"226 423 OFFCURVE",
"273 423 CURVE SMOOTH",
"347 423 OFFCURVE",
"385 390 OFFCURVE",
"385 333 CURVE",
"386 0 LINE",
"537 0 LINE",
"536 351 LINE SMOOTH",
"536 472 OFFCURVE",
"453 544 OFFCURVE",
"308 544 CURVE SMOOTH"
);
},
{
closed = 1;
nodes = (
"237 323 LINE SMOOTH",
"105 322 OFFCURVE",
"32 262 OFFCURVE",
"32 161 CURVE SMOOTH",
"32 63 OFFCURVE",
"102 -7 OFFCURVE",
"218 -7 CURVE SMOOTH",
"312 -7 OFFCURVE",
"379 32 OFFCURVE",
"409 103 CURVE",
"386 187 LINE",
"378 139 OFFCURVE",
"326 103 OFFCURVE",
"261 103 CURVE SMOOTH",
"208 103 OFFCURVE",
"176 130 OFFCURVE",
"176 171 CURVE SMOOTH",
"176 214 OFFCURVE",
"205 232 OFFCURVE",
"264 232 CURVE SMOOTH",
"402 232 LINE",
"402 323 LINE"
);
}
);
width = 596;
}
);
leftKerningGroup = a;
rightKerningGroup = n;
unicode = 0061;
},
{
glyphname = aogonek;
layers = (
{
layerId = "56A87FB8-163D-4578-80C9-082B510993A7";
paths = (
{
closed = 1;
nodes = (
"214 544 OFFCURVE",
"146 522 OFFCURVE",
"65 482 CURVE",
"113 376 LINE",
"169 407 OFFCURVE",
"226 423 OFFCURVE",
"273 423 CURVE SMOOTH",
"348 423 OFFCURVE",
"386 390 OFFCURVE",
"387 334 CURVE",
"387 323 LINE",
"237 323 LINE SMOOTH",
"105 322 OFFCURVE",
"32 262 OFFCURVE",
"32 161 CURVE SMOOTH",
"32 63 OFFCURVE",
"102 -7 OFFCURVE",
"218 -7 CURVE SMOOTH",
"293 -7 OFFCURVE",
"351 17 OFFCURVE",
"388 63 CURVE",
"388 0 LINE",
"425 0 LINE",
"394 -42 OFFCURVE",
"375 -82 OFFCURVE",
"375 -121 CURVE SMOOTH",
"375 -181 OFFCURVE",
"420 -202 OFFCURVE",
"460 -202 CURVE SMOOTH",
"502 -202 OFFCURVE",
"539 -180 OFFCURVE",
"564 -138 CURVE",
"523 -90 LINE",
"510 -109 OFFCURVE",
"495 -121 OFFCURVE",
"479 -121 CURVE SMOOTH",
"464 -121 OFFCURVE",
"454 -112 OFFCURVE",
"454 -96 CURVE SMOOTH",
"454 -75 OFFCURVE",
"470 -42 OFFCURVE",
"500.003 0 CURVE",
"539 0 LINE",
"539 351 LINE SMOOTH",
"537 472 OFFCURVE",
"454 544 OFFCURVE",
"309 544 CURVE SMOOTH"
);
},
{
closed = 1;
nodes = (
"387 182 LINE",
"379 139 OFFCURVE",
"323 103 OFFCURVE",
"261 103 CURVE SMOOTH",
"208 103 OFFCURVE",
"176 130 OFFCURVE",
"176 171 CURVE SMOOTH",
"176 214 OFFCURVE",
"204 232 OFFCURVE",
"265 232 CURVE SMOOTH",
"387 232 LINE"
);
}
);
width = 600;
}
);
leftKerningGroup = a;
rightKerningGroup = n;
unicode = 0105;
},
{
glyphname = ae;
lastChange = "2016-05-14 08:45:32 +0000";
layers = (
{
anchors = (
{
name = top;
position = "{486, 538}";
}
);
layerId = "56A87FB8-163D-4578-80C9-082B510993A7";
paths = (
{
closed = 0;
nodes = (
"556 124 LINE"
);
},
{
closed = 1;
nodes = (
"230 544 OFFCURVE",
"147 522 OFFCURVE",
"65 484 CURVE",
"101 376 LINE",
"161 407 OFFCURVE",
"223 423 OFFCURVE",
"275 423 CURVE SMOOTH",
"349 423 OFFCURVE",
"388 390 OFFCURVE",
"388 333 CURVE",
"388 178 LINE",
"539 142 LINE",
"539 351 LINE SMOOTH",
"538 472 OFFCURVE",
"454 544 OFFCURVE",
"309 544 CURVE SMOOTH"
);
},
{
closed = 1;
nodes = (
"238 314 LINE SMOOTH",
"107 313 OFFCURVE",
"32 258 OFFCURVE",
"32 158 CURVE SMOOTH",
"32 60 OFFCURVE",
"105 -7 OFFCURVE",
"225 -7 CURVE SMOOTH",
"340 -7 OFFCURVE",
"421 43 OFFCURVE",
"460 138 CURVE",
"393 183 LINE",
"365 121 OFFCURVE",
"318 97 OFFCURVE",
"262 97 CURVE SMOOTH",
"210 97 OFFCURVE",
"176 126 OFFCURVE",
"176 171 CURVE SMOOTH",
"176 214 OFFCURVE",
"210 237 OFFCURVE",
"269 237 CURVE SMOOTH",
"404 237 LINE",
"404 314 LINE"
);
},
{
closed = 1;
nodes = (
"517 234 LINE",
"941 234 LINE",
"949 420 OFFCURVE",
"843 543 OFFCURVE",
"667 543 CURVE SMOOTH",
"510 543 OFFCURVE",
"410 433 OFFCURVE",
"410 267 CURVE SMOOTH",
"410 104 OFFCURVE",
"507 -6 OFFCURVE",
"672 -6 CURVE SMOOTH",
"769 -6 OFFCURVE",
"848 29 OFFCURVE",
"902 88 CURVE",
"821 172 LINE",
"784 134 OFFCURVE",
"736 114 OFFCURVE",
"684 114 CURVE SMOOTH",
"598 114 OFFCURVE",
"539 175 OFFCURVE",
"539 276 CURVE SMOOTH",
"539 367 OFFCURVE",
"590 435 OFFCURVE",
"669 435 CURVE SMOOTH",
"739 435 OFFCURVE",
"787 383 OFFCURVE",
"788 312 CURVE",
"517 312 LINE"
);
}
);
width = 968;
}
);
leftKerningGroup = a;
leftMetricsKey = a;
rightKerningGroup = e;
rightMetricsKey = e;
unicode = 00E6;
},
{
glyphname = b;
layers = (
{
layerId = "56A87FB8-163D-4578-80C9-082B510993A7";
paths = (
{
closed = 1;
nodes = (
"79 742 LINE",
"79 0 LINE",
"233 0 LINE",
"233 742 LINE"
);
},
{
closed = 1;
nodes = (
"265 543 OFFCURVE",
"181 438 OFFCURVE",
"182 267 CURVE",
"181 99 OFFCURVE",
"266 -6 OFFCURVE",
"406 -6 CURVE SMOOTH",
"557 -6 OFFCURVE",
"655 103 OFFCURVE",
"655 266 CURVE SMOOTH",
"655 432 OFFCURVE",
"554 543 OFFCURVE",
"402 543 CURVE SMOOTH"
);
},
{
closed = 1;
nodes = (
"446 419 OFFCURVE",
"500 357 OFFCURVE",
"500 271 CURVE SMOOTH",
"500 183 OFFCURVE",
"446 122 OFFCURVE",
"366 122 CURVE SMOOTH",
"288 122 OFFCURVE",
"233 182 OFFCURVE",
"233 271 CURVE SMOOTH",
"233 358 OFFCURVE",
"288 419 OFFCURVE",
"366 419 CURVE SMOOTH"
);
}
);
width = 683;
}
);
leftKerningGroup = h;
rightKerningGroup = o;
unicode = 0062;
},
{
glyphname = c;
layers = (
{
anchors = (
{
name = bottom;
position = "{290, 0}";
},
{
name = top;
position = "{291, 537}";
}
);
layerId = "56A87FB8-163D-4578-80C9-082B510993A7";
paths = (
{
closed = 1;
nodes = (
"140 543 OFFCURVE",
"28 432 OFFCURVE",
"28 267 CURVE SMOOTH",
"28 104 OFFCURVE",
"139 -6 OFFCURVE",
"302 -6 CURVE SMOOTH",
"412 -6 OFFCURVE",
"496 38 OFFCURVE",
"541 113 CURVE",
"435 185 LINE",
"408 143 OFFCURVE",
"365 122 OFFCURVE",
"310 122 CURVE SMOOTH",
"235 122 OFFCURVE",
"182 181 OFFCURVE",
"182 268 CURVE SMOOTH",
"182 354 OFFCURVE",
"235 412 OFFCURVE",
"310 412 CURVE SMOOTH",
"363 413 OFFCURVE",
"404 391 OFFCURVE",
"434 355 CURVE",
"537 430 LINE",
"489 502 OFFCURVE",
"407 543 OFFCURVE",
"304 543 CURVE SMOOTH"
);
}
);
width = 563;
}
);
leftKerningGroup = o;
rightKerningGroup = c;
unicode = 0063;
},
{
glyphname = d;
layers = (
{
anchors = (
{
name = center;
position = "{-14, 0}";
}
);
layerId = "56A87FB8-163D-4578-80C9-082B510993A7";
paths = (
{
closed = 0;
nodes = (
"427 264 LINE"
);
},
{
closed = 1;
nodes = (
"129 544 OFFCURVE",
"28 435 OFFCURVE",
"28 271 CURVE SMOOTH",
"28 105 OFFCURVE",
"129 -6 OFFCURVE",
"282 -6 CURVE SMOOTH",
"421 -6 OFFCURVE",
"503 100 OFFCURVE",
"503 270 CURVE",
"503 439 OFFCURVE",
"419 544 OFFCURVE",
"278 544 CURVE SMOOTH"
);
},
{
closed = 1;
nodes = (
"397 416 OFFCURVE",
"451 355 OFFCURVE",
"451 267 CURVE SMOOTH",
"451 179 OFFCURVE",
"397 118 OFFCURVE",
"317 118 CURVE SMOOTH",
"237 118 OFFCURVE",
"183 179 OFFCURVE",
"182 267 CURVE SMOOTH",
"183 354 OFFCURVE",
"237 416 OFFCURVE",
"317 416 CURVE SMOOTH"
);
},
{
closed = 1;
nodes = (
"452 742 LINE",
"452 0 LINE",
"606 0 LINE",
"606 742 LINE"
);
}
);
width = 685;
}
);
leftKerningGroup = o;
rightKerningGroup = l;
unicode = 0064;
},
{
glyphname = eth;
layers = (
{
layerId = "56A87FB8-163D-4578-80C9-082B510993A7";
paths = (
{
closed = 1;
nodes = (
"109 682 LINE",
"260 612 OFFCURVE",
"382 493 OFFCURVE",
"420 379 CURVE",
"388 419 OFFCURVE",
"323 445 OFFCURVE",
"254 445 CURVE SMOOTH",
"116 445 OFFCURVE",
"27 358 OFFCURVE",
"27 225 CURVE SMOOTH",
"27 84 OFFCURVE",
"128 -7 OFFCURVE",
"283 -7 CURVE SMOOTH",
"459 -7 OFFCURVE",
"572 105 OFFCURVE",
"572 279 CURVE SMOOTH",
"572 474 OFFCURVE",
"431 659 OFFCURVE",
"212 749 CURVE"
);
},
{
closed = 1;
nodes = (
"362 338 OFFCURVE",
"408 295 OFFCURVE",
"408 230 CURVE SMOOTH",
"408 167 OFFCURVE",
"362 125 OFFCURVE",
"290 125 CURVE SMOOTH",
"220 125 OFFCURVE",
"174 168 OFFCURVE",
"174 234 CURVE SMOOTH",
"174 297 OFFCURVE",
"219 338 OFFCURVE",
"290 338 CURVE SMOOTH"
);
},
{
closed = 1;
nodes = (
"120 570 LINE",
"144 496 LINE",
"535 628 LINE",
"511 703 LINE"
);
}
);
width = 599;
}
);
leftKerningGroup = o;
rightKerningGroup = O;
rightMetricsKey = O;
unicode = 00F0;
},
{
glyphname = dcroat;
layers = (
{
components = (
{
name = d;
}
);
layerId = "56A87FB8-163D-4578-80C9-082B510993A7";
paths = (
{
closed = 1;
nodes = (
"362 684 LINE",
"362 600 LINE",
"672 600 LINE",
"672 684 LINE"
);
}
);
width = 688;
}
);
leftKerningGroup = o;
rightKerningGroup = l;
unicode = 0111;
},
{
glyphname = e;
layers = (
{
anchors = (
{
name = bottom;
position = "{303, 0}";
},
{
name = ogonek;
position = "{537.005, 10}";
},
{
name = top;
position = "{300, 537}";
}
);
layerId = "56A87FB8-163D-4578-80C9-082B510993A7";
paths = (
{
closed = 1;
nodes = (
"155 222 LINE",
"569 222 LINE",
"582 418 OFFCURVE",
"494 543 OFFCURVE",
"305 543 CURVE SMOOTH",
"141 543 OFFCURVE",
"28 433 OFFCURVE",
"28 267 CURVE SMOOTH",
"28 104 OFFCURVE",
"137 -6 OFFCURVE",
"309 -6 CURVE SMOOTH",
"406 -6 OFFCURVE",
"485 29 OFFCURVE",
"539 89 CURVE",
"458 171 LINE",
"421 134 OFFCURVE",
"373 114 OFFCURVE",
"322 114 CURVE SMOOTH",
"236 114 OFFCURVE",
"177 175 OFFCURVE",
"177 276 CURVE SMOOTH",
"177 367 OFFCURVE",
"227 430 OFFCURVE",
"306 430 CURVE SMOOTH",
"377 430 OFFCURVE",
"423 384 OFFCURVE",
"425 313 CURVE",
"155 313 LINE"
);
}
);
width = 597;
}
);
leftKerningGroup = o;
rightKerningGroup = o;
unicode = 0065;
},
{
glyphname = eogonek;
layers = (
{
layerId = "56A87FB8-163D-4578-80C9-082B510993A7";
paths = (
{
closed = 1;
nodes = (
"130 540 OFFCURVE",
"28 427 OFFCURVE",
"28 269 CURVE SMOOTH",
"28 104 OFFCURVE",
"138 -6 OFFCURVE",
"306 -6 CURVE SMOOTH",
"344 -6 OFFCURVE",
"377 2 OFFCURVE",
"410 20 CURVE",
"374 -29 OFFCURVE",
"353 -77 OFFCURVE",
"353 -120 CURVE SMOOTH",
"353 -181 OFFCURVE",
"398 -202 OFFCURVE",
"438 -202 CURVE SMOOTH",
"480 -202 OFFCURVE",
"516 -178 OFFCURVE",
"540 -138 CURVE",
"500 -90 LINE",
"487 -108 OFFCURVE",
"473 -121 OFFCURVE",
"456 -121 CURVE SMOOTH",
"441 -121 OFFCURVE",
"432 -113 OFFCURVE",
"432 -94 CURVE SMOOTH",
"432 -49 OFFCURVE",
"488 30 OFFCURVE",
"539 88 CURVE",
"458 172 LINE",
"421 134 OFFCURVE",
"372 114 OFFCURVE",
"322 114 CURVE SMOOTH",
"249 114 OFFCURVE",
"200 156 OFFCURVE",
"183 222 CURVE",
"570 222 LINE",
"582 421 OFFCURVE",
"487 546 OFFCURVE",
"305 543 CURVE SMOOTH"
);
},
{
closed = 1;
nodes = (
"376 430 OFFCURVE",
"423 382 OFFCURVE",
"425 313 CURVE",
"180 313 LINE",
"188 382 OFFCURVE",
"238 430 OFFCURVE",
"307 430 CURVE SMOOTH"
);
}
);
width = 597;
}
);
leftKerningGroup = o;
rightKerningGroup = e;
unicode = 0119;
},
{
glyphname = f;
layers = (
{
layerId = "56A87FB8-163D-4578-80C9-082B510993A7";
paths = (
{
closed = 1;
nodes = (
"193 749 OFFCURVE",
"103 685 OFFCURVE",
"103 565 CURVE SMOOTH",
"103 0 LINE",
"256 0 LINE",
"256 559 LINE",
"256 602 OFFCURVE",
"284 622 OFFCURVE",
"321 622 CURVE",
"342 622 OFFCURVE",
"367 614 OFFCURVE",
"387 599 CURVE",
"442 711 LINE",
"404 736 OFFCURVE",
"351 749 OFFCURVE",
"302 749 CURVE"
);
},
{
closed = 1;
nodes = (
"31 514 LINE",
"31 407 LINE",
"383 407 LINE",
"383 514 LINE"
);
}
);
width = 372;
}
);
leftKerningGroup = f;
rightKerningGroup = f;
unicode = 0066;
},
{
glyphname = g;
layers = (
{
anchors = (
{
name = top;
position = "{322, 538}";
}
);
layerId = "56A87FB8-163D-4578-80C9-082B510993A7";
paths = (
{
closed = 1;
nodes = (
"425 538 LINE",
"425 45 LINE SMOOTH",
"425 -28 OFFCURVE",
"369 -75 OFFCURVE",
"281 -75 CURVE SMOOTH",
"220 -75 OFFCURVE",
"163 -56 OFFCURVE",
"114 -21 CURVE",
"57 -129 LINE",
"119 -171 OFFCURVE",
"200 -200 OFFCURVE",
"291 -200 CURVE SMOOTH",
"463 -200 OFFCURVE",
"578 -103 OFFCURVE",
"578 50 CURVE SMOOTH",
"578 538 LINE"
);
},
{
closed = 1;
nodes = (
"122 543 OFFCURVE",
"28 440 OFFCURVE",
"28 288 CURVE SMOOTH",
"28 132 OFFCURVE",
"124 28 OFFCURVE",
"263 28 CURVE SMOOTH",
"397 28 OFFCURVE",
"474 127 OFFCURVE",
"473 287 CURVE",
"474 445 OFFCURVE",
"395 544 OFFCURVE",
"259 543 CURVE SMOOTH"
);
},
{
closed = 1;
nodes = (
"374 424 OFFCURVE",
"425 367 OFFCURVE",
"425 284 CURVE SMOOTH",
"425 202 OFFCURVE",
"374 145 OFFCURVE",
"299 145 CURVE SMOOTH",
"223 145 OFFCURVE",
"173 202 OFFCURVE",
"172 284 CURVE SMOOTH",
"173 366 OFFCURVE",
"224 424 OFFCURVE",
"299 424 CURVE SMOOTH"
);
}
);
width = 645;
}
);
leftKerningGroup = o;
rightKerningGroup = j;
unicode = 0067;
},
{
glyphname = h;
layers = (
{
anchors = (
{
name = bottom;
position = "{641, 0}";
},
{
name = center;
position = "{336, 269}";
},
{
name = top;
position = "{153, 742}";
},
{
name = topright;
position = "{280, 539}";
}
);
layerId = "56A87FB8-163D-4578-80C9-082B510993A7";
paths = (
{
closed = 1;
nodes = (
"617 0 LINE",
"617 338 LINE SMOOTH",
"617 464 OFFCURVE",
"540 544 OFFCURVE",
"419 544 CURVE SMOOTH",
"281 543 OFFCURVE",
"195 453 OFFCURVE",
"195 265 CURVE",
"233 265 LINE",
"233 344 OFFCURVE",
"280 402 OFFCURVE",
"357 403 CURVE SMOOTH",
"423 403 OFFCURVE",
"463 361 OFFCURVE",
"463 293 CURVE SMOOTH",
"463 0 LINE"
);
},
{
closed = 1;
nodes = (
"233 0 LINE",
"233 742 LINE",
"79 742 LINE",
"79 0 LINE"
);
}
);
width = 675;
}
);
leftKerningGroup = h;
rightKerningGroup = n;
unicode = 0068;
},
{
glyphname = hbar;
layers = (
{
components = (
{
name = h;
}
);
layerId = "56A87FB8-163D-4578-80C9-082B510993A7";
paths = (
{
closed = 1;
nodes = (
"-1 667 LINE",
"-1 580 LINE",
"359 580 LINE",
"359 667 LINE"
);
}
);
width = 766;
}
);
leftKerningGroup = h;
rightKerningGroup = n;
unicode = 0127;
},
{
glyphname = i;
layers = (
{
anchors = (
{
name = _top;
position = "{151, 538}";
},
{
name = ogonek;
position = "{264, 10}";
},
{
name = top;
position = "{151, 538}";
}
);
layerId = "56A87FB8-163D-4578-80C9-082B510993A7";
paths = (
{
closed = 1;
nodes = (
"74 538 LINE",
"74 0 LINE",
"227 0 LINE",
"227 538 LINE"
);
},
{
closed = 1;
nodes = (
"103 778 OFFCURVE",
"68 742 OFFCURVE",
"68 692 CURVE SMOOTH",
"68 642 OFFCURVE",
"103 606 OFFCURVE",
"151 606 CURVE SMOOTH",
"200 606 OFFCURVE",
"235 642 OFFCURVE",
"235 692 CURVE SMOOTH",
"235 742 OFFCURVE",
"200 778 OFFCURVE",
"151 778 CURVE SMOOTH"
);
}
);
width = 302;
}
);
leftKerningGroup = dotlessi;
rightKerningGroup = dotlessi;
unicode = 0069;
},
{
glyphname = idotless;
layers = (
{
anchors = (
{
name = ogonek;
position = "{264, 10}";
},
{
name = top;
position = "{151, 538}";
}
);
layerId = "56A87FB8-163D-4578-80C9-082B510993A7";
paths = (
{
closed = 1;
nodes = (
"74 538 LINE",
"74 0 LINE",
"227 0 LINE",
"227 538 LINE"
);
}
);
width = 302;
}
);
leftKerningGroup = i;
rightKerningGroup = i;
unicode = 0131;
},
{
glyphname = iogonek;
layers = (
{
layerId = "56A87FB8-163D-4578-80C9-082B510993A7";
paths = (
{
closed = 1;
nodes = (
"66 538 LINE",
"66 0 LINE",
"109 0 LINE",
"79 -43 OFFCURVE",
"60 -82 OFFCURVE",
"60 -121 CURVE SMOOTH",
"60 -181 OFFCURVE",
"105 -202 OFFCURVE",
"145 -202 CURVE SMOOTH",
"186 -202 OFFCURVE",
"224 -180 OFFCURVE",
"249 -138 CURVE",
"208 -90 LINE",
"194 -109 OFFCURVE",
"180 -121 OFFCURVE",
"163 -121 CURVE SMOOTH",
"149 -121 OFFCURVE",
"139 -112 OFFCURVE",
"139 -96 CURVE SMOOTH",
"139 -75 OFFCURVE",
"154 -42 OFFCURVE",
"184 0 CURVE",
"219 0 LINE",
"219 538 LINE"
);
},
{
closed = 1;
nodes = (
"94 777 OFFCURVE",
"59 742 OFFCURVE",
"59 691 CURVE SMOOTH",
"59 641 OFFCURVE",
"94 605 OFFCURVE",
"143 605 CURVE SMOOTH",
"191 605 OFFCURVE",
"226 641 OFFCURVE",
"226 691 CURVE SMOOTH",
"226 742 OFFCURVE",
"191 777 OFFCURVE",
"143 777 CURVE SMOOTH"
);
}
);
width = 283;
}
);
leftKerningGroup = i;
rightKerningGroup = i;
unicode = 012F;
},
{
glyphname = j;
layers = (
{
layerId = "56A87FB8-163D-4578-80C9-082B510993A7";
paths = (
{
closed = 1;
nodes = (
"75 538 LINE",
"75 -10 LINE",
"75 -54 OFFCURVE",
"51 -73 OFFCURVE",
"19 -73 CURVE",
"-2 -73 OFFCURVE",
"-24 -65 OFFCURVE",
"-45 -52 CURVE",
"-87 -165 LINE",
"-52 -188 OFFCURVE",
"-7 -201 OFFCURVE",
"40 -201 CURVE",
"142 -201 OFFCURVE",
"228 -138 OFFCURVE",
"228 -16 CURVE",
"228 538 LINE"
);
},
{
closed = 1;
nodes = (
"100 777 OFFCURVE",
"63 742 OFFCURVE",
"63 691 CURVE SMOOTH",
"63 641 OFFCURVE",
"100 605 OFFCURVE",
"152 605 CURVE SMOOTH",
"205 605 OFFCURVE",
"241 641 OFFCURVE",
"241 691 CURVE SMOOTH",
"241 742 OFFCURVE",
"205 777 OFFCURVE",
"152 777 CURVE SMOOTH"
);
}
);
width = 308;
}
);
leftKerningGroup = j;
rightKerningGroup = j;
unicode = 006A;
},
{
glyphname = jdotless;
layers = (
{
anchors = (
{
name = top;
position = "{147, 538}";
}
);
layerId = "56A87FB8-163D-4578-80C9-082B510993A7";
paths = (
{
closed = 1;
nodes = (
"75 538 LINE",
"75 2 LINE",
"75 -49 OFFCURVE",
"53 -76 OFFCURVE",
"13 -75 CURVE",
"-10 -74 OFFCURVE",
"-33 -68 OFFCURVE",
"-54 -55 CURVE",
"-91 -165 LINE",
"-52 -187 OFFCURVE",
"-5 -199 OFFCURVE",
"47 -200 CURVE",
"160 -201 OFFCURVE",
"229 -134 OFFCURVE",
"229 -21 CURVE",
"229 538 LINE"
);
}
);
width = 296;
}
);
leftKerningGroup = j;
rightKerningGroup = j;
rightMetricsKey = i;
unicode = 0237;
},
{
glyphname = k;
layers = (
{
anchors = (
{
name = bottom;
position = "{130, 0}";
},
{
name = top;
position = "{157, 742}";
},
{
name = topright;
position = "{283, 538}";
}
);
layerId = "56A87FB8-163D-4578-80C9-082B510993A7";
paths = (
{
closed = 0;
nodes = (
"230 111 LINE"
);
},
{
closed = 1;
nodes = (
"79 742 LINE",
"79 0 LINE",
"233 0 LINE",
"233 742 LINE"
);
},
{
closed = 1;
nodes = (
"430 537 LINE",
"224 325 LINE",
"224 137 LINE",
"606 537 LINE"
);
},
{
closed = 1;
nodes = (
"282 253 LINE",
"432 0 LINE",
"614 0 LINE",
"396 349 LINE"
);
}
);
width = 619;
}
);
leftKerningGroup = h;
rightKerningGroup = x;
unicode = 006B;
},
{
glyphname = kgreenlandic;
layers = (
{
anchors = (
{
name = bottom;
position = "{304, 0}";
},
{
name = ogonek;
position = "{264, 10}";
},
{
name = top;
position = "{151, 538}";
}
);
layerId = "56A87FB8-163D-4578-80C9-082B510993A7";
paths = (
{
closed = 0;
nodes = (
"230 111 LINE"
);
},
{
closed = 1;
nodes = (
"74 538 LINE",
"74 0 LINE",
"227 0 LINE",
"227 538 LINE"
);
},
{
closed = 1;
nodes = (
"424 538 LINE",
"218 326 LINE",
"218 138 LINE",
"599 538 LINE"
);
},
{
closed = 1;
nodes = (
"276 253 LINE",
"426 0 LINE",
"608 0 LINE",
"390 349 LINE"
);
}
);
width = 613;
}
);
leftKerningGroup = h;
leftMetricsKey = n;
rightKerningGroup = k;
rightMetricsKey = k;
unicode = 0138;
},
{
glyphname = l;
layers = (
{
anchors = (
{
name = bottom;
position = "{157, 0}";
},
{
name = top;
position = "{157, 742}";
},
{
name = topright;
position = "{283, 538}";
}
);
layerId = "56A87FB8-163D-4578-80C9-082B510993A7";
paths = (
{
closed = 1;
nodes = (
"79 742 LINE",
"79 0 LINE",
"233 0 LINE",
"233 742 LINE"
);
}
);
width = 313;
}
);
leftKerningGroup = h;
rightKerningGroup = l;
unicode = 006C;
},
{
glyphname = ldot;
layers = (
{
components = (
{
name = l;
}
);
layerId = "56A87FB8-163D-4578-80C9-082B510993A7";
paths = (
{
closed = 1;
nodes = (
"292 390 OFFCURVE",
"260 357 OFFCURVE",
"260 311 CURVE SMOOTH",
"260 266 OFFCURVE",
"292 233 OFFCURVE",
"336 233 CURVE SMOOTH",
"380 233 OFFCURVE",
"412 266 OFFCURVE",
"412 311 CURVE SMOOTH",
"412 357 OFFCURVE",
"380 390 OFFCURVE",
"336 390 CURVE SMOOTH"
);
}
);
width = 375;
}
);
leftKerningGroup = h;
leftMetricsKey = l;
rightKerningGroup = l;
unicode = 0140;
},
{
glyphname = lslash;
layers = (
{
components = (
{
name = l;
transform = "{1, 0, 0, 1, 34, 0}";
}
);
layerId = "56A87FB8-163D-4578-80C9-082B510993A7";
paths = (
{
closed = 1;
nodes = (
"-14 429 LINE",
"12 332 LINE",
"381 439 LINE",
"355 538 LINE"
);
}
);
width = 363;
}
);
leftKerningGroup = lslash;
rightKerningGroup = lslash;
unicode = 0142;
},
{
glyphname = m;
layers = (
{
layerId = "56A87FB8-163D-4578-80C9-082B510993A7";
paths = (
{
closed = 1;
nodes = (
"74 538 LINE",
"74 0 LINE",
"227 0 LINE",
"227 538 LINE"
);
},
{
closed = 1;
nodes = (
"274 543 OFFCURVE",
"189 453 OFFCURVE",
"189 266 CURVE",
"227 266 LINE",
"227 344 OFFCURVE",
"273 402 OFFCURVE",
"348 403 CURVE SMOOTH",
"411 403 OFFCURVE",
"450 362 OFFCURVE",
"450 293 CURVE SMOOTH",
"450 0 LINE",
"604 0 LINE",
"604 338 LINE SMOOTH",
"604 464 OFFCURVE",
"529 544 OFFCURVE",
"410 544 CURVE SMOOTH"
);
},
{
closed = 1;
nodes = (
"650 543 OFFCURVE",
"565 453 OFFCURVE",
"565 266 CURVE",
"604 266 LINE",
"604 344 OFFCURVE",
"649 402 OFFCURVE",
"723 403 CURVE SMOOTH",
"786 403 OFFCURVE",
"826 362 OFFCURVE",
"826 293 CURVE SMOOTH",
"826 0 LINE",
"980 0 LINE",
"980 338 LINE SMOOTH",
"980 464 OFFCURVE",
"905 544 OFFCURVE",
"786 544 CURVE SMOOTH"
);
}
);
width = 1039;
}
);
leftKerningGroup = n;
rightKerningGroup = n;
unicode = 006D;
},
{
glyphname = n;
layers = (
{
anchors = (
{
name = bottom;
position = "{340, 0}";
},
{
name = top;
position = "{351, 538}";
}
);
layerId = "56A87FB8-163D-4578-80C9-082B510993A7";
paths = (
{
closed = 1;
nodes = (
"74 538 LINE",
"74 0 LINE",
"228 0 LINE",
"228 538 LINE"
);
},
{
closed = 1;
nodes = (
"275 543 OFFCURVE",
"189 453 OFFCURVE",
"189 265 CURVE",
"227 265 LINE",
"227 344 OFFCURVE",
"274 402 OFFCURVE",
"351 403 CURVE SMOOTH",
"417 403 OFFCURVE",
"457 361 OFFCURVE",
"457 293 CURVE SMOOTH",
"457 0 LINE",
"611 0 LINE",
"611 338 LINE SMOOTH",
"611 464 OFFCURVE",
"534 544 OFFCURVE",
"413 544 CURVE SMOOTH"
);
}
);
width = 670;
}
);
leftKerningGroup = n;
rightKerningGroup = n;
unicode = 006E;
},
{
glyphname = eng;
layers = (
{
anchors = (
{
name = bottom;
position = "{340, 0}";
},
{
name = top;
position = "{351, 538}";
}
);
layerId = "56A87FB8-163D-4578-80C9-082B510993A7";
paths = (
{
closed = 1;
nodes = (
"275 543 OFFCURVE",
"189 453 OFFCURVE",
"189 265 CURVE",
"227 265 LINE",
"227 344 OFFCURVE",
"274 402 OFFCURVE",
"351 403 CURVE SMOOTH",
"417 403 OFFCURVE",
"457 361 OFFCURVE",
"457 293 CURVE SMOOTH",
"457 -10 LINE SMOOTH",
"457 -54 OFFCURVE",
"433 -73 OFFCURVE",
"401 -73 CURVE",
"380 -73 OFFCURVE",
"358 -65 OFFCURVE",
"337 -52 CURVE",
"295 -165 LINE",
"330 -188 OFFCURVE",
"375 -201 OFFCURVE",
"422 -201 CURVE SMOOTH",
"524 -201 OFFCURVE",
"611 -138 OFFCURVE",
"611 -18 CURVE SMOOTH",
"611 338 LINE SMOOTH",
"611 464 OFFCURVE",
"534 544 OFFCURVE",
"413 544 CURVE SMOOTH"
);
},
{
closed = 1;
nodes = (
"74 538 LINE",
"74 0 LINE",
"228 0 LINE",
"228 538 LINE"
);
}
);
width = 670;
}
);
leftKerningGroup = i;
rightKerningGroup = i;
unicode = 014B;
},
{
glyphname = o;
layers = (
{
anchors = (
{
name = top;
position = "{317, 537}";
}
);
layerId = "56A87FB8-163D-4578-80C9-082B510993A7";
paths = (
{
closed = 1;
nodes = (
"144 543 OFFCURVE",
"28 434 OFFCURVE",
"28 269 CURVE SMOOTH",
"28 105 OFFCURVE",
"144 -6 OFFCURVE",
"317 -6 CURVE SMOOTH",
"489 -6 OFFCURVE",
"606 105 OFFCURVE",
"606 269 CURVE SMOOTH",
"606 434 OFFCURVE",
"489 543 OFFCURVE",
"317 543 CURVE SMOOTH"
);
},
{
closed = 1;
nodes = (
"396 415 OFFCURVE",
"451 355 OFFCURVE",
"451 267 CURVE SMOOTH",
"451 179 OFFCURVE",
"396 119 OFFCURVE",
"317 119 CURVE SMOOTH",
"238 119 OFFCURVE",
"183 179 OFFCURVE",
"183 267 CURVE SMOOTH",
"183 355 OFFCURVE",
"238 415 OFFCURVE",
"317 415 CURVE SMOOTH"
);
}
);
width = 633;
}
);
leftKerningGroup = o;
rightKerningGroup = o;
unicode = 006F;
},
{
glyphname = oslash;
layers = (
{
anchors = (
{
name = top;
position = "{317, 537}";
}
);
layerId = "56A87FB8-163D-4578-80C9-082B510993A7";
paths = (
{
closed = 1;
nodes = (
"415 669 LINE",
"151 -143 LINE",
"216 -143 LINE",
"479 669 LINE"
);
},
{
closed = 1;
nodes = (
"144 543 OFFCURVE",
"28 434 OFFCURVE",
"28 269 CURVE SMOOTH",
"28 105 OFFCURVE",
"144 -6 OFFCURVE",
"317 -6 CURVE SMOOTH",
"489 -6 OFFCURVE",
"606 105 OFFCURVE",
"606 269 CURVE SMOOTH",
"606 434 OFFCURVE",
"489 543 OFFCURVE",
"317 543 CURVE SMOOTH"
);
},
{
closed = 1;
nodes = (
"402 428 OFFCURVE",
"460 364 OFFCURVE",
"460 267 CURVE SMOOTH",
"460 171 OFFCURVE",
"402 106 OFFCURVE",
"317 106 CURVE SMOOTH",
"232 106 OFFCURVE",
"173 171 OFFCURVE",
"173 267 CURVE SMOOTH",
"173 364 OFFCURVE",
"232 428 OFFCURVE",
"317 428 CURVE SMOOTH"
);
}
);
width = 633;
}
);
leftKerningGroup = o;
leftMetricsKey = o;
rightKerningGroup = o;
rightMetricsKey = o;
unicode = 00F8;
},
{
glyphname = oe;
layers = (
{
anchors = (
{
name = top;
position = "{517, 537}";
}
);
layerId = "56A87FB8-163D-4578-80C9-082B510993A7";
paths = (
{
closed = 0;
nodes = (
"343 227 LINE"
);
},
{
closed = 1;
nodes = (
"144 543 OFFCURVE",
"28 434 OFFCURVE",
"28 269 CURVE SMOOTH",
"28 105 OFFCURVE",
"144 -6 OFFCURVE",
"317 -6 CURVE SMOOTH",
"478 -6 OFFCURVE",
"573 105 OFFCURVE",
"573 269 CURVE SMOOTH",
"573 434 OFFCURVE",
"478 543 OFFCURVE",
"317 543 CURVE SMOOTH"
);
},
{
closed = 1;
nodes = (
"396 415 OFFCURVE",
"451 355 OFFCURVE",
"451 267 CURVE SMOOTH",
"451 179 OFFCURVE",
"396 119 OFFCURVE",
"317 119 CURVE SMOOTH",
"238 119 OFFCURVE",
"183 179 OFFCURVE",
"183 267 CURVE SMOOTH",
"183 355 OFFCURVE",
"238 415 OFFCURVE",
"317 415 CURVE SMOOTH"
);
},
{
closed = 1;
nodes = (
"572 234 LINE",
"998 234 LINE",
"1006 420 OFFCURVE",
"899 543 OFFCURVE",
"723 543 CURVE SMOOTH",
"570 543 OFFCURVE",
"477 433 OFFCURVE",
"477 267 CURVE SMOOTH",
"477 104 OFFCURVE",
"566 -6 OFFCURVE",
"727 -6 CURVE SMOOTH",
"825 -6 OFFCURVE",
"904 29 OFFCURVE",
"959 89 CURVE",
"878 171 LINE",
"840 134 OFFCURVE",
"792 114 OFFCURVE",
"740 114 CURVE SMOOTH",
"653 114 OFFCURVE",
"593 175 OFFCURVE",
"593 276 CURVE SMOOTH",
"593 367 OFFCURVE",
"645 434 OFFCURVE",
"725 434 CURVE SMOOTH",
"795 434 OFFCURVE",
"844 383 OFFCURVE",
"845 312 CURVE",
"572 312 LINE"
);
}
);
width = 1025;
}
);
leftKerningGroup = o;
leftMetricsKey = o;
rightKerningGroup = e;
rightMetricsKey = e;
unicode = 0153;
},
{
glyphname = p;
layers = (
{
layerId = "56A87FB8-163D-4578-80C9-082B510993A7";
paths = (
{
closed = 1;
nodes = (
"79 538 LINE",
"79 -194 LINE",
"233 -194 LINE",
"233 538 LINE"
);
},
{
closed = 0;
nodes = (
"290 25 LINE"
);
},
{
closed = 1;
nodes = (
"265 543 OFFCURVE",
"181 438 OFFCURVE",
"182 267 CURVE",
"181 99 OFFCURVE",
"266 -6 OFFCURVE",
"406 -6 CURVE SMOOTH",
"557 -6 OFFCURVE",
"655 103 OFFCURVE",
"655 266 CURVE SMOOTH",
"655 432 OFFCURVE",
"554 543 OFFCURVE",
"402 543 CURVE SMOOTH"
);
},
{
closed = 1;
nodes = (
"446 419 OFFCURVE",
"500 357 OFFCURVE",
"500 271 CURVE SMOOTH",
"500 183 OFFCURVE",
"446 122 OFFCURVE",
"366 122 CURVE SMOOTH",
"288 122 OFFCURVE",
"233 182 OFFCURVE",
"233 271 CURVE SMOOTH",
"233 358 OFFCURVE",
"288 419 OFFCURVE",
"366 419 CURVE SMOOTH"
);
}
);
width = 684;
}
);
leftKerningGroup = p;
rightKerningGroup = o;
unicode = 0070;
},
{
glyphname = thorn;
layers = (
{
anchors = (
{
name = bottom;
position = "{157, 0}";
},
{
name = top;
position = "{157, 742}";
},
{
name = topright;
position = "{283, 538}";
}
);
layerId = "56A87FB8-163D-4578-80C9-082B510993A7";
paths = (
{
closed = 0;
nodes = (
"334 296 LINE"
);
},
{
closed = 1;
nodes = (
"79 538 LINE",
"79 -194 LINE",
"233 -194 LINE",
"233 538 LINE"
);
},
{
closed = 0;
nodes = (
"290 25 LINE"
);
},
{
closed = 1;
nodes = (
"265 543 OFFCURVE",
"181 438 OFFCURVE",
"182 267 CURVE",
"181 99 OFFCURVE",
"266 -6 OFFCURVE",
"406 -6 CURVE SMOOTH",
"557 -6 OFFCURVE",
"655 103 OFFCURVE",
"655 266 CURVE SMOOTH",
"655 432 OFFCURVE",
"554 543 OFFCURVE",
"402 543 CURVE SMOOTH"
);
},
{
closed = 1;
nodes = (
"446 419 OFFCURVE",
"500 357 OFFCURVE",
"500 271 CURVE SMOOTH",
"500 183 OFFCURVE",
"446 122 OFFCURVE",
"366 122 CURVE SMOOTH",
"288 122 OFFCURVE",
"233 182 OFFCURVE",
"233 271 CURVE SMOOTH",
"233 358 OFFCURVE",
"288 419 OFFCURVE",
"366 419 CURVE SMOOTH"
);
},
{
closed = 1;
nodes = (
"79 742 LINE",
"79 0 LINE",
"233 0 LINE",
"233 742 LINE"
);
}
);
width = 682;
}
);
leftKerningGroup = h;
leftMetricsKey = l;
rightKerningGroup = o;
rightMetricsKey = o;
unicode = 00FE;
},
{
glyphname = q;
layers = (
{
layerId = "56A87FB8-163D-4578-80C9-082B510993A7";
paths = (
{
closed = 1;
nodes = (
"452 538 LINE",
"452 -194 LINE",
"606 -194 LINE",
"606 538 LINE"
);
},
{
closed = 0;
nodes = (
"438 193 LINE"
);
},
{
closed = 1;
nodes = (
"129 544 OFFCURVE",
"28 435 OFFCURVE",
"28 271 CURVE SMOOTH",
"28 105 OFFCURVE",
"129 -6 OFFCURVE",
"282 -6 CURVE SMOOTH",
"421 -6 OFFCURVE",
"503 100 OFFCURVE",
"503 270 CURVE",
"503 439 OFFCURVE",
"419 544 OFFCURVE",
"278 544 CURVE SMOOTH"
);
},
{
closed = 1;
nodes = (
"397 416 OFFCURVE",
"451 355 OFFCURVE",
"451 267 CURVE SMOOTH",
"451 179 OFFCURVE",
"397 118 OFFCURVE",
"317 118 CURVE SMOOTH",
"237 118 OFFCURVE",
"183 179 OFFCURVE",
"182 267 CURVE SMOOTH",
"183 354 OFFCURVE",
"237 416 OFFCURVE",
"317 416 CURVE SMOOTH"
);
}
);
width = 685;
}
);
leftKerningGroup = o;
rightKerningGroup = q;
unicode = 0071;
},
{
glyphname = r;
layers = (
{
anchors = (
{
name = bottom;
position = "{147, 0}";
},
{
name = top;
position = "{218, 538}";
}
);
layerId = "56A87FB8-163D-4578-80C9-082B510993A7";
paths = (
{
closed = 1;
nodes = (
"74 538 LINE",
"74 0 LINE",
"228 0 LINE",
"228 538 LINE"
);
},
{
closed = 1;
nodes = (
"272 543 OFFCURVE",
"189 441 OFFCURVE",
"189 265 CURVE",
"227 259 LINE",
"227 350 OFFCURVE",
"296 409 OFFCURVE",
"406 399 CURVE",
"406 544 LINE"
);
}
);
width = 416;
}
);
leftKerningGroup = n;
rightKerningGroup = r;
unicode = 0072;
},
{
glyphname = s;
layers = (
{
anchors = (
{
name = bottom;
position = "{248, 0}";
},
{
name = top;
position = "{258, 538}";
}
);
layerId = "56A87FB8-163D-4578-80C9-082B510993A7";
paths = (
{
closed = 1;
nodes = (
"139 545 OFFCURVE",
"45 488 OFFCURVE",
"45 377 CURVE SMOOTH",
"44 188 OFFCURVE",
"323 234 OFFCURVE",
"323 148 CURVE SMOOTH",
"323 119 OFFCURVE",
"294 106 OFFCURVE",
"255 106 CURVE SMOOTH",
"196 106 OFFCURVE",
"124 130 OFFCURVE",
"69 173 CURVE",
"18 69 LINE",
"79 20 OFFCURVE",
"165 -6 OFFCURVE",
"251 -6 CURVE SMOOTH",
"373 -6 OFFCURVE",
"470 52 OFFCURVE",
"470 162 CURVE SMOOTH",
"471 352 OFFCURVE",
"187 311 OFFCURVE",
"187 392 CURVE SMOOTH",
"187 420 OFFCURVE",
"213 432 OFFCURVE",
"249 432 CURVE SMOOTH",
"294 432 OFFCURVE",
"354 413 OFFCURVE",
"413 380 CURVE",
"466 485 LINE",
"406 523 OFFCURVE",
"331 545 OFFCURVE",
"257 545 CURVE SMOOTH"
);
}
);
width = 499;
}
);
leftKerningGroup = s;
rightKerningGroup = s;
unicode = 0073;
},
{
glyphname = germandbls;
layers = (
{
layerId = "56A87FB8-163D-4578-80C9-082B510993A7";
paths = (
{
closed = 1;
nodes = (
"166 749 OFFCURVE",
"64 648 OFFCURVE",
"64 491 CURVE SMOOTH",
"64 0 LINE",
"217 0 LINE",
"217 502 LINE SMOOTH",
"217 582 OFFCURVE",
"258 629 OFFCURVE",
"330 629 CURVE SMOOTH",
"392 629 OFFCURVE",
"431 592 OFFCURVE",
"431 528 CURVE SMOOTH",
"431 462 OFFCURVE",
"387 423 OFFCURVE",
"313 423 CURVE",
"313 310 LINE",
"329 310 LINE SMOOTH",
"418 310 OFFCURVE",
"472 276 OFFCURVE",
"472 213 CURVE SMOOTH",
"472 153 OFFCURVE",
"425 114 OFFCURVE",
"345 114 CURVE SMOOTH",
"298 114 LINE",
"298 0 LINE",
"348 0 LINE SMOOTH",
"514 0 OFFCURVE",
"621 87 OFFCURVE",
"621 213 CURVE SMOOTH",
"621 301 OFFCURVE",
"561 361 OFFCURVE",
"477 383 CURVE",
"539 413 OFFCURVE",
"579 479 OFFCURVE",
"579 551 CURVE SMOOTH",
"579 671 OFFCURVE",
"479 749 OFFCURVE",
"330 749 CURVE SMOOTH"
);
}
);
width = 659;
}
);
leftKerningGroup = f;
leftMetricsKey = U;
rightKerningGroup = B;
rightMetricsKey = B;
unicode = 00DF;
},
{
glyphname = t;
layers = (
{
anchors = (
{
name = bottom;
position = "{254, 0}";
},
{
name = center;
position = "{213, 269}";
}
);
layerId = "56A87FB8-163D-4578-80C9-082B510993A7";
paths = (
{
closed = 1;
nodes = (
"98 662 LINE",
"98 159 LINE",
"98 48 OFFCURVE",
"171 -7 OFFCURVE",
"267 -7 CURVE",
"317 -7 OFFCURVE",
"367 7 OFFCURVE",
"407 30 CURVE",
"375 143 LINE",
"347 130 OFFCURVE",
"323 123 OFFCURVE",
"303 123 CURVE",
"270 122 OFFCURVE",
"251 140 OFFCURVE",
"251 185 CURVE",
"251 662 LINE"
);
},
{
closed = 1;
nodes = (
"23 514 LINE",
"23 408 LINE",
"398 407 LINE",
"398 514 LINE"
);
}
);
width = 426;
}
);
leftKerningGroup = u;
rightKerningGroup = t;
unicode = 0074;
},
{
glyphname = tbar;
layers = (
{
anchors = (
{
name = bottom;
position = "{254, 0}";
},
{
name = center;
position = "{213, 269}";
}
);
layerId = "56A87FB8-163D-4578-80C9-082B510993A7";
paths = (
{
closed = 1;
nodes = (
"98 662 LINE",
"98 159 LINE",
"98 48 OFFCURVE",
"171 -7 OFFCURVE",
"267 -7 CURVE",
"317 -7 OFFCURVE",
"367 7 OFFCURVE",
"407 30 CURVE",
"375 143 LINE",
"347 130 OFFCURVE",
"323 123 OFFCURVE",
"303 123 CURVE",
"270 122 OFFCURVE",
"251 140 OFFCURVE",
"251 185 CURVE",
"251 662 LINE"
);
},
{
closed = 1;
nodes = (
"23 514 LINE",
"23 418 LINE",
"398 418 LINE",
"398 514 LINE"
);
},
{
closed = 1;
nodes = (
"23 339 LINE",
"23 243 LINE",
"398 243 LINE",
"398 339 LINE"
);
}
);
width = 426;
}
);
leftKerningGroup = t;
rightKerningGroup = t;
unicode = 0167;
},
{
glyphname = u;
layers = (
{
anchors = (
{
name = ogonek;
position = "{605, 10}";
},
{
name = top;
position = "{325, 538}";
}
);
layerId = "56A87FB8-163D-4578-80C9-082B510993A7";
paths = (
{
closed = 1;
nodes = (
"586 0 LINE",
"586 538 LINE",
"432 538 LINE",
"432 0 LINE"
);
},
{
closed = 1;
nodes = (
"386 -6 OFFCURVE",
"469 85 OFFCURVE",
"469 272 CURVE",
"431 272 LINE",
"431 194 OFFCURVE",
"387 136 OFFCURVE",
"313 135 CURVE SMOOTH",
"251 135 OFFCURVE",
"212 176 OFFCURVE",
"212 244 CURVE SMOOTH",
"212 538 LINE",
"58 538 LINE",
"58 200 LINE SMOOTH",
"58 73 OFFCURVE",
"133 -6 OFFCURVE",
"252 -6 CURVE SMOOTH"
);
}
);
width = 660;
}
);
leftKerningGroup = u;
rightKerningGroup = i;
unicode = 0075;
},
{
glyphname = uogonek;
layers = (
{
layerId = "56A87FB8-163D-4578-80C9-082B510993A7";
paths = (
{
closed = 1;
nodes = (
"434 538 LINE",
"434 259 LINE SMOOTH",
"429 188 OFFCURVE",
"385 136 OFFCURVE",
"315 135 CURVE SMOOTH",
"251 135 OFFCURVE",
"211 176 OFFCURVE",
"211 244 CURVE SMOOTH",
"211 538 LINE",
"58 538 LINE",
"58 200 LINE SMOOTH",
"58 73 OFFCURVE",
"133 -6 OFFCURVE",
"253 -6 CURVE SMOOTH",
"334 -6 OFFCURVE",
"397 26 OFFCURVE",
"434 92 CURVE",
"434 0 LINE",
"475 0 LINE",
"445 -43 OFFCURVE",
"426 -82 OFFCURVE",
"426 -121 CURVE SMOOTH",
"426 -181 OFFCURVE",
"472 -202 OFFCURVE",
"511 -202 CURVE SMOOTH",
"552 -202 OFFCURVE",
"590 -180 OFFCURVE",
"615 -138 CURVE",
"574 -90 LINE",
"561 -109 OFFCURVE",
"546 -121 OFFCURVE",
"529 -121 CURVE SMOOTH",
"515 -121 OFFCURVE",
"505 -112 OFFCURVE",
"505 -96 CURVE SMOOTH",
"505 -75 OFFCURVE",
"520 -42 OFFCURVE",
"551 0 CURVE",
"587 0 LINE",
"587 538 LINE"
);
}
);
width = 655;
}
);
leftKerningGroup = u;
leftMetricsKey = u;
rightKerningGroup = u;
unicode = 0173;
},
{
glyphname = v;
layers = (
{
layerId = "56A87FB8-163D-4578-80C9-082B510993A7";
paths = (
{
closed = 1;
nodes = (
"409 538 LINE",
"283 146 LINE",
"156 538 LINE",
"-3 537 LINE",
"201 0 LINE",
"359 0 LINE",
"562 538 LINE"
);
}
);
width = 556;
}
);
leftKerningGroup = v;
rightKerningGroup = v;
unicode = 0076;
},
{
glyphname = w;
layers = (
{
anchors = (
{
name = top;
position = "{462, 538}";
}
);
layerId = "56A87FB8-163D-4578-80C9-082B510993A7";
paths = (
{
closed = 1;
nodes = (
"777 538 LINE",
"659 153 LINE",
"541 538 LINE",
"390 538 LINE",
"274 153 LINE",
"154 538 LINE",
"-3 537 LINE",
"193 0 LINE",
"348 0 LINE",
"463 355 LINE",
"579 0 LINE",
"733 0 LINE",
"929 538 LINE"
);
}
);
width = 923;
}
);
leftKerningGroup = v;
rightKerningGroup = v;
unicode = 0077;
},
{
glyphname = x;
lastChange = "2016-05-14 08:45:32 +0000";
layers = (
{
layerId = "56A87FB8-163D-4578-80C9-082B510993A7";
paths = (
{
closed = 1;
nodes = (
"19 538 LINE",
"193 275 LINE",
"7 0 LINE",
"177 0 LINE",
"295 176 LINE",
"403 0 LINE",
"580 0 LINE",
"397 276 LINE",
"568 538 LINE",
"399 538 LINE",
"295 375 LINE",
"196 538 LINE"
);
}
);
width = 589;
}
);
leftKerningGroup = x;
rightKerningGroup = x;
unicode = 0078;
},
{
glyphname = y;
layers = (
{
anchors = (
{
name = top;
position = "{283, 538}";
}
);
layerId = "56A87FB8-163D-4578-80C9-082B510993A7";
paths = (
{
closed = 1;
nodes = (
"418 538 LINE",
"290 168 LINE",
"149 538 LINE",
"-9 538 LINE",
"213 11 LINE",
"199 -19 LINE SMOOTH",
"183 -51 OFFCURVE",
"159 -67 OFFCURVE",
"127 -67 CURVE SMOOTH",
"102 -67 OFFCURVE",
"82 -58 OFFCURVE",
"57 -38 CURVE",
"-8 -149 LINE",
"37 -185 OFFCURVE",
"82 -201 OFFCURVE",
"138 -201 CURVE SMOOTH",
"231 -201 OFFCURVE",
"297 -155 OFFCURVE",
"335 -60 CURVE SMOOTH",
"571 538 LINE"
);
}
);
width = 564;
}
);
leftKerningGroup = v;
rightKerningGroup = v;
unicode = 0079;
},
{
glyphname = z;
layers = (
{
anchors = (
{
name = top;
position = "{274, 537}";
}
);
layerId = "56A87FB8-163D-4578-80C9-082B510993A7";
paths = (
{
closed = 1;
nodes = (
"48 537 LINE",
"48 417 LINE",
"316 416 LINE",
"38 97 LINE",
"38 0 LINE",
"516 -1 LINE",
"516 121 LINE",
"230 121 LINE",
"507 440 LINE",
"507 537 LINE"
);
}
);
width = 548;
}
);
leftKerningGroup = z;
rightKerningGroup = z;
unicode = 007A;
},
{
glyphname = a.ss01;
layers = (
{
anchors = (
{
name = ogonek;
position = "{632, 10}";
},
{
name = top;
position = "{334, 538}";
}
);
layerId = "56A87FB8-163D-4578-80C9-082B510993A7";
paths = (
{
closed = 1;
nodes = (
"451 538 LINE",
"451 0 LINE",
"604 0 LINE",
"604 538 LINE"
);
},
{
closed = 1;
nodes = (
"127 543 OFFCURVE",
"28 434 OFFCURVE",
"28 271 CURVE SMOOTH",
"28 105 OFFCURVE",
"129 -6 OFFCURVE",
"282 -6 CURVE SMOOTH",
"421 -6 OFFCURVE",
"503 100 OFFCURVE",
"503 270 CURVE",
"503 439 OFFCURVE",
"418 544 OFFCURVE",
"277 544 CURVE SMOOTH"
);
},
{
closed = 1;
nodes = (
"397 416 OFFCURVE",
"451 355 OFFCURVE",
"451 267 CURVE SMOOTH",
"451 179 OFFCURVE",
"397 118 OFFCURVE",
"317 118 CURVE SMOOTH",
"237 118 OFFCURVE",
"183 179 OFFCURVE",
"182 267 CURVE SMOOTH",
"183 354 OFFCURVE",
"237 416 OFFCURVE",
"317 416 CURVE SMOOTH"
);
}
);
width = 679;
}
);
leftKerningGroup = o;
leftMetricsKey = o;
rightKerningGroup = dotlessi;
rightMetricsKey = dotlessi;
},
{
glyphname = ae.ss01;
layers = (
{
anchors = (
{
name = top;
position = "{477, 538}";
}
);
layerId = "56A87FB8-163D-4578-80C9-082B510993A7";
paths = (
{
closed = 0;
nodes = (
"554 124 LINE"
);
},
{
closed = 1;
nodes = (
"237 323 LINE SMOOTH",
"105 322 OFFCURVE",
"32 261 OFFCURVE",
"32 162 CURVE SMOOTH",
"32 63 OFFCURVE",
"105 -7 OFFCURVE",
"226 -7 CURVE SMOOTH",
"343 -7 OFFCURVE",
"426 43 OFFCURVE",
"465 138 CURVE",
"388 189 LINE",
"380 139 OFFCURVE",
"327 103 OFFCURVE",
"261 103 CURVE SMOOTH",
"208 103 OFFCURVE",
"176 130 OFFCURVE",
"176 171 CURVE SMOOTH",
"176 214 OFFCURVE",
"205 232 OFFCURVE",
"265 232 CURVE SMOOTH",
"403 232 LINE",
"403 323 LINE"
);
},
{
closed = 1;
nodes = (
"113 376 LINE",
"170 407 OFFCURVE",
"226 423 OFFCURVE",
"274 423 CURVE SMOOTH",
"349 423 OFFCURVE",
"387 390 OFFCURVE",
"387 332 CURVE",
"388 147 LINE",
"539 125 LINE",
"538 351 LINE SMOOTH",
"538 472 OFFCURVE",
"454 544 OFFCURVE",
"309 544 CURVE SMOOTH",
"215 544 OFFCURVE",
"146 522 OFFCURVE",
"65 482 CURVE"
);
},
{
closed = 1;
nodes = (
"792 138 OFFCURVE",
"743 114 OFFCURVE",
"691 114 CURVE SMOOTH",
"606 114 OFFCURVE",
"547 177 OFFCURVE",
"547 278 CURVE SMOOTH",
"547 374 OFFCURVE",
"597 429 OFFCURVE",
"678 429 CURVE SMOOTH",
"730 429 OFFCURVE",
"770 406 OFFCURVE",
"788 351 CURVE",
"521 280 LINE",
"523 185 LINE",
"935 292 LINE",
"929 447 OFFCURVE",
"830 544 OFFCURVE",
"675 543 CURVE SMOOTH",
"508 542 OFFCURVE",
"407 430 OFFCURVE",
"407 270 CURVE SMOOTH",
"407 104 OFFCURVE",
"515 -6 OFFCURVE",
"682 -6 CURVE SMOOTH",
"776 -6 OFFCURVE",
"859 29 OFFCURVE",
"922 104 CURVE",
"834 184 LINE"
);
}
);
width = 962;
}
);
leftKerningGroup = ae.ss01;
leftMetricsKey = a;
rightKerningGroup = ae.ss01;
rightMetricsKey = e;
},
{
glyphname = e.ss01;
layers = (
{
anchors = (
{
name = bottom;
position = "{304, 0}";
},
{
name = ogonek;
position = "{548, 10}";
},
{
name = top;
position = "{304, 538}";
}
);
layerId = "56A87FB8-163D-4578-80C9-082B510993A7";
paths = (
{
closed = 1;
nodes = (
"158 187 LINE",
"569 295 LINE",
"563 449 OFFCURVE",
"460 544 OFFCURVE",
"305 543 CURVE SMOOTH",
"135 542 OFFCURVE",
"28 430 OFFCURVE",
"28 268 CURVE SMOOTH",
"28 104 OFFCURVE",
"143 -6 OFFCURVE",
"315 -6 CURVE SMOOTH",
"413 -6 OFFCURVE",
"494 31 OFFCURVE",
"556 104 CURVE",
"468 184 LINE",
"427 138 OFFCURVE",
"377 114 OFFCURVE",
"325 114 CURVE SMOOTH",
"240 114 OFFCURVE",
"182 178 OFFCURVE",
"182 276 CURVE SMOOTH",
"182 375 OFFCURVE",
"232 429 OFFCURVE",
"312 429 CURVE SMOOTH",
"364 429 OFFCURVE",
"401 405 OFFCURVE",
"418 353 CURVE",
"155 282 LINE"
);
}
);
width = 605;
}
);
leftKerningGroup = o;
leftMetricsKey = o;
rightKerningGroup = e;
},
{
glyphname = eogonek.ss01;
layers = (
{
layerId = "56A87FB8-163D-4578-80C9-082B510993A7";
paths = (
{
closed = 1;
nodes = (
"240 114 OFFCURVE",
"182 178 OFFCURVE",
"182 276 CURVE SMOOTH",
"182 375 OFFCURVE",
"232 429 OFFCURVE",
"312 429 CURVE SMOOTH",
"364 429 OFFCURVE",
"401 405 OFFCURVE",
"418 353 CURVE",
"155 282 LINE",
"158 187 LINE",
"569 295 LINE",
"563 449 OFFCURVE",
"460 544 OFFCURVE",
"305 543 CURVE SMOOTH",
"135 542 OFFCURVE",
"28 430 OFFCURVE",
"28 268 CURVE SMOOTH",
"28 104 OFFCURVE",
"143 -6 OFFCURVE",
"315 -6 CURVE",
"350 -6 OFFCURVE",
"385 4 OFFCURVE",
"416 20 CURVE",
"378 -31 OFFCURVE",
"358 -77 OFFCURVE",
"358 -121 CURVE SMOOTH",
"358 -181 OFFCURVE",
"403 -202 OFFCURVE",
"443 -202 CURVE SMOOTH",
"484 -202 OFFCURVE",
"521 -180 OFFCURVE",
"546 -138 CURVE",
"505 -90 LINE",
"492 -109 OFFCURVE",
"477 -121 OFFCURVE",
"461 -121 CURVE SMOOTH",
"447 -121 OFFCURVE",
"437 -112 OFFCURVE",
"437 -96 CURVE SMOOTH",
"437 -47 OFFCURVE",
"494 30 OFFCURVE",
"544 88 CURVE",
"464 172 LINE",
"426 134 OFFCURVE",
"376 114 OFFCURVE",
"325 114 CURVE"
);
}
);
width = 605;
}
);
leftKerningGroup = o;
rightKerningGroup = e;
},
{
glyphname = f.ss01;
layers = (
{
layerId = "56A87FB8-163D-4578-80C9-082B510993A7";
paths = (
{
closed = 1;
nodes = (
"154 749 OFFCURVE",
"64 685 OFFCURVE",
"64 565 CURVE",
"64 0 LINE",
"217 0 LINE",
"217 559 LINE",
"217 602 OFFCURVE",
"245 622 OFFCURVE",
"282 622 CURVE",
"303 622 OFFCURVE",
"328 614 OFFCURVE",
"348 599 CURVE",
"403 711 LINE",
"365 736 OFFCURVE",
"312 749 OFFCURVE",
"263 749 CURVE"
);
},
{
closed = 1;
nodes = (
"79 514 LINE",
"79 407 LINE",
"344 407 LINE",
"344 514 LINE"
);
}
);
width = 341;
}
);
leftKerningGroup = f.ss01;
rightKerningGroup = f.ss01;
},
{
glyphname = g.ss01;
layers = (
{
anchors = (
{
name = top;
position = "{317, 538}";
}
);
layerId = "56A87FB8-163D-4578-80C9-082B510993A7";
paths = (
{
closed = 1;
nodes = (
"425 538 LINE",
"425 45 LINE SMOOTH",
"425 -28 OFFCURVE",
"369 -76 OFFCURVE",
"282 -75 CURVE SMOOTH",
"218 -74 OFFCURVE",
"161 -40 OFFCURVE",
"123 11 CURVE",
"49 -78 LINE",
"96 -154 OFFCURVE",
"191 -199 OFFCURVE",
"289 -200 CURVE SMOOTH",
"464 -201 OFFCURVE",
"577 -103 OFFCURVE",
"577 50 CURVE SMOOTH",
"577 538 LINE"
);
},
{
closed = 1;
nodes = (
"121 542 OFFCURVE",
"28 440 OFFCURVE",
"28 288 CURVE SMOOTH",
"28 132 OFFCURVE",
"123 28 OFFCURVE",
"266 28 CURVE SMOOTH",
"396 28 OFFCURVE",
"473 127 OFFCURVE",
"473 287 CURVE",
"473 445 OFFCURVE",
"394 543 OFFCURVE",
"261 543 CURVE SMOOTH"
);
},
{
closed = 1;
nodes = (
"374 423 OFFCURVE",
"424 367 OFFCURVE",
"425 284 CURVE SMOOTH",
"424 202 OFFCURVE",
"374 145 OFFCURVE",
"299 145 CURVE SMOOTH",
"223 145 OFFCURVE",
"173 202 OFFCURVE",
"172 284 CURVE SMOOTH",
"173 366 OFFCURVE",
"224 423 OFFCURVE",
"299 423 CURVE SMOOTH"
);
}
);
width = 644;
}
);
leftKerningGroup = o;
leftMetricsKey = o;
rightKerningGroup = j;
rightMetricsKey = j;
},
{
glyphname = l.ss01;
layers = (
{
anchors = (
{
name = bottom;
position = "{167, 0}";
},
{
name = top;
position = "{167, 538}";
},
{
name = topright;
position = "{315, 538}";
}
);
layerId = "56A87FB8-163D-4578-80C9-082B510993A7";
paths = (
{
closed = 1;
nodes = (
"65 178 LINE SMOOTH",
"65 53 OFFCURVE",
"141 -7 OFFCURVE",
"231 -7 CURVE SMOOTH",
"264 -7 OFFCURVE",
"299 1 OFFCURVE",
"333 17 CURVE",
"318 145 LINE",
"299 136 OFFCURVE",
"282 130 OFFCURVE",
"266 130 CURVE SMOOTH",
"237 130 OFFCURVE",
"218 148 OFFCURVE",
"218 188 CURVE SMOOTH",
"218 742 LINE",
"65 742 LINE"
);
}
);
width = 332;
}
);
leftKerningGroup = l.ss01;
rightKerningGroup = l.ss01;
},
{
glyphname = oe.ss01;
layers = (
{
anchors = (
{
name = bottom;
position = "{938, 0}";
},
{
name = ogonek;
position = "{1181, 10}";
},
{
name = top;
position = "{938, 538}";
}
);
layerId = "56A87FB8-163D-4578-80C9-082B510993A7";
paths = (
{
closed = 1;
nodes = (
"144 543 OFFCURVE",
"28 434 OFFCURVE",
"28 269 CURVE SMOOTH",
"28 105 OFFCURVE",
"144 -6 OFFCURVE",
"317 -6 CURVE SMOOTH",
"478 -6 OFFCURVE",
"573 105 OFFCURVE",
"573 269 CURVE SMOOTH",
"573 434 OFFCURVE",
"478 543 OFFCURVE",
"317 543 CURVE SMOOTH"
);
},
{
closed = 1;
nodes = (
"396 415 OFFCURVE",
"450 355 OFFCURVE",
"450 267 CURVE SMOOTH",
"450 179 OFFCURVE",
"396 119 OFFCURVE",
"316 119 CURVE SMOOTH",
"237 119 OFFCURVE",
"182 179 OFFCURVE",
"182 267 CURVE SMOOTH",
"182 355 OFFCURVE",
"237 415 OFFCURVE",
"316 415 CURVE SMOOTH"
);
},
{
closed = 1;
nodes = (
"568 542 OFFCURVE",
"478 430 OFFCURVE",
"478 268 CURVE SMOOTH",
"478 104 OFFCURVE",
"577 -6 OFFCURVE",
"737 -6 CURVE SMOOTH",
"835 -6 OFFCURVE",
"917 31 OFFCURVE",
"979 104 CURVE",
"891 184 LINE",
"850 138 OFFCURVE",
"800 114 OFFCURVE",
"748 114 CURVE SMOOTH",
"663 114 OFFCURVE",
"605 178 OFFCURVE",
"605 276 CURVE SMOOTH",
"605 375 OFFCURVE",
"655 429 OFFCURVE",
"735 429 CURVE SMOOTH",
"787 429 OFFCURVE",
"824 405 OFFCURVE",
"841 353 CURVE",
"578 282 LINE",
"581 187 LINE",
"992 295 LINE",
"986 449 OFFCURVE",
"883 544 OFFCURVE",
"727 543 CURVE SMOOTH"
);
}
);
width = 1028;
}
);
leftKerningGroup = o;
leftMetricsKey = "=o";
rightKerningGroup = o;
rightMetricsKey = e.ss01;
},
{
glyphname = t.ss01;
layers = (
{
anchors = (
{
name = bottom;
position = "{204, 0}";
},
{
name = center;
position = "{178, 269}";
}
);
layerId = "56A87FB8-163D-4578-80C9-082B510993A7";
paths = (
{
closed = 1;
nodes = (
"62 662 LINE",
"62 171 LINE",
"62 56 OFFCURVE",
"135 -7 OFFCURVE",
"233 -7 CURVE",
"280 -7 OFFCURVE",
"331 7 OFFCURVE",
"371 30 CURVE",
"339 143 LINE",
"311 130 OFFCURVE",
"287 123 OFFCURVE",
"268 123 CURVE",
"234 122 OFFCURVE",
"215 146 OFFCURVE",
"215 197 CURVE",
"215 662 LINE"
);
},
{
closed = 1;
nodes = (
"87 514 LINE",
"87 407 LINE",
"362 407 LINE",
"362 514 LINE"
);
}
);
width = 390;
}
);
leftKerningGroup = u;
rightKerningGroup = t;
rightMetricsKey = t;
},
{
glyphname = tbar.ss01;
layers = (
{
anchors = (
{
name = bottom;
position = "{204, 0}";
},
{
name = center;
position = "{178, 269}";
}
);
layerId = "56A87FB8-163D-4578-80C9-082B510993A7";
paths = (
{
closed = 1;
nodes = (
"62 662 LINE",
"62 171 LINE",
"62 56 OFFCURVE",
"135 -7 OFFCURVE",
"233 -7 CURVE",
"280 -7 OFFCURVE",
"331 7 OFFCURVE",
"371 30 CURVE",
"339 143 LINE",
"311 130 OFFCURVE",
"287 123 OFFCURVE",
"268 123 CURVE",
"234 122 OFFCURVE",
"215 146 OFFCURVE",
"215 197 CURVE",
"215 662 LINE"
);
},
{
closed = 1;
nodes = (
"87 514 LINE",
"87 418 LINE",
"362 418 LINE",
"362 514 LINE"
);
},
{
closed = 1;
nodes = (
"87 339 LINE",
"87 243 LINE",
"362 243 LINE",
"362 339 LINE"
);
}
);
width = 390;
}
);
leftKerningGroup = tbar.ss01;
rightKerningGroup = tbar.ss01;
},
{
glyphname = w.ss01;
layers = (
{
anchors = (
{
name = top;
position = "{488, 538}";
}
);
layerId = "56A87FB8-163D-4578-80C9-082B510993A7";
paths = (
{
closed = 1;
nodes = (
"766 538 LINE",
"766 236 LINE SMOOTH",
"766 174 OFFCURVE",
"727 133 OFFCURVE",
"668 133 CURVE SMOOTH",
"606 133 OFFCURVE",
"564 174 OFFCURVE",
"564 236 CURVE SMOOTH",
"564 538 LINE",
"411 538 LINE",
"411 236 LINE SMOOTH",
"411 174 OFFCURVE",
"372 133 OFFCURVE",
"311 133 CURVE SMOOTH",
"250 133 OFFCURVE",
"210 174 OFFCURVE",
"210 236 CURVE SMOOTH",
"210 538 LINE",
"57 538 LINE",
"57 229 LINE SMOOTH",
"57 87 OFFCURVE",
"149 -7 OFFCURVE",
"287 -7 CURVE SMOOTH",
"370 -7 OFFCURVE",
"452 37 OFFCURVE",
"488 103 CURVE",
"527 37 OFFCURVE",
"609 -7 OFFCURVE",
"692 -7 CURVE SMOOTH",
"828 -7 OFFCURVE",
"919 87 OFFCURVE",
"919 229 CURVE SMOOTH",
"919 538 LINE"
);
}
);
width = 976;
}
);
leftKerningGroup = u;
rightKerningGroup = w.ss01;
},
{
glyphname = y.ss01;
layers = (
{
anchors = (
{
name = top;
position = "{325, 538}";
}
);
layerId = "56A87FB8-163D-4578-80C9-082B510993A7";
paths = (
{
closed = 1;
nodes = (
"404 46 OFFCURVE",
"484 145 OFFCURVE",
"484 329 CURVE",
"441 329 LINE",
"441 242 OFFCURVE",
"395 187 OFFCURVE",
"318 186 CURVE SMOOTH",
"252 186 OFFCURVE",
"212 228 OFFCURVE",
"212 296 CURVE SMOOTH",
"212 538 LINE",
"58 538 LINE",
"58 251 LINE SMOOTH",
"58 125 OFFCURVE",
"133 44 OFFCURVE",
"253 44 CURVE SMOOTH"
);
},
{
closed = 1;
nodes = (
"440 538 LINE",
"440 59 LINE",
"440 -23 OFFCURVE",
"384 -75 OFFCURVE",
"297 -75 CURVE SMOOTH",
"239 -74 OFFCURVE",
"167 -50 OFFCURVE",
"116 -16 CURVE",
"78 -125 LINE",
"138 -169 OFFCURVE",
"234 -199 OFFCURVE",
"315 -200 CURVE",
"481 -201 OFFCURVE",
"593 -97 OFFCURVE",
"593 56 CURVE",
"593 538 LINE"
);
}
);
width = 660;
}
);
leftKerningGroup = u;
leftMetricsKey = u;
rightKerningGroup = j;
rightMetricsKey = g;
},
{
glyphname = z.ss01;
layers = (
{
anchors = (
{
name = top;
position = "{274, 538}";
}
);
layerId = "56A87FB8-163D-4578-80C9-082B510993A7";
paths = (
{
closed = 1;
nodes = (
"260 314 LINE",
"260 219 LINE",
"472 219 LINE",
"472 314 LINE"
);
},
{
closed = 1;
nodes = (
"74 322 LINE",
"74 227 LINE",
"272 227 LINE",
"272 322 LINE"
);
},
{
closed = 1;
nodes = (
"48 537 LINE",
"48 417 LINE",
"316 416 LINE",
"38 97 LINE",
"38 0 LINE",
"516 -1 LINE",
"516 121 LINE",
"230 121 LINE",
"507 440 LINE",
"507 537 LINE"
);
}
);
width = 548;
}
);
leftKerningGroup = z;
leftMetricsKey = z;
rightKerningGroup = z;
rightMetricsKey = z;
},
{
glyphname = fi;
layers = (
{
components = (
{
name = i;
transform = "{1, 0, 0, 1, 372, 0}";
}
);
layerId = "56A87FB8-163D-4578-80C9-082B510993A7";
paths = (
{
closed = 1;
nodes = (
"195 749 OFFCURVE",
"103 687 OFFCURVE",
"103 565 CURVE",
"103 0 LINE",
"256 0 LINE",
"256 559 LINE",
"256 603 OFFCURVE",
"283 622 OFFCURVE",
"321 621 CURVE",
"344 621 OFFCURVE",
"374 613 OFFCURVE",
"400 600 CURVE",
"405 728 LINE",
"377 741 OFFCURVE",
"339 749 OFFCURVE",
"302 749 CURVE"
);
},
{
closed = 1;
nodes = (
"31 518 LINE",
"31 412 LINE",
"383 412 LINE",
"383 518 LINE"
);
}
);
width = 674;
}
);
leftKerningGroup = f;
leftMetricsKey = f;
rightKerningGroup = dotlessi;
rightMetricsKey = i;
unicode = FB01;
},
{
glyphname = fl;
layers = (
{
components = (
{
name = l;
transform = "{1, 0, 0, 1, 381, 0}";
}
);
layerId = "56A87FB8-163D-4578-80C9-082B510993A7";
paths = (
{
closed = 1;
nodes = (
"184 753 OFFCURVE",
"103 681 OFFCURVE",
"103 574 CURVE",
"103 0 LINE",
"256 0 LINE",
"256 550 LINE",
"256 596 OFFCURVE",
"288 628 OFFCURVE",
"334 627 CURVE",
"355 626 OFFCURVE",
"381 618 OFFCURVE",
"401 603 CURVE",
"405 732 LINE",
"379 744 OFFCURVE",
"339 751 OFFCURVE",
"302 752 CURVE"
);
},
{
closed = 1;
nodes = (
"32 518 LINE",
"31 412 LINE",
"383 412 LINE",
"384 518 LINE"
);
}
);
width = 694;
}
);
leftKerningGroup = f;
leftMetricsKey = f;
rightKerningGroup = l;
rightMetricsKey = l;
unicode = FB02;
},
{
glyphname = fi.ss01;
layers = (
{
components = (
{
name = i;
transform = "{1, 0, 0, 1, 340, 0}";
}
);
layerId = "56A87FB8-163D-4578-80C9-082B510993A7";
paths = (
{
closed = 1;
nodes = (
"156 749 OFFCURVE",
"64 687 OFFCURVE",
"64 565 CURVE",
"64 0 LINE",
"217 0 LINE",
"217 559 LINE",
"217 603 OFFCURVE",
"244 622 OFFCURVE",
"282 621 CURVE",
"305 621 OFFCURVE",
"335 613 OFFCURVE",
"361 600 CURVE",
"366 728 LINE",
"338 741 OFFCURVE",
"300 749 OFFCURVE",
"263 749 CURVE"
);
},
{
closed = 1;
nodes = (
"92 514 LINE",
"92 407 LINE",
"344 407 LINE",
"344 514 LINE"
);
}
);
width = 642;
}
);
leftKerningGroup = f;
leftMetricsKey = f.ss01;
rightKerningGroup = dotlessi;
rightMetricsKey = i;
},
{
glyphname = fl.ss01;
layers = (
{
anchors = (
{
name = caret_1;
position = "{358, 0}";
}
);
layerId = "56A87FB8-163D-4578-80C9-082B510993A7";
paths = (
{
closed = 1;
nodes = (
"698 45 LINE",
"679 36 OFFCURVE",
"662 30 OFFCURVE",
"646 30 CURVE SMOOTH",
"618 30 OFFCURVE",
"598 48 OFFCURVE",
"598 88 CURVE SMOOTH",
"598 548 LINE SMOOTH",
"598 675 OFFCURVE",
"511 748 OFFCURVE",
"355 748 CURVE SMOOTH",
"194 749 OFFCURVE",
"103 683 OFFCURVE",
"103 567 CURVE SMOOTH",
"103 498 LINE",
"31 498 LINE",
"31 391 LINE",
"103 391 LINE",
"103 0 LINE",
"256 0 LINE",
"256 391 LINE",
"360 391 LINE",
"360 498 LINE",
"256 498 LINE",
"256 556 LINE SMOOTH",
"256 599 OFFCURVE",
"288 623 OFFCURVE",
"347 622 CURVE SMOOTH",
"410 621 OFFCURVE",
"445 593 OFFCURVE",
"445 542 CURVE SMOOTH",
"445 78 LINE SMOOTH",
"445 -47 OFFCURVE",
"521 -107 OFFCURVE",
"611 -107 CURVE SMOOTH",
"644 -107 OFFCURVE",
"679 -99 OFFCURVE",
"713 -83 CURVE"
);
}
);
width = 712;
}
);
leftKerningGroup = f;
leftMetricsKey = f;
rightKerningGroup = l;
rightMetricsKey = l.ss01;
},
{
glyphname = ordfeminine;
layers = (
{
layerId = "56A87FB8-163D-4578-80C9-082B510993A7";
paths = (
{
closed = 1;
nodes = (
"153 783 OFFCURVE",
"99 770 OFFCURVE",
"46 749 CURVE",
"71 678 LINE",
"110 694 OFFCURVE",
"147 703 OFFCURVE",
"178 703 CURVE",
"222 703 OFFCURVE",
"244 685 OFFCURVE",
"245 654 CURVE",
"245 458 LINE",
"349 458 LINE",
"349 667 LINE",
"349 740 OFFCURVE",
"295 783 OFFCURVE",
"202 783 CURVE"
);
},
{
closed = 1;
nodes = (
"255 647 LINE",
"154 647 LINE",
"71 647 OFFCURVE",
"25 613 OFFCURVE",
"25 553 CURVE",
"25 493 OFFCURVE",
"67 453 OFFCURVE",
"137 453 CURVE",
"198 453 OFFCURVE",
"240 480 OFFCURVE",
"260 529 CURVE",
"245 561 LINE",
"229 534 OFFCURVE",
"203 522 OFFCURVE",
"173 522 CURVE",
"143 522 OFFCURVE",
"125 537 OFFCURVE",
"125 561 CURVE",
"125 584 OFFCURVE",
"144 596 OFFCURVE",
"176 596 CURVE",
"255 596 LINE"
);
}
);
width = 390;
}
);
leftKerningGroup = asterisk;
rightKerningGroup = asterisk;
unicode = 00AA;
},
{
glyphname = ordmasculine;
layers = (
{
layerId = "56A87FB8-163D-4578-80C9-082B510993A7";
paths = (
{
closed = 1;
nodes = (
"96 783 OFFCURVE",
"24 717 OFFCURVE",
"24 619 CURVE SMOOTH",
"24 520 OFFCURVE",
"96 455 OFFCURVE",
"206 455 CURVE SMOOTH",
"315 455 OFFCURVE",
"388 520 OFFCURVE",
"388 619 CURVE SMOOTH",
"388 717 OFFCURVE",
"315 783 OFFCURVE",
"206 783 CURVE SMOOTH"
);
},
{
closed = 1;
nodes = (
"249 698 OFFCURVE",
"280 666 OFFCURVE",
"280 617 CURVE SMOOTH",
"280 569 OFFCURVE",
"249 537 OFFCURVE",
"205 537 CURVE SMOOTH",
"161 537 OFFCURVE",
"130 569 OFFCURVE",
"130 617 CURVE SMOOTH",
"130 666 OFFCURVE",
"161 698 OFFCURVE",
"205 698 CURVE SMOOTH"
);
}
);
width = 411;
}
);
leftKerningGroup = asterisk;
rightKerningGroup = asterisk;
unicode = 00BA;
},
{
glyphname = Delta;
layers = (
{
layerId = "56A87FB8-163D-4578-80C9-082B510993A7";
paths = (
{
closed = 1;
nodes = (
"301 700 LINE",
"-3 0 LINE",
"160 0 LINE",
"378 535 LINE",
"594 0 LINE",
"763 0 LINE",
"464 700 LINE"
);
},
{
closed = 1;
nodes = (
"132 120 LINE",
"132 0 LINE SMOOTH",
"615 0 LINE",
"615 120 LINE"
);
}
);
width = 760;
}
);
leftKerningGroup = A;
rightKerningGroup = A;
unicode = 0394;
},
{
glyphname = Omega;
layers = (
{
anchors = (
{
name = topleft;
position = "{20, 700}";
}
);
layerId = "56A87FB8-163D-4578-80C9-082B510993A7";
paths = (
{
closed = 1;
nodes = (
"225 708 OFFCURVE",
"73 569 OFFCURVE",
"73 379 CURVE SMOOTH",
"73 289 OFFCURVE",
"124 186 OFFCURVE",
"195 129 CURVE",
"8 129 LINE",
"8 0 LINE",
"352 0 LINE",
"352 119 LINE",
"272 171 OFFCURVE",
"213 274 OFFCURVE",
"213 365 CURVE SMOOTH",
"213 486 OFFCURVE",
"306 573 OFFCURVE",
"433 573 CURVE SMOOTH",
"560 573 OFFCURVE",
"653 486 OFFCURVE",
"653 365 CURVE SMOOTH",
"653 274 OFFCURVE",
"594 171 OFFCURVE",
"514 120 CURVE",
"514 0 LINE",
"858 0 LINE",
"858 129 LINE",
"671 129 LINE",
"742 187 OFFCURVE",
"793 290 OFFCURVE",
"793 379 CURVE SMOOTH",
"793 569 OFFCURVE",
"640 708 OFFCURVE",
"433 708 CURVE SMOOTH"
);
}
);
width = 865;
}
);
leftMetricsKey = T;
rightMetricsKey = T;
unicode = 03A9;
},
{
glyphname = pi;
layers = (
{
layerId = "56A87FB8-163D-4578-80C9-082B510993A7";
paths = (
{
closed = 1;
nodes = (
"163 538 LINE",
"60 538 OFFCURVE",
"-15 471 OFFCURVE",
"-14 383 CURVE",
"-14 340 OFFCURVE",
"1 287 OFFCURVE",
"23 247 CURVE",
"129 286 LINE",
"115 308 OFFCURVE",
"106 336 OFFCURVE",
"106 356 CURVE",
"105 396 OFFCURVE",
"138 425 OFFCURVE",
"183 425 CURVE",
"717 425 LINE",
"716 538 LINE"
);
},
{
closed = 1;
nodes = (
"457 442 LINE",
"457 0 LINE",
"584 0 LINE",
"584 442 LINE"
);
},
{
closed = 1;
nodes = (
"223 442 LINE",
"175 0 LINE",
"302 0 LINE",
"351 442 LINE"
);
}
);
width = 728;
}
);
unicode = 03C0;
},
{
glyphname = "aaMatra-gurmukhi";
layers = (
{
anchors = (
{
name = bindu;
position = "{148, 680}";
},
{
name = candra;
position = "{148, 690}";
},
{
name = top;
position = "{148, 670}";
}
);
layerId = "56A87FB8-163D-4578-80C9-082B510993A7";
paths = (
{
closed = 1;
nodes = (
"224 264 LINE",
"224 564 LINE",
"299 564 LINE",
"299 691 LINE",
"0 691 LINE",
"0 564 LINE",
"73 564 LINE",
"73 264 LINE"
);
}
);
width = 299;
}
);
unicode = 0A3E;
},
{
glyphname = "iMatra-gurmukhi";
layers = (
{
anchors = (
{
name = bindu;
position = "{610, 670}";
},
{
name = candra;
position = "{721, 690}";
}
);
layerId = "56A87FB8-163D-4578-80C9-082B510993A7";
paths = (
{
closed = 1;
nodes = (
"231 564 LINE",
"231 736 LINE SMOOTH",
"231 793 OFFCURVE",
"263 821 OFFCURVE",
"305 821 CURVE SMOOTH",
"348 821 OFFCURVE",
"378 803 OFFCURVE",
"410 752 CURVE",
"508 808 LINE",
"457 909 OFFCURVE",
"371 944 OFFCURVE",
"285 944 CURVE SMOOTH",
"178 944 OFFCURVE",
"85 875 OFFCURVE",
"85 749 CURVE SMOOTH",
"85 691 LINE",
"0 691 LINE",
"0 564 LINE"
);
},
{
closed = 1;
nodes = (
"231 0 LINE",
"231 626 LINE",
"193 564 LINE",
"306 564 LINE",
"306 691 LINE",
"80 691 LINE",
"80 0 LINE"
);
}
);
width = 305;
}
);
unicode = 0A3F;
},
{
glyphname = "iiMatra-gurmukhi";
layers = (
{
anchors = (
{
name = bindu;
position = "{304, 670}";
},
{
name = candra;
position = "{427, 690}";
}
);
layerId = "56A87FB8-163D-4578-80C9-082B510993A7";
paths = (
{
closed = 1;
nodes = (
"211 564 LINE",
"211 713 LINE SMOOTH",
"211 843 OFFCURVE",
"114 944 OFFCURVE",
"-22 944 CURVE SMOOTH",
"-133 944 OFFCURVE",
"-195 891 OFFCURVE",
"-215 811 CURVE",
"-90 754 LINE",
"-75 788 OFFCURVE",
"-56 821 OFFCURVE",
"-9 821 CURVE SMOOTH",
"47 821 OFFCURVE",
"66 778 OFFCURVE",
"66 725 CURVE SMOOTH",
"66 622 LINE",
"131 691 LINE",
"-53 691 LINE",
"-53 564 LINE"
);
},
{
closed = 1;
nodes = (
"211 0 LINE",
"211 626 LINE",
"173 564 LINE",
"286 564 LINE",
"286 691 LINE",
"60 691 LINE",
"60 0 LINE"
);
}
);
width = 286;
}
);
rightMetricsKey = "STEM-GURM";
unicode = 0A40;
},
{
glyphname = "a-gurmukhi";
layers = (
{
anchors = (
{
name = bindu;
position = "{706, 691}";
},
{
name = candra;
position = "{706, 701}";
},
{
name = top;
position = "{706, 681}";
}
);
layerId = "56A87FB8-163D-4578-80C9-082B510993A7";
paths = (
{
closed = 1;
nodes = (
"522 180 OFFCURVE",
"553 269 OFFCURVE",
"553 366 CURVE SMOOTH",
"553 537 OFFCURVE",
"456 626 OFFCURVE",
"337 626 CURVE SMOOTH",
"276 626 OFFCURVE",
"225 603 OFFCURVE",
"187 563 CURVE",
"225 558 LINE",
"184 648 OFFCURVE",
"96 691 OFFCURVE",
"2 691 CURVE SMOOTH",
"-17 691 LINE",
"-17 564 LINE",
"12 564 LINE SMOOTH",
"84 564 OFFCURVE",
"137 518 OFFCURVE",
"130 450 CURVE",
"141 502 LINE",
"96 428 OFFCURVE",
"58 335 OFFCURVE",
"57 195 CURVE",
"180 163 LINE",
"235 269 OFFCURVE",
"261 341 OFFCURVE",
"258 427 CURVE",
"254 381 LINE",
"263 458 OFFCURVE",
"305 490 OFFCURVE",
"352 490 CURVE SMOOTH",
"410 490 OFFCURVE",
"435 441 OFFCURVE",
"431 359 CURVE",
"449 426 LINE",
"371 339 OFFCURVE",
"346 240 OFFCURVE",
"341 138 CURVE SMOOTH",
"340 120 OFFCURVE",
"340 98 OFFCURVE",
"341 82 CURVE",
"464 65 LINE"
);
},
{
closed = 1;
nodes = (
"719 303 LINE",
"719 430 LINE",
"471 430 LINE",
"468 303 LINE"
);
},
{
closed = 1;
nodes = (
"802 0 LINE",
"802 626 LINE",
"764 564 LINE",
"877 564 LINE",
"877 691 LINE",
"651 691 LINE",
"651 0 LINE"
);
}
);
width = 877;
}
);
rightMetricsKey = "STEM-GURM";
unicode = 0A05;
},
{
glyphname = "ee-gurmukhi";
layers = (
{
anchors = (
{
name = _top;
position = "{465, 670}";
},
{
name = bindu;
position = "{633, 680}";
},
{
name = bottom;
position = "{391, 2}";
},
{
name = candra;
position = "{730, 690}";
},
{
name = caret_1;
position = "{389, 30}";
},
{
name = nukta;
position = "{106, -48}";
},
{
name = top;
position = "{481, 670}";
}
);
components = (
{
name = "iri-gurmukhi";
}
);
layerId = "56A87FB8-163D-4578-80C9-082B510993A7";
paths = (
{
closed = 1;
nodes = (
"524 638 LINE",
"524 831 OFFCURVE",
"414 950 OFFCURVE",
"221 950 CURVE SMOOTH",
"175 950 OFFCURVE",
"129 943 OFFCURVE",
"89 928 CURVE",
"119 811 LINE",
"158 820 OFFCURVE",
"199 825 OFFCURVE",
"236 825 CURVE SMOOTH",
"362 825 OFFCURVE",
"404 760 OFFCURVE",
"410 638 CURVE"
);
}
);
width = 638;
}
);
unicode = 0A0F;
},
{
glyphname = "ai-gurmukhi";
layers = (
{
anchors = (
{
name = _top;
position = "{706, 681}";
},
{
name = bindu;
position = "{883, 680}";
},
{
name = candra;
position = "{980, 690}";
},
{
name = top;
position = "{721, 681}";
}
);
components = (
{
name = "a-gurmukhi";
}
);
layerId = "56A87FB8-163D-4578-80C9-082B510993A7";
paths = (
{
closed = 1;
nodes = (
"764 663 LINE",
"762 936 OFFCURVE",
"638 1079 OFFCURVE",
"438 1079 CURVE",
"443 972 LINE",
"579 972 OFFCURVE",
"668 901 OFFCURVE",
"686 729 CURVE",
"700 754 LINE",
"652 860 OFFCURVE",
"533 918 OFFCURVE",
"398 918 CURVE SMOOTH",
"343 918 OFFCURVE",
"289 909 OFFCURVE",
"244 888 CURVE",
"274 780 LINE",
"311 793 OFFCURVE",
"364 801 OFFCURVE",
"417 801 CURVE SMOOTH",
"540 801 OFFCURVE",
"651 770 OFFCURVE",
"651 663 CURVE"
);
}
);
width = 877;
}
);
unicode = 0A10;
},
{
glyphname = "oo-gurmukhi";
layers = (
{
anchors = (
{
name = bindu;
position = "{652, 680}";
},
{
name = bottom;
position = "{397, 2}";
},
{
name = candra;
position = "{763, 650}";
},
{
name = caret_1;
position = "{396, 30}";
},
{
name = nukta;
position = "{92, -18}";
},
{
name = top;
position = "{532, 670}";
}
);
layerId = "56A87FB8-163D-4578-80C9-082B510993A7";
paths = (
{
closed = 1;
nodes = (
"537 -13 OFFCURVE",
"620 71 OFFCURVE",
"620 165 CURVE SMOOTH",
"620 250 OFFCURVE",
"552 338 OFFCURVE",
"409 368 CURVE",
"417 307 LINE",
"570 362 OFFCURVE",
"627 463 OFFCURVE",
"627 598 CURVE",
"481 621 LINE",
"481 502 OFFCURVE",
"436 417 OFFCURVE",
"270 417 CURVE SMOOTH",
"132 417 LINE",
"132 305 LINE",
"316 305 LINE SMOOTH",
"423 305 OFFCURVE",
"471 245 OFFCURVE",
"471 192 CURVE SMOOTH",
"471 148 OFFCURVE",
"437 115 OFFCURVE",
"379 115 CURVE SMOOTH",
"225 115 OFFCURVE",
"187 356 OFFCURVE",
"188 534 CURVE SMOOTH",
"188 685 OFFCURVE",
"218 825 OFFCURVE",
"372 825 CURVE SMOOTH",
"400 825 OFFCURVE",
"449 820 OFFCURVE",
"494 810 CURVE",
"524 928 LINE",
"471 942 OFFCURVE",
"410 949 OFFCURVE",
"362 949 CURVE SMOOTH",
"115 949 OFFCURVE",
"44 770 OFFCURVE",
"44 544 CURVE SMOOTH",
"44 268 OFFCURVE",
"143 -13 OFFCURVE",
"399 -13 CURVE SMOOTH"
);
},
{
closed = 1;
nodes = (
"685 564 LINE",
"685 691 LINE",
"-17 691 LINE",
"-17 564 LINE"
);
}
);
width = 668;
}
);
leftMetricsKey = "ura-gurmukhi";
rightMetricsKey = "ura-gurmukhi";
unicode = 0A13;
},
{
glyphname = "ka-gurmukhi";
layers = (
{
anchors = (
{
name = bindu;
position = "{556, 682}";
},
{
name = bottom;
position = "{581, 0}";
},
{
name = candra;
position = "{556, 692}";
},
{
name = caret_1;
position = "{341, 3}";
},
{
name = nukta;
position = "{113, -35}";
},
{
name = top;
position = "{560, 672}";
}
);
layerId = "56A87FB8-163D-4578-80C9-082B510993A7";
paths = (
{
closed = 1;
nodes = (
"656 0 LINE",
"656 13 LINE SMOOTH",
"656 103 OFFCURVE",
"622 214 OFFCURVE",
"560 308 CURVE",
"563 256 LINE",
"612 351 OFFCURVE",
"633 462 OFFCURVE",
"633 551 CURVE SMOOTH",
"633 588 LINE",
"491 588 LINE",
"491 556 LINE SMOOTH",
"491 506 OFFCURVE",
"484 456 OFFCURVE",
"469 410 CURVE",
"413 463 OFFCURVE",
"337 494 OFFCURVE",
"254 494 CURVE SMOOTH",
"101 494 OFFCURVE",
"27 387 OFFCURVE",
"27 287 CURVE SMOOTH",
"27 170 OFFCURVE",
"129 58 OFFCURVE",
"285 58 CURVE SMOOTH",
"384 58 OFFCURVE",
"451 101 OFFCURVE",
"502 167 CURVE",
"476.007 176 LINE",
"496 124 OFFCURVE",
"504 68 OFFCURVE",
"504 17 CURVE SMOOTH",
"504 0 LINE"
);
},
{
closed = 1;
nodes = (
"217 187 OFFCURVE",
"180 229 OFFCURVE",
"180 276 CURVE SMOOTH",
"180 324 OFFCURVE",
"216 366 OFFCURVE",
"284 366 CURVE SMOOTH",
"351 366 OFFCURVE",
"409 327 OFFCURVE",
"448 260 CURVE",
"446 314 LINE",
"412 233 OFFCURVE",
"356 187 OFFCURVE",
"285 187 CURVE SMOOTH"
);
},
{
closed = 1;
nodes = (
"708 564 LINE",
"708 691 LINE",
"0 691 LINE",
"0 564 LINE"
);
}
);
width = 708;
}
);
leftMetricsKey = "ra-gurmukhi";
rightMetricsKey = "STEM-GURM";
unicode = 0A15;
},
{
glyphname = "kha-gurmukhi";
layers = (
{
anchors = (
{
name = bindu;
position = "{523, 680}";
},
{
name = bottom;
position = "{545, 0}";
},
{
name = candra;
position = "{523, 690}";
},
{
name = caret_1;
position = "{332, 30}";
},
{
name = nukta;
position = "{99, 9}";
},
{
name = top;
position = "{523, 670}";
}
);
components = (
{
name = "pa-gurmukhi";
}
);
layerId = "56A87FB8-163D-4578-80C9-082B510993A7";
paths = (
{
closed = 1;
nodes = (
"535 362 LINE",
"535 489 LINE",
"187 489 LINE",
"189 362 LINE"
);
}
);
width = 694;
}
);
leftMetricsKey = "pa-gurmukhi";
rightMetricsKey = "pa-gurmukhi";
unicode = 0A16;
},
{
glyphname = "ga-gurmukhi";
layers = (
{
anchors = (
{
name = bindu;
position = "{687, 682}";
},
{
name = bottom;
position = "{709, 0}";
},
{
name = candra;
position = "{687, 690}";
},
{
name = caret_1;
position = "{454, 30}";
},
{
name = nukta;
position = "{60, -26}";
},
{
name = top;
position = "{707, 672}";
}
);
layerId = "56A87FB8-163D-4578-80C9-082B510993A7";
paths = (
{
closed = 1;
nodes = (
"443 -13 OFFCURVE",
"527 40 OFFCURVE",
"527 159 CURVE SMOOTH",
"527 629 LINE",
"376 629 LINE",
"376 405 LINE",
"416 449 LINE",
"222 449 LINE SMOOTH",
"103 449 OFFCURVE",
"28 381 OFFCURVE",
"28 268 CURVE SMOOTH",
"28 110 OFFCURVE",
"203 -13 OFFCURVE",
"343 -13 CURVE SMOOTH"
);
},
{
closed = 1;
nodes = (
"249 114 OFFCURVE",
"181 179 OFFCURVE",
"181 249 CURVE SMOOTH",
"181 292 OFFCURVE",
"205 322 OFFCURVE",
"254 322 CURVE SMOOTH",
"417 322 LINE",
"377 345 LINE",
"376 177 LINE SMOOTH",
"376 142 OFFCURVE",
"370 114 OFFCURVE",
"323 114 CURVE SMOOTH"
);
},
{
closed = 1;
nodes = (
"665 564 LINE",
"665 691 LINE",
"0 691 LINE",
"0 564 LINE"
);
},
{
closed = 1;
nodes = (
"783 0 LINE",
"783 626 LINE",
"745 564 LINE",
"858 564 LINE",
"858 691 LINE",
"632 691 LINE",
"632 0 LINE"
);
}
);
width = 858;
}
);
leftMetricsKey = "ra-gurmukhi";
rightMetricsKey = "STEM-GURM";
unicode = 0A17;
},
{
glyphname = "gha-gurmukhi";
layers = (
{
anchors = (
{
name = bindu;
position = "{714, 680}";
},
{
name = bottom;
position = "{736, 0}";
},
{
name = candra;
position = "{714, 690}";
},
{
name = caret_1;
position = "{453, 30}";
},
{
name = nukta;
position = "{100, 0}";
},
{
name = top;
position = "{714, 670}";
}
);
layerId = "56A87FB8-163D-4578-80C9-082B510993A7";
paths = (
{
closed = 1;
nodes = (
"362 92 OFFCURVE",
"418 116 OFFCURVE",
"453 164 CURVE",
"413 166 LINE",
"456 118 OFFCURVE",
"514 92 OFFCURVE",
"574 92 CURVE SMOOTH",
"641 92 OFFCURVE",
"687 109 OFFCURVE",
"723 139 CURVE",
"694 315 LINE",
"665 240 OFFCURVE",
"610 219 OFFCURVE",
"573 219 CURVE SMOOTH",
"522 219 OFFCURVE",
"495 245 OFFCURVE",
"484 272 CURVE",
"484 223 LINE",
"524 305 OFFCURVE",
"540 384 OFFCURVE",
"540 461 CURVE SMOOTH",
"540 519 OFFCURVE",
"532 575 OFFCURVE",
"519 632 CURVE",
"383 632 LINE",
"383 278 LINE",
"357 232 OFFCURVE",
"312 219 OFFCURVE",
"281 219 CURVE SMOOTH",
"217 219 OFFCURVE",
"190 255 OFFCURVE",
"182 290 CURVE",
"169 258 LINE",
"228 290 OFFCURVE",
"284 350 OFFCURVE",
"284 448 CURVE SMOOTH",
"284 559 OFFCURVE",
"195 691 OFFCURVE",
"28 691 CURVE SMOOTH",
"0 691 LINE",
"0 564 LINE",
"34 564 LINE SMOOTH",
"106 564 OFFCURVE",
"136 517 OFFCURVE",
"136 461 CURVE SMOOTH",
"136 401 OFFCURVE",
"102 361 OFFCURVE",
"42 322 CURVE",
"63 171 OFFCURVE",
"176 92 OFFCURVE",
"282 92 CURVE SMOOTH"
);
},
{
closed = 1;
nodes = (
"811 0 LINE",
"811 626 LINE",
"773 564 LINE",
"886 564 LINE",
"886 691 LINE",
"660 691 LINE",
"660 0 LINE"
);
}
);
width = 886;
}
);
leftMetricsKey = "pa-gurmukhi";
rightMetricsKey = "STEM-GURM";
unicode = 0A18;
},
{
glyphname = "nga-gurmukhi";
layers = (
{
anchors = (
{
name = bindu;
position = "{501, 680}";
},
{
name = bottom;
position = "{311, 0}";
},
{
name = candra;
position = "{501, 690}";
},
{
name = caret_1;
position = "{312, 30}";
},
{
name = nukta;
position = "{86, -82}";
},
{
name = top;
position = "{501, 670}";
}
);
layerId = "56A87FB8-163D-4578-80C9-082B510993A7";
paths = (
{
closed = 1;
nodes = (
"462 168 LINE",
"410 240 OFFCURVE",
"313 288 OFFCURVE",
"202 288 CURVE SMOOTH",
"103 288 OFFCURVE",
"35 245 OFFCURVE",
"35 165 CURVE SMOOTH",
"35 63 OFFCURVE",
"144 -13 OFFCURVE",
"302 -13 CURVE SMOOTH",
"507 -13 OFFCURVE",
"615 113 OFFCURVE",
"615 239 CURVE SMOOTH",
"615 361 OFFCURVE",
"514 476 OFFCURVE",
"325 476 CURVE SMOOTH",
"247 476 LINE",
"247 628 LINE",
"96 628 LINE",
"96 350 LINE",
"336 350 LINE SMOOTH",
"429 350 OFFCURVE",
"468 299 OFFCURVE",
"468 244 CURVE SMOOTH",
"468 174 OFFCURVE",
"404 96 OFFCURVE",
"286 96 CURVE SMOOTH",
"217 96 OFFCURVE",
"170 123 OFFCURVE",
"170 156 CURVE SMOOTH",
"170 177 OFFCURVE",
"192 190 OFFCURVE",
"231 190 CURVE SMOOTH",
"289 190 OFFCURVE",
"355 159 OFFCURVE",
"393 108 CURVE"
);
},
{
closed = 1;
nodes = (
"648 564 LINE",
"648 691 LINE",
"0 691 LINE",
"0 564 LINE"
);
}
);
width = 648;
}
);
rightMetricsKey = "ttha-gurmukhi";
unicode = 0A19;
},
{
glyphname = "ca-gurmukhi";
layers = (
{
anchors = (
{
name = bindu;
position = "{548, 680}";
},
{
name = bottom;
position = "{456, 0}";
},
{
name = candra;
position = "{548, 690}";
},
{
name = caret_1;
position = "{446, 30}";
},
{
name = nukta;
position = "{104, 0}";
},
{
name = top;
position = "{568, 670}";
}
);
layerId = "56A87FB8-163D-4578-80C9-082B510993A7";
paths = (
{
closed = 1;
nodes = (
"555 -13 OFFCURVE",
"647 42 OFFCURVE",
"647 166 CURVE",
"647 627 LINE",
"496 627 LINE",
"496 187 LINE",
"496 145 OFFCURVE",
"489 115 OFFCURVE",
"437 115 CURVE SMOOTH",
"348 115 OFFCURVE",
"275 200 OFFCURVE",
"275 291 CURVE",
"121 311 LINE",
"121 126 OFFCURVE",
"308 -13 OFFCURVE",
"456 -13 CURVE SMOOTH"
);
},
{
closed = 1;
nodes = (
"271 384 LINE",
"245 450 OFFCURVE",
"132 454 OFFCURVE",
"40 444 CURVE",
"17 324 LINE",
"74 285 OFFCURVE",
"152 280 OFFCURVE",
"212 292 CURVE"
);
},
{
closed = 1;
nodes = (
"518 287 LINE",
"518 414 LINE",
"151 414 LINE",
"151 287 LINE"
);
},
{
closed = 1;
nodes = (
"722 564 LINE",
"722 691 LINE",
"0 691 LINE",
"0 564 LINE"
);
}
);
width = 722;
}
);
leftMetricsKey = "da-gurmukhi";
rightMetricsKey = "STEM-GURM";
unicode = 0A1A;
},
{
glyphname = "cha-gurmukhi";
layers = (
{
anchors = (
{
name = bindu;
position = "{487, 680}";
},
{
name = bottom;
position = "{341, 2}";
},
{
name = candra;
position = "{487, 690}";
},
{
name = caret_1;
position = "{341, 30}";
},
{
name = nukta;
position = "{86, -82}";
},
{
name = top;
position = "{507, 670}";
}
);
layerId = "56A87FB8-163D-4578-80C9-082B510993A7";
paths = (
{
closed = 1;
nodes = (
"519 -13 OFFCURVE",
"650 39 OFFCURVE",
"650 154 CURVE SMOOTH",
"650 270 OFFCURVE",
"499 316 OFFCURVE",
"340 316 CURVE SMOOTH",
"316 316 OFFCURVE",
"292 316 OFFCURVE",
"269 316 CURVE SMOOTH",
"237 316 OFFCURVE",
"215 329 OFFCURVE",
"215 350 CURVE SMOOTH",
"215 364 OFFCURVE",
"224 384 OFFCURVE",
"258 384 CURVE SMOOTH",
"584 384 LINE",
"584 626 LINE",
"433 626 LINE",
"433 503 LINE",
"224 503 LINE SMOOTH",
"122 503 OFFCURVE",
"62 456 OFFCURVE",
"62 394 CURVE SMOOTH",
"62 343 OFFCURVE",
"94 308 OFFCURVE",
"139 286 CURVE",
"69 261 OFFCURVE",
"28 217 OFFCURVE",
"28 155 CURVE SMOOTH",
"28 41 OFFCURVE",
"168 -13 OFFCURVE",
"342 -13 CURVE SMOOTH"
);
},
{
closed = 1;
nodes = (
"241 102 OFFCURVE",
"174 108 OFFCURVE",
"174 153 CURVE SMOOTH",
"174 195 OFFCURVE",
"231 202 OFFCURVE",
"320 202 CURVE SMOOTH",
"431 202 OFFCURVE",
"505 199 OFFCURVE",
"505 152 CURVE SMOOTH",
"505 108 OFFCURVE",
"439 102 OFFCURVE",
"340 102 CURVE SMOOTH"
);
},
{
closed = 1;
nodes = (
"377 85 LINE",
"377 214 LINE",
"301 214 LINE",
"301 85 LINE"
);
},
{
closed = 1;
nodes = (
"679 564 LINE",
"679 691 LINE",
"0 691 LINE",
"0 564 LINE"
);
}
);
width = 679;
}
);
leftMetricsKey = "ttha-gurmukhi";
rightMetricsKey = "ttha-gurmukhi";
unicode = 0A1B;
},
{
glyphname = "ja-gurmukhi";
layers = (
{
anchors = (
{
name = bindu;
position = "{558, 680}";
},
{
name = bottom;
position = "{580, 0}";
},
{
name = candra;
position = "{558, 690}";
},
{
name = caret_1;
position = "{395, 30}";
},
{
name = nukta;
position = "{395, -105}";
},
{
name = top;
position = "{578, 670}";
}
);
layerId = "56A87FB8-163D-4578-80C9-082B510993A7";
paths = (
{
closed = 1;
nodes = (
"282 51 OFFCURVE",
"287 103 OFFCURVE",
"290 155 CURVE SMOOTH",
"292 189 OFFCURVE",
"293 222 OFFCURVE",
"293 255 CURVE",
"543 255 LINE",
"543 381 LINE",
"248 381 LINE",
"205 417 OFFCURVE",
"139 431 OFFCURVE",
"66 442 CURVE",
"19 328 LINE",
"49 300 OFFCURVE",
"97 276 OFFCURVE",
"149 264 CURVE",
"149 234 OFFCURVE",
"146 204 OFFCURVE",
"144 174 CURVE SMOOTH",
"139 121 OFFCURVE",
"132 67 OFFCURVE",
"124 16 CURVE",
"124 1 LINE",
"275 0 LINE"
);
},
{
closed = 1;
nodes = (
"630 564 LINE",
"630 691 LINE",
"0 691 LINE",
"0 564 LINE"
);
},
{
closed = 1;
nodes = (
"654 0 LINE",
"654 626 LINE",
"616 564 LINE",
"729 564 LINE",
"729 691 LINE",
"503 691 LINE",
"503 0 LINE"
);
}
);
width = 729;
}
);
leftMetricsKey = "da-gurmukhi";
rightMetricsKey = "STEM-GURM";
unicode = 0A1C;
},
{
glyphname = "jha-gurmukhi";
layers = (
{
anchors = (
{
name = bindu;
position = "{519, 680}";
},
{
name = bottom;
position = "{238, -74}";
},
{
name = candra;
position = "{519, 690}";
},
{
name = caret_1;
position = "{333, -18}";
},
{
name = nukta;
position = "{59, -32}";
},
{
name = top;
position = "{543, 670}";
}
);
layerId = "56A87FB8-163D-4578-80C9-082B510993A7";
paths = (
{
closed = 1;
nodes = (
"315 -74 LINE",
"331 64 LINE",
"293 23 LINE",
"305 23 OFFCURVE",
"317 22 OFFCURVE",
"328 22 CURVE SMOOTH",
"514 22 OFFCURVE",
"614 112 OFFCURVE",
"614 217 CURVE SMOOTH",
"614 293 OFFCURVE",
"562 354 OFFCURVE",
"443 397 CURVE",
"449 362 LINE",
"561 393 OFFCURVE",
"614 483 OFFCURVE",
"617 580 CURVE",
"469 584 LINE",
"457 486 OFFCURVE",
"389 438 OFFCURVE",
"327 438 CURVE SMOOTH",
"266 438 OFFCURVE",
"209 483 OFFCURVE",
"210 586 CURVE",
"58 578 LINE",
"62 522 OFFCURVE",
"94 476 OFFCURVE",
"140 439 CURVE",
"75 439 LINE",
"79 334 LINE",
"320 334 LINE SMOOTH",
"422 334 OFFCURVE",
"467 292 OFFCURVE",
"467 243 CURVE SMOOTH",
"467 195 OFFCURVE",
"423 141 OFFCURVE",
"307 141 CURVE SMOOTH",
"289 141 OFFCURVE",
"270 142 OFFCURVE",
"251 145 CURVE",
"306 133 LINE",
"279 169 OFFCURVE",
"233 188 OFFCURVE",
"196 200 CURVE SMOOTH",
"162 210 OFFCURVE",
"126 217 OFFCURVE",
"94 220 CURVE",
"48 114 LINE",
"78 81 OFFCURVE",
"126 54 OFFCURVE",
"175 40 CURVE",
"163 -60 LINE",
"163 -74 LINE"
);
},
{
closed = 1;
nodes = (
"665 564 LINE",
"665 691 LINE",
"0 691 LINE",
"0 564 LINE"
);
}
);
width = 665;
}
);
leftMetricsKey = "ta-gurmukhi";
rightMetricsKey = "ta-gurmukhi";
unicode = 0A1D;
},
{
glyphname = "nya-gurmukhi";
layers = (
{
anchors = (
{
name = bindu;
position = "{474, 680}";
},
{
name = bottom;
position = "{407, 0}";
},
{
name = candra;
position = "{474, 690}";
},
{
name = caret_1;
position = "{392, 30}";
},
{
name = nukta;
position = "{102, -39}";
},
{
name = top;
position = "{494, 670}";
}
);
components = (
{
name = "va-gurmukhi";
}
);
layerId = "56A87FB8-163D-4578-80C9-082B510993A7";
paths = (
{
closed = 1;
nodes = (
"365 489 LINE",
"264 489 OFFCURVE",
"198 528 OFFCURVE",
"196 588 CURVE",
"44 594 LINE",
"44 508 OFFCURVE",
"177 439 OFFCURVE",
"357 439 CURVE"
);
}
);
width = 645;
}
);
leftMetricsKey = "va-gurmukhi";
rightMetricsKey = "va-gurmukhi";
unicode = 0A1E;
},
{
glyphname = "tta-gurmukhi";
layers = (
{
anchors = (
{
name = bindu;
position = "{484, 680}";
},
{
name = bottom;
position = "{381, 0}";
},
{
name = candra;
position = "{484, 690}";
},
{
name = caret_1;
position = "{378, 30}";
},
{
name = nukta;
position = "{87, -35}";
},
{
name = top;
position = "{464, 670}";
}
);
layerId = "56A87FB8-163D-4578-80C9-082B510993A7";
paths = (
{
closed = 1;
nodes = (
"459 -13 OFFCURVE",
"528 2 OFFCURVE",
"584 28 CURVE",
"553 148 LINE",
"499 128 OFFCURVE",
"436 115 OFFCURVE",
"378 115 CURVE SMOOTH",
"266 115 OFFCURVE",
"183 164 OFFCURVE",
"159 249 CURVE",
"158 184 LINE",
"192 257 OFFCURVE",
"283 332 OFFCURVE",
"491 333 CURVE",
"542 333 LINE",
"542 629 LINE",
"390 629 LINE",
"390 389 LINE",
"444 460 LINE",
"218 457 OFFCURVE",
"83 353 OFFCURVE",
"28 251 CURVE",
"69 79 OFFCURVE",
"227 -13 OFFCURVE",
"392 -13 CURVE SMOOTH"
);
},
{
closed = 1;
nodes = (
"617 564 LINE",
"617 691 LINE",
"0 691 LINE",
"0 564 LINE"
);
}
);
width = 617;
}
);
leftMetricsKey = "ra-gurmukhi";
rightMetricsKey = "STEM-GURM";
unicode = 0A1F;
},
{
glyphname = "ttha-gurmukhi";
layers = (
{
anchors = (
{
name = bindu;
position = "{504, 680}";
},
{
name = bottom;
position = "{332, 2}";
},
{
name = candra;
position = "{333, 690}";
},
{
name = caret_1;
position = "{332, 30}";
},
{
name = nukta;
position = "{45, -35}";
},
{
name = top;
position = "{504, 670}";
}
);
layerId = "56A87FB8-163D-4578-80C9-082B510993A7";
paths = (
{
closed = 1;
nodes = (
"496 -13 OFFCURVE",
"636 75 OFFCURVE",
"636 227 CURVE SMOOTH",
"636 378 OFFCURVE",
"488 462 OFFCURVE",
"333 462 CURVE SMOOTH",
"170 462 OFFCURVE",
"28 378 OFFCURVE",
"28 227 CURVE SMOOTH",
"28 75 OFFCURVE",
"178 -13 OFFCURVE",
"333 -13 CURVE SMOOTH"
);
},
{
closed = 1;
nodes = (
"246 115 OFFCURVE",
"181 159 OFFCURVE",
"181 225 CURVE SMOOTH",
"181 294 OFFCURVE",
"248 334 OFFCURVE",
"332 334 CURVE SMOOTH",
"416 334 OFFCURVE",
"483 294 OFFCURVE",
"483 225 CURVE SMOOTH",
"483 159 OFFCURVE",
"418 115 OFFCURVE",
"332 115 CURVE SMOOTH"
);
},
{
closed = 1;
nodes = (
"407 380 LINE",
"407 643 LINE",
"257 643 LINE",
"257 380 LINE"
);
},
{
closed = 1;
nodes = (
"665 564 LINE",
"665 691 LINE",
"0 691 LINE",
"0 564 LINE"
);
}
);
width = 665;
}
);
unicode = 0A20;
},
{
glyphname = "dda-gurmukhi";
layers = (
{
anchors = (
{
name = bindu;
position = "{494, 680}";
},
{
name = bottom;
position = "{303, 2}";
},
{
name = candra;
position = "{494, 690}";
},
{
name = caret_1;
position = "{291, 30}";
},
{
name = nukta;
position = "{70, -67}";
},
{
name = top;
position = "{474, 670}";
}
);
layerId = "56A87FB8-163D-4578-80C9-082B510993A7";
paths = (
{
closed = 1;
nodes = (
"475 -13 OFFCURVE",
"573 95 OFFCURVE",
"573 208 CURVE SMOOTH",
"573 286 OFFCURVE",
"525 365 OFFCURVE",
"416 403 CURVE",
"425 373 LINE",
"511 414 OFFCURVE",
"553 491 OFFCURVE",
"553 604 CURVE",
"402 605 LINE",
"402 528 OFFCURVE",
"379 478 OFFCURVE",
"296 466 CURVE",
"354 465 LINE",
"315 486 OFFCURVE",
"260 494 OFFCURVE",
"208 494 CURVE SMOOTH",
"166 494 OFFCURVE",
"123 488 OFFCURVE",
"91 477 CURVE",
"99 353 LINE",
"135 342 OFFCURVE",
"175.007 336.007 OFFCURVE",
"219 336 CURVE SMOOTH",
"267 336 OFFCURVE",
"322 343 OFFCURVE",
"368 356 CURVE",
"305 358 LINE",
"391 350 OFFCURVE",
"425 290 OFFCURVE",
"425 233 CURVE SMOOTH",
"425 165 OFFCURVE",
"377 96 OFFCURVE",
"279 96 CURVE SMOOTH",
"216 96 OFFCURVE",
"166 123 OFFCURVE",
"166 156 CURVE SMOOTH",
"166 178 OFFCURVE",
"190 189 OFFCURVE",
"224 189 CURVE SMOOTH",
"275 189 OFFCURVE",
"343 158 OFFCURVE",
"378 110 CURVE",
"433 179 LINE",
"388 242 OFFCURVE",
"292 287 OFFCURVE",
"191 287 CURVE SMOOTH",
"103 287 OFFCURVE",
"31 246 OFFCURVE",
"31 165 CURVE SMOOTH",
"31 63 OFFCURVE",
"143 -13 OFFCURVE",
"294 -13 CURVE SMOOTH"
);
},
{
closed = 1;
nodes = (
"609 564 LINE",
"609 691 LINE",
"0 691 LINE",
"0 564 LINE"
);
}
);
width = 609;
}
);
leftMetricsKey = "ta-gurmukhi";
rightMetricsKey = "ta-gurmukhi";
unicode = 0A21;
},
{
glyphname = "ddha-gurmukhi";
layers = (
{
anchors = (
{
name = bindu;
position = "{568, 680}";
},
{
name = bottom;
position = "{453, 0}";
},
{
name = candra;
position = "{568, 690}";
},
{
name = caret_1;
position = "{431, 30}";
},
{
name = nukta;
position = "{108, 0}";
},
{
name = top;
position = "{548, 670}";
}
);
layerId = "56A87FB8-163D-4578-80C9-082B510993A7";
paths = (
{
closed = 1;
nodes = (
"608 -12 OFFCURVE",
"692 67 OFFCURVE",
"692 154 CURVE SMOOTH",
"692 244 OFFCURVE",
"604 292 OFFCURVE",
"501 292 CURVE SMOOTH",
"401 292 OFFCURVE",
"298 252 OFFCURVE",
"257 178 CURVE",
"314 114 LINE",
"350 163 OFFCURVE",
"426 193 OFFCURVE",
"487 193 CURVE SMOOTH",
"529 193 OFFCURVE",
"557 180 OFFCURVE",
"557 155 CURVE SMOOTH",
"557 123 OFFCURVE",
"511 96 OFFCURVE",
"425 96 CURVE SMOOTH",
"322 96 OFFCURVE",
"255 156 OFFCURVE",
"255 260 CURVE SMOOTH",
"255 382 LINE",
"219 342 LINE",
"626 342 LINE",
"626 661 LINE",
"475 661 LINE",
"475 455 LINE",
"194 455 LINE",
"256 440 LINE",
"216 471 OFFCURVE",
"139 487 OFFCURVE",
"40 488 CURVE",
"17 366 LINE",
"48 349 OFFCURVE",
"84 339 OFFCURVE",
"123 335 CURVE",
"123 274 LINE SMOOTH",
"123 109 OFFCURVE",
"270 -12 OFFCURVE",
"443 -12 CURVE SMOOTH"
);
},
{
closed = 1;
nodes = (
"720 564 LINE",
"720 691 LINE",
"0 691 LINE",
"0 564 LINE"
);
}
);
width = 720;
}
);
leftMetricsKey = "da-gurmukhi";
rightMetricsKey = "ttha-gurmukhi";
unicode = 0A22;
},
{
glyphname = "nna-gurmukhi";
layers = (
{
anchors = (
{
name = bindu;
position = "{458, 680}";
},
{
name = bottom;
position = "{401, 0}";
},
{
name = candra;
position = "{458, 690}";
},
{
name = caret_1;
position = "{380, 30}";
},
{
name = nukta;
position = "{89, -41}";
},
{
name = top;
position = "{458, 670}";
}
);
layerId = "56A87FB8-163D-4578-80C9-082B510993A7";
paths = (
{
closed = 1;
nodes = (
"463 -13 OFFCURVE",
"535 2 OFFCURVE",
"590 30 CURVE",
"557 149 LINE",
"500 129 OFFCURVE",
"433 115 OFFCURVE",
"369 115 CURVE SMOOTH",
"260 115 OFFCURVE",
"178 159 OFFCURVE",
"154 238 CURVE",
"153 166 LINE",
"183 211 OFFCURVE",
"260 252 OFFCURVE",
"418 256 CURVE",
"418 448 LINE",
"267 451 LINE",
"267 286 LINE",
"328 374 LINE",
"177 371 OFFCURVE",
"68 300 OFFCURVE",
"28 233 CURVE",
"67 72 OFFCURVE",
"226 -13 OFFCURVE",
"392 -13 CURVE SMOOTH"
);
},
{
closed = 1;
nodes = (
"573 459 LINE",
"371 467 OFFCURVE",
"294 522 OFFCURVE",
"293 612 CURVE",
"149 628 LINE",
"151 462 OFFCURVE",
"355 336 OFFCURVE",
"567 333 CURVE"
);
},
{
closed = 1;
nodes = (
"638 564 LINE",
"638 691 LINE",
"0 691 LINE",
"0 564 LINE"
);
}
);
width = 638;
}
);
leftMetricsKey = "ra-gurmukhi";
unicode = 0A23;
},
{
glyphname = "ta-gurmukhi";
layers = (
{
anchors = (
{
name = bindu;
position = "{488, 680}";
},
{
name = bottom;
position = "{288, 0}";
},
{
name = candra;
position = "{488, 690}";
},
{
name = caret_1;
position = "{270, 30}";
},
{
name = nukta;
position = "{76, -94}";
},
{
name = top;
position = "{468, 670}";
}
);
layerId = "56A87FB8-163D-4578-80C9-082B510993A7";
paths = (
{
closed = 1;
nodes = (
"459 -13 OFFCURVE",
"562 90 OFFCURVE",
"562 192 CURVE SMOOTH",
"562 264 OFFCURVE",
"509 336 OFFCURVE",
"392 361 CURVE",
"405 337 LINE",
"492 367 OFFCURVE",
"545 448 OFFCURVE",
"545 560 CURVE SMOOTH",
"545 598 LINE",
"394 599 LINE",
"394 569 LINE SMOOTH",
"394 493 OFFCURVE",
"367 431 OFFCURVE",
"288 417 CURVE",
"338 422 LINE",
"313 430 OFFCURVE",
"270 435 OFFCURVE",
"221 435 CURVE SMOOTH",
"176 435 OFFCURVE",
"125 431 OFFCURVE",
"83 422 CURVE",
"92 298 LINE",
"128 287 OFFCURVE",
"168 283 OFFCURVE",
"210 283 CURVE SMOOTH",
"258 283 OFFCURVE",
"309 290 OFFCURVE",
"354 300 CURVE",
"281 299 LINE",
"374 300 OFFCURVE",
"410 259 OFFCURVE",
"410 216 CURVE SMOOTH",
"410 165 OFFCURVE",
"357 115 OFFCURVE",
"253 115 CURVE SMOOTH",
"196 115 OFFCURVE",
"117 131 OFFCURVE",
"62 152 CURVE",
"31 32 LINE",
"93 6 OFFCURVE",
"185 -13 OFFCURVE",
"268 -13 CURVE SMOOTH"
);
},
{
closed = 1;
nodes = (
"603 564 LINE",
"603 691 LINE",
"0 691 LINE",
"0 564 LINE"
);
}
);
width = 603;
}
);
unicode = 0A24;
},
{
glyphname = "tha-gurmukhi";
layers = (
{
anchors = (
{
name = bindu;
position = "{523, 680}";
},
{
name = bottom;
position = "{545, 0}";
},
{
name = candra;
position = "{523, 690}";
},
{
name = caret_1;
position = "{316, 30}";
},
{
name = nukta;
position = "{100, 0}";
},
{
name = top;
position = "{543, 670}";
}
);
components = (
{
name = "dha-gurmukhi";
}
);
layerId = "56A87FB8-163D-4578-80C9-082B510993A7";
paths = (
{
closed = 1;
nodes = (
"543 362 LINE",
"543 440 LINE",
"181 440 LINE",
"181 362 LINE"
);
}
);
width = 694;
}
);
leftMetricsKey = "pa-gurmukhi";
rightMetricsKey = "pa-gurmukhi";
unicode = 0A25;
},
{
glyphname = "da-gurmukhi";
layers = (
{
anchors = (
{
name = bindu;
position = "{559, 680}";
},
{
name = bottom;
position = "{451, 0}";
},
{
name = candra;
position = "{559, 690}";
},
{
name = caret_1;
position = "{452, 30}";
},
{
name = nukta;
position = "{115, 0}";
},
{
name = top;
position = "{539, 670}";
}
);
layerId = "56A87FB8-163D-4578-80C9-082B510993A7";
paths = (
{
closed = 1;
nodes = (
"531 -13 OFFCURVE",
"595 3 OFFCURVE",
"644 28 CURVE",
"613 148 LINE",
"561 129 OFFCURVE",
"505 115 OFFCURVE",
"448 115 CURVE SMOOTH",
"343 115 OFFCURVE",
"266 158 OFFCURVE",
"266 259 CURVE SMOOTH",
"266 351 LINE",
"227 311 LINE",
"617 311 LINE",
"617 629 LINE",
"466 629 LINE",
"466 437 LINE",
"202 437 LINE",
"266 421 LINE",
"220 455 OFFCURVE",
"156 473 OFFCURVE",
"42 473 CURVE",
"18 353 LINE",
"46 338 OFFCURVE",
"83 327 OFFCURVE",
"123 321 CURVE",
"123 274 LINE SMOOTH",
"123 104 OFFCURVE",
"279 -13 OFFCURVE",
"460 -13 CURVE SMOOTH"
);
},
{
closed = 1;
nodes = (
"692 564 LINE",
"692 691 LINE",
"0 691 LINE",
"0 564 LINE"
);
}
);
width = 692;
}
);
rightMetricsKey = "STEM-GURM";
unicode = 0A26;
},
{
glyphname = "dha-gurmukhi";
layers = (
{
anchors = (
{
name = bindu;
position = "{523, 680}";
},
{
name = bottom;
position = "{545, 0}";
},
{
name = candra;
position = "{523, 690}";
},
{
name = caret_1;
position = "{316, 30}";
},
{
name = nukta;
position = "{100, 0}";
},
{
name = top;
position = "{543, 670}";
}
);
components = (
{
name = "pa-gurmukhi";
}
);
layerId = "56A87FB8-163D-4578-80C9-082B510993A7";
paths = (
{
closed = 1;
nodes = (
"603 564 LINE",
"603 691 LINE",
"8 691 LINE",
"8 564 LINE"
);
}
);
width = 694;
}
);
leftMetricsKey = "pa-gurmukhi";
rightMetricsKey = "pa-gurmukhi";
unicode = 0A27;
},
{
glyphname = "na-gurmukhi";
layers = (
{
anchors = (
{
name = bindu;
position = "{504, 680}";
},
{
name = bottom;
position = "{417, 4}";
},
{
name = candra;
position = "{333, 690}";
},
{
name = caret_1;
position = "{332, 30}";
},
{
name = nukta;
position = "{43, -35}";
},
{
name = top;
position = "{504, 670}";
}
);
layerId = "56A87FB8-163D-4578-80C9-082B510993A7";
paths = (
{
closed = 1;
nodes = (
"286 119 LINE",
"224 130 OFFCURVE",
"181 169 OFFCURVE",
"181 225 CURVE SMOOTH",
"181 295 OFFCURVE",
"248 334 OFFCURVE",
"332 334 CURVE SMOOTH",
"416 334 OFFCURVE",
"483 295 OFFCURVE",
"483 225 CURVE SMOOTH",
"483 171 OFFCURVE",
"441 132 OFFCURVE",
"379 119 CURVE",
"393 -9 LINE",
"529 8 OFFCURVE",
"636 93 OFFCURVE",
"636 225 CURVE SMOOTH",
"636 379 OFFCURVE",
"490 462 OFFCURVE",
"331 462 CURVE SMOOTH",
"172 462 OFFCURVE",
"28 379 OFFCURVE",
"28 227 CURVE SMOOTH",
"28 93 OFFCURVE",
"140 12 OFFCURVE",
"272 -9 CURVE"
);
},
{
closed = 1;
nodes = (
"407 380 LINE",
"407 645 LINE",
"257 645 LINE",
"257 380 LINE"
);
},
{
closed = 1;
nodes = (
"665 564 LINE",
"665 691 LINE",
"0 691 LINE",
"0 564 LINE"
);
}
);
width = 665;
}
);
leftMetricsKey = "ttha-gurmukhi";
rightMetricsKey = "ttha-gurmukhi";
unicode = 0A28;
},
{
glyphname = "pa-gurmukhi";
layers = (
{
anchors = (
{
name = bindu;
position = "{523, 680}";
},
{
name = bottom;
position = "{545, 0}";
},
{
name = candra;
position = "{523, 690}";
},
{
name = caret_1;
position = "{316, 30}";
},
{
name = nukta;
position = "{100, 0}";
},
{
name = top;
position = "{523, 670}";
}
);
layerId = "56A87FB8-163D-4578-80C9-082B510993A7";
paths = (
{
closed = 1;
nodes = (
"400 92 OFFCURVE",
"462 110 OFFCURVE",
"509 140 CURVE",
"480 315 LINE",
"440 241 OFFCURVE",
"363 219 OFFCURVE",
"310 219 CURVE SMOOTH",
"203 219 OFFCURVE",
"183 280 OFFCURVE",
"177 315 CURVE",
"140 242 LINE",
"204 271 OFFCURVE",
"284 332 OFFCURVE",
"284 448 CURVE SMOOTH",
"284 559 OFFCURVE",
"195 691 OFFCURVE",
"28 691 CURVE SMOOTH",
"0 691 LINE",
"0 564 LINE",
"34 564 LINE SMOOTH",
"106 564 OFFCURVE",
"136 517 OFFCURVE",
"136 461 CURVE SMOOTH",
"136 401 OFFCURVE",
"102 361 OFFCURVE",
"42 322 CURVE",
"66 171 OFFCURVE",
"191 92 OFFCURVE",
"312 92 CURVE SMOOTH"
);
},
{
closed = 1;
nodes = (
"619 0 LINE",
"619 626 LINE",
"581 564 LINE",
"694 564 LINE",
"694 691 LINE",
"468 691 LINE",
"468 0 LINE"
);
}
);
width = 694;
}
);
leftMetricsKey = "ma-gurmukhi";
rightMetricsKey = "STEM-GURM";
unicode = 0A2A;
},
{
glyphname = "pha-gurmukhi";
layers = (
{
anchors = (
{
name = bindu;
position = "{485, 680}";
},
{
name = bottom;
position = "{369, 0}";
},
{
name = candra;
position = "{485, 690}";
},
{
name = caret_1;
position = "{349, 30}";
},
{
name = nukta;
position = "{63, -35}";
},
{
name = top;
position = "{465, 670}";
}
);
layerId = "56A87FB8-163D-4578-80C9-082B510993A7";
paths = (
{
closed = 1;
nodes = (
"229 110 LINE",
"261 161 OFFCURVE",
"342 193 OFFCURVE",
"404 193 CURVE SMOOTH",
"446 193 OFFCURVE",
"474 180 OFFCURVE",
"474 155 CURVE SMOOTH",
"474 123 OFFCURVE",
"428 96 OFFCURVE",
"342 96 CURVE SMOOTH",
"252 96 OFFCURVE",
"156 145 OFFCURVE",
"156 229 CURVE SMOOTH",
"156 290 OFFCURVE",
"205 350 OFFCURVE",
"320 350 CURVE SMOOTH",
"543 350 LINE",
"543 629 LINE",
"392 629 LINE",
"392 477 LINE",
"306 477 LINE SMOOTH",
"116 477 OFFCURVE",
"29 366 OFFCURVE",
"29 249 CURVE SMOOTH",
"29 120 OFFCURVE",
"144 -12 OFFCURVE",
"360 -12 CURVE SMOOTH",
"525 -12 OFFCURVE",
"609 68 OFFCURVE",
"609 152 CURVE SMOOTH",
"609 244 OFFCURVE",
"519 291 OFFCURVE",
"414 291 CURVE SMOOTH",
"306 291 OFFCURVE",
"196 248 OFFCURVE",
"161 164 CURVE"
);
},
{
closed = 1;
nodes = (
"637 564 LINE",
"637 691 LINE",
"0 691 LINE",
"0 564 LINE"
);
}
);
width = 637;
}
);
leftMetricsKey = "ra-gurmukhi";
rightMetricsKey = "ttha-gurmukhi";
unicode = 0A2B;
},
{
glyphname = "ba-gurmukhi";
layers = (
{
anchors = (
{
name = bindu;
position = "{525, 680}";
},
{
name = bottom;
position = "{547, 0}";
},
{
name = candra;
position = "{525, 690}";
},
{
name = caret_1;
position = "{341, 30}";
},
{
name = nukta;
position = "{106, -44}";
},
{
name = top;
position = "{545, 670}";
}
);
layerId = "56A87FB8-163D-4578-80C9-082B510993A7";
paths = (
{
closed = 1;
nodes = (
"395 29 OFFCURVE",
"460 47 OFFCURVE",
"512 81 CURVE",
"495 250 LINE",
"446 177 OFFCURVE",
"374 157 OFFCURVE",
"311 157 CURVE SMOOTH",
"227 157 OFFCURVE",
"185 195 OFFCURVE",
"175 225 CURVE",
"173 194 LINE",
"210 257 OFFCURVE",
"298 315 OFFCURVE",
"479 317 CURVE SMOOTH",
"538 317 LINE",
"538 427 LINE",
"431 427 LINE SMOOTH",
"301 428 OFFCURVE",
"223 502 OFFCURVE",
"222 597 CURVE",
"71 603 LINE",
"71 507 OFFCURVE",
"144 417 OFFCURVE",
"259 375 CURVE",
"262 401 LINE",
"145 370 OFFCURVE",
"73 306 OFFCURVE",
"38 246 CURVE",
"82 99 OFFCURVE",
"210 29 OFFCURVE",
"333 29 CURVE SMOOTH"
);
},
{
closed = 1;
nodes = (
"561 564 LINE",
"561 691 LINE",
"0 691 LINE",
"0 564 LINE"
);
},
{
closed = 1;
nodes = (
"622 0 LINE",
"622 626 LINE",
"584 564 LINE",
"697 564 LINE",
"697 691 LINE",
"471 691 LINE",
"471 0 LINE"
);
}
);
width = 697;
}
);
leftMetricsKey = "ra-gurmukhi";
rightMetricsKey = "STEM-GURM";
unicode = 0A2C;
},
{
glyphname = "bha-gurmukhi";
layers = (
{
anchors = (
{
name = bindu;
position = "{493, 680}";
},
{
name = bottom;
position = "{283, 2}";
},
{
name = candra;
position = "{493, 690}";
},
{
name = caret_1;
position = "{274, 30}";
},
{
name = nukta;
position = "{60, -94}";
},
{
name = top;
position = "{473, 670}";
}
);
layerId = "56A87FB8-163D-4578-80C9-082B510993A7";
paths = (
{
closed = 1;
nodes = (
"459 -13 OFFCURVE",
"560 90 OFFCURVE",
"560 206 CURVE SMOOTH",
"560 268 OFFCURVE",
"530 331 OFFCURVE",
"472 384 CURVE",
"478 336 LINE",
"527 399 OFFCURVE",
"554 480 OFFCURVE",
"554 555 CURVE SMOOTH",
"554 595 LINE",
"407 595 LINE",
"407 565 LINE SMOOTH",
"407 506 OFFCURVE",
"399 466 OFFCURVE",
"375 428 CURVE",
"407 441 LINE",
"347 475 OFFCURVE",
"277 494 OFFCURVE",
"215 494 CURVE SMOOTH",
"123 494 OFFCURVE",
"39 450 OFFCURVE",
"39 354 CURVE SMOOTH",
"39 247 OFFCURVE",
"145 202 OFFCURVE",
"242 202 CURVE SMOOTH",
"322 202 OFFCURVE",
"383 233 OFFCURVE",
"434 283 CURVE",
"404 292 LINE",
"422 272 OFFCURVE",
"432 249 OFFCURVE",
"432 225 CURVE SMOOTH",
"432 163 OFFCURVE",
"370 115 OFFCURVE",
"257 115 CURVE SMOOTH",
"191 115 OFFCURVE",
"115 132 OFFCURVE",
"62 152 CURVE",
"31 32 LINE",
"93 6 OFFCURVE",
"185 -13 OFFCURVE",
"268 -13 CURVE SMOOTH"
);
},
{
closed = 1;
nodes = (
"200 316 OFFCURVE",
"165 327 OFFCURVE",
"165 354 CURVE SMOOTH",
"165 379 OFFCURVE",
"196 393 OFFCURVE",
"241 393 CURVE SMOOTH",
"288 393 OFFCURVE",
"338 378 OFFCURVE",
"370 344 CURVE",
"363 385 LINE",
"344 340 OFFCURVE",
"294 316 OFFCURVE",
"240 316 CURVE SMOOTH"
);
},
{
closed = 1;
nodes = (
"598 564 LINE",
"598 691 LINE",
"0 691 LINE",
"0 564 LINE"
);
}
);
width = 598;
}
);
leftMetricsKey = "ta-gurmukhi";
rightMetricsKey = "ta-gurmukhi";
unicode = 0A2D;
},
{
glyphname = "ma-gurmukhi";
layers = (
{
anchors = (
{
name = bindu;
position = "{545, 680}";
},
{
name = bottom;
position = "{567, 0}";
},
{
name = candra;
position = "{545, 690}";
},
{
name = caret_1;
position = "{355, 30}";
},
{
name = nukta;
position = "{314, 18}";
},
{
name = top;
position = "{545, 670}";
}
);
layerId = "56A87FB8-163D-4578-80C9-082B510993A7";
paths = (
{
closed = 1;
nodes = (
"235 124 OFFCURVE",
"286 283 OFFCURVE",
"286 414 CURVE SMOOTH",
"286 589 OFFCURVE",
"180 691 OFFCURVE",
"21 691 CURVE SMOOTH",
"0 691 LINE",
"0 564 LINE",
"34 564 LINE SMOOTH",
"116 564 OFFCURVE",
"144 498 OFFCURVE",
"144 426 CURVE SMOOTH",
"144 378 OFFCURVE",
"139 342 OFFCURVE",
"132 311 CURVE",
"161 353 LINE",
"68 294 OFFCURVE",
"53 157 OFFCURVE",
"54 64 CURVE",
"178 40 LINE"
);
},
{
closed = 1;
nodes = (
"543 222 LINE",
"543 348 LINE",
"203 348 LINE",
"194 222 LINE"
);
},
{
closed = 1;
nodes = (
"642 0 LINE",
"642 626 LINE",
"604 564 LINE",
"717 564 LINE",
"717 691 LINE",
"491 691 LINE",
"491 0 LINE"
);
}
);
width = 717;
}
);
rightMetricsKey = "STEM-GURM";
unicode = 0A2E;
},
{
glyphname = "ya-gurmukhi";
layers = (
{
anchors = (
{
name = bindu;
position = "{653, 680}";
},
{
name = bottom;
position = "{675, 0}";
},
{
name = candra;
position = "{653, 690}";
},
{
name = caret_1;
position = "{399, 30}";
},
{
name = nukta;
position = "{116, -9}";
},
{
name = top;
position = "{673, 670}";
}
);
layerId = "56A87FB8-163D-4578-80C9-082B510993A7";
paths = (
{
closed = 1;
nodes = (
"415 92 OFFCURVE",
"515 152 OFFCURVE",
"515 282 CURVE",
"515 326 LINE",
"475 292 LINE",
"617 292 LINE",
"617 419 LINE",
"376 419 LINE",
"376 306 LINE",
"376 234 OFFCURVE",
"320 219 OFFCURVE",
"285 219 CURVE SMOOTH",
"216 219 OFFCURVE",
"191 254 OFFCURVE",
"181 289 CURVE",
"169 257 LINE",
"228 291 OFFCURVE",
"284 350 OFFCURVE",
"284 448 CURVE SMOOTH",
"284 559 OFFCURVE",
"195 691 OFFCURVE",
"28 691 CURVE SMOOTH",
"0 691 LINE",
"0 564 LINE",
"34 564 LINE SMOOTH",
"106 564 OFFCURVE",
"136 517 OFFCURVE",
"136 461 CURVE SMOOTH",
"136 401 OFFCURVE",
"102 361 OFFCURVE",
"42 322 CURVE",
"64 171 OFFCURVE",
"181 92 OFFCURVE",
"293 92 CURVE SMOOTH"
);
},
{
closed = 1;
nodes = (
"641 564 LINE",
"641 691 LINE",
"6 691 LINE",
"6 564 LINE"
);
},
{
closed = 1;
nodes = (
"750 0 LINE",
"750 626 LINE",
"712 564 LINE",
"825 564 LINE",
"825 691 LINE",
"599 691 LINE",
"599 0 LINE"
);
}
);
width = 825;
}
);
leftMetricsKey = "pa-gurmukhi";
rightMetricsKey = "STEM-GURM";
unicode = 0A2F;
},
{
glyphname = "ra-gurmukhi";
layers = (
{
anchors = (
{
name = bindu;
position = "{458, 680}";
},
{
name = bottom;
position = "{372, 0}";
},
{
name = candra;
position = "{458, 690}";
},
{
name = caret_1;
position = "{360, 30}";
},
{
name = nukta;
position = "{63, -27}";
},
{
name = top;
position = "{478, 670}";
}
);
layerId = "56A87FB8-163D-4578-80C9-082B510993A7";
paths = (
{
closed = 1;
nodes = (
"473 -13 OFFCURVE",
"556 40 OFFCURVE",
"556 159 CURVE SMOOTH",
"556 630 LINE",
"405 630 LINE",
"405 405 LINE",
"445 449 LINE",
"222 449 LINE SMOOTH",
"103 449 OFFCURVE",
"28 381 OFFCURVE",
"28 268 CURVE SMOOTH",
"28 109 OFFCURVE",
"219 -13 OFFCURVE",
"372 -13 CURVE SMOOTH"
);
},
{
closed = 1;
nodes = (
"262 113 OFFCURVE",
"181 178 OFFCURVE",
"181 249 CURVE SMOOTH",
"181 292 OFFCURVE",
"205 323 OFFCURVE",
"254 323 CURVE SMOOTH",
"446 323 LINE",
"406 345 LINE",
"406 177 LINE SMOOTH",
"406 141 OFFCURVE",
"399 113 OFFCURVE",
"352 113 CURVE SMOOTH"
);
},
{
closed = 1;
nodes = (
"631 564 LINE",
"631 691 LINE",
"0 691 LINE",
"0 564 LINE"
);
}
);
width = 631;
}
);
rightMetricsKey = "STEM-GURM";
unicode = 0A30;
},
{
glyphname = "la-gurmukhi";
layers = (
{
anchors = (
{
name = bindu;
position = "{590, 680}";
},
{
name = bottom;
position = "{537, 21}";
},
{
name = candra;
position = "{370, 690}";
},
{
name = caret_1;
position = "{369, 30}";
},
{
name = nukta;
position = "{371, -35}";
},
{
name = top;
position = "{570, 670}";
}
);
layerId = "56A87FB8-163D-4578-80C9-082B510993A7";
paths = (
{
closed = 1;
nodes = (
"294 119 LINE",
"233 130 OFFCURVE",
"190 170 OFFCURVE",
"190 224 CURVE SMOOTH",
"190 266 OFFCURVE",
"215 297 OFFCURVE",
"255 316 CURVE",
"297 288 OFFCURVE",
"342 265 OFFCURVE",
"384 247 CURVE",
"422 267 OFFCURVE",
"460 287 OFFCURVE",
"494 311 CURVE",
"529 293 OFFCURVE",
"550 263 OFFCURVE",
"550 224 CURVE SMOOTH",
"550 171 OFFCURVE",
"508 131 OFFCURVE",
"447 119 CURVE",
"461 -9 LINE",
"596 7 OFFCURVE",
"703 90 OFFCURVE",
"703 215 CURVE SMOOTH",
"703 294 OFFCURVE",
"661 360 OFFCURVE",
"594 401 CURVE",
"631 448 OFFCURVE",
"653 506 OFFCURVE",
"653 581 CURVE",
"500 581 LINE",
"503 485 OFFCURVE",
"425 420 OFFCURVE",
"358 390 CURVE",
"297 420 OFFCURVE",
"240 473 OFFCURVE",
"242 582 CURVE",
"89 582 LINE",
"89 513 OFFCURVE",
"111 457 OFFCURVE",
"146 411 CURVE",
"80 371 OFFCURVE",
"37 309 OFFCURVE",
"37 226 CURVE SMOOTH",
"37 93 OFFCURVE",
"147 12 OFFCURVE",
"280 -9 CURVE"
);
},
{
closed = 1;
nodes = (
"739 564 LINE",
"739 691 LINE",
"0 691 LINE",
"0 564 LINE"
);
}
);
width = 739;
}
);
rightMetricsKey = "ta-gurmukhi";
unicode = 0A32;
},
{
glyphname = "va-gurmukhi";
layers = (
{
anchors = (
{
name = bindu;
position = "{474, 680}";
},
{
name = bottom;
position = "{418, 0}";
},
{
name = candra;
position = "{474, 690}";
},
{
name = caret_1;
position = "{392, 30}";
},
{
name = nukta;
position = "{102, -39}";
},
{
name = top;
position = "{494, 670}";
}
);
layerId = "56A87FB8-163D-4578-80C9-082B510993A7";
paths = (
{
closed = 1;
nodes = (
"528 199 LINE",
"532 303 LINE",
"236 303 LINE",
"199 303 OFFCURVE",
"180 323 OFFCURVE",
"180 343 CURVE SMOOTH",
"180 359 OFFCURVE",
"192 374 OFFCURVE",
"225 374 CURVE",
"570 374 LINE",
"570 621 LINE",
"419 621 LINE",
"419 454 LINE",
"459 489 LINE",
"191 489 LINE",
"85 489 OFFCURVE",
"34 428 OFFCURVE",
"34 363 CURVE SMOOTH",
"34 283 OFFCURVE",
"107 199 OFFCURVE",
"245 199 CURVE"
);
},
{
closed = 1;
nodes = (
"475 -13 OFFCURVE",
"531 -5 OFFCURVE",
"577 9 CURVE",
"546 128 LINE",
"501 120 OFFCURVE",
"453 113 OFFCURVE",
"401 113 CURVE SMOOTH",
"314 113 OFFCURVE",
"260 132 OFFCURVE",
"260 183 CURVE SMOOTH",
"260 200 OFFCURVE",
"260 218 OFFCURVE",
"260 237 CURVE",
"122 237 LINE",
"121 223 OFFCURVE",
"121 209 OFFCURVE",
"121 197 CURVE SMOOTH",
"121 67 OFFCURVE",
"236 -13 OFFCURVE",
"417 -13 CURVE SMOOTH"
);
},
{
closed = 1;
nodes = (
"645 564 LINE",
"645 691 LINE",
"0 691 LINE",
"0 564 LINE"
);
}
);
width = 645;
}
);
leftMetricsKey = "ra-gurmukhi";
unicode = 0A35;
},
{
glyphname = "sa-gurmukhi";
layers = (
{
anchors = (
{
name = bindu;
position = "{547.007, 680}";
},
{
name = bottom;
position = "{567, 0}";
},
{
name = candra;
position = "{547.007, 690}";
},
{
name = caret_1;
position = "{355, 30}";
},
{
name = nukta;
position = "{355, 35}";
},
{
name = top;
position = "{567, 670}";
}
);
components = (
{
name = "ma-gurmukhi";
}
);
layerId = "56A87FB8-163D-4578-80C9-082B510993A7";
paths = (
{
closed = 1;
nodes = (
"626 564 LINE",
"626 691 LINE",
"3 691 LINE",
"3 564 LINE"
);
}
);
width = 717;
}
);
leftMetricsKey = "ma-gurmukhi";
rightMetricsKey = "ma-gurmukhi";
unicode = 0A38;
},
{
glyphname = "ha-gurmukhi";
layers = (
{
anchors = (
{
name = bindu;
position = "{458, 680}";
},
{
name = bottom;
position = "{372, 0}";
},
{
name = candra;
position = "{458, 690}";
},
{
name = caret_1;
position = "{358, 30}";
},
{
name = nukta;
position = "{65, -27}";
},
{
name = top;
position = "{478, 670}";
}
);
layerId = "56A87FB8-163D-4578-80C9-082B510993A7";
paths = (
{
closed = 1;
nodes = (
"474 -13 OFFCURVE",
"556 40 OFFCURVE",
"556 159 CURVE",
"556 630 LINE",
"405 630 LINE",
"406 177 LINE",
"406 138 OFFCURVE",
"399 113 OFFCURVE",
"350 113 CURVE SMOOTH",
"275 113 OFFCURVE",
"181 167 OFFCURVE",
"181 252 CURVE SMOOTH",
"181 305 OFFCURVE",
"214 323 OFFCURVE",
"304 323 CURVE",
"289 449 LINE",
"116 449 OFFCURVE",
"28 398 OFFCURVE",
"28 273 CURVE SMOOTH",
"28 105 OFFCURVE",
"221 -13 OFFCURVE",
"368 -13 CURVE SMOOTH"
);
},
{
closed = 1;
nodes = (
"631 564 LINE",
"631 691 LINE",
"0 691 LINE",
"0 564 LINE"
);
}
);
width = 631;
}
);
rightMetricsKey = "STEM-GURM";
unicode = 0A39;
},
{
glyphname = "rra-gurmukhi";
layers = (
{
anchors = (
{
name = bindu;
position = "{488, 680}";
},
{
name = bottom;
position = "{322, 27}";
},
{
name = candra;
position = "{488, 690}";
},
{
name = caret_1;
position = "{322, 57}";
},
{
name = top;
position = "{468, 670}";
}
);
layerId = "56A87FB8-163D-4578-80C9-082B510993A7";
paths = (
{
closed = 1;
nodes = (
"164 0 LINE",
"164 36 LINE SMOOTH",
"164 60 OFFCURVE",
"175 71 OFFCURVE",
"196 71 CURVE SMOOTH",
"235 71 OFFCURVE",
"249 34 OFFCURVE",
"335 34 CURVE SMOOTH",
"368 34 OFFCURVE",
"401 38 OFFCURVE",
"423 50 CURVE",
"388 76 LINE",
"436 -1 LINE",
"564 0 LINE",
"563 16 LINE",
"489 130 LINE",
"488 77 LINE",
"538 112 OFFCURVE",
"566 161 OFFCURVE",
"566 214 CURVE SMOOTH",
"566 279 OFFCURVE",
"521 345 OFFCURVE",
"416 372 CURVE",
"430 343 LINE",
"509 385 OFFCURVE",
"549 459 OFFCURVE",
"549 569 CURVE",
"549 588 LINE",
"398 588 LINE",
"398 570 LINE",
"398 495 OFFCURVE",
"377 444 OFFCURVE",
"293 433 CURVE",
"351 432 LINE",
"312 452 OFFCURVE",
"257 460 OFFCURVE",
"203 460 CURVE SMOOTH",
"162 460 OFFCURVE",
"120 454 OFFCURVE",
"87 444 CURVE",
"95 319 LINE",
"132 308 OFFCURVE",
"172 303 OFFCURVE",
"215 303 CURVE SMOOTH",
"266 303 OFFCURVE",
"321 309 OFFCURVE",
"369 323 CURVE",
"300 324 LINE",
"383 320 OFFCURVE",
"420 273 OFFCURVE",
"420 232 CURVE SMOOTH",
"420 190 OFFCURVE",
"383 154 OFFCURVE",
"314 154 CURVE SMOOTH",
"245 154 OFFCURVE",
"234 196 OFFCURVE",
"164 196 CURVE SMOOTH",
"86 196 OFFCURVE",
"31 142 OFFCURVE",
"31 46 CURVE SMOOTH",
"31 0 LINE"
);
},
{
closed = 1;
nodes = (
"609 564 LINE",
"609 691 LINE",
"0 691 LINE",
"0 564 LINE"
);
}
);
width = 609;
}
);
leftMetricsKey = "ta-gurmukhi";
rightMetricsKey = "ta-gurmukhi";
unicode = 0A5C;
},
{
glyphname = "iri-gurmukhi";
layers = (
{
anchors = (
{
name = bindu;
position = "{465, 680}";
},
{
name = bottom;
position = "{391, 2}";
},
{
name = candra;
position = "{465, 690}";
},
{
name = caret_1;
position = "{389, 30}";
},
{
name = nukta;
position = "{106, -48}";
},
{
name = top;
position = "{485, 670}";
}
);
layerId = "56A87FB8-163D-4578-80C9-082B510993A7";
paths = (
{
closed = 1;
nodes = (
"459 -13 OFFCURVE",
"528 2 OFFCURVE",
"584 28 CURVE",
"553 148 LINE",
"499 128 OFFCURVE",
"436 115 OFFCURVE",
"377 115 CURVE SMOOTH",
"271 115 OFFCURVE",
"190 151 OFFCURVE",
"164 213 CURVE",
"166 177 LINE",
"204 234 OFFCURVE",
"295 293 OFFCURVE",
"479 294 CURVE SMOOTH",
"563 294 LINE",
"563 629 LINE",
"412 629 LINE",
"412 375 LINE",
"449 416 LINE",
"407 416 LINE",
"275 416 OFFCURVE",
"196 492 OFFCURVE",
"195 588 CURVE",
"44 594 LINE",
"44 493 OFFCURVE",
"122 401 OFFCURVE",
"243 358 CURVE",
"247 384 LINE",
"133 351 OFFCURVE",
"62 285 OFFCURVE",
"28 226 CURVE",
"68 72 OFFCURVE",
"226 -13 OFFCURVE",
"390 -13 CURVE SMOOTH"
);
},
{
closed = 1;
nodes = (
"638 564 LINE",
"638 691 LINE",
"-17 691 LINE",
"-17 564 LINE"
);
}
);
width = 638;
}
);
rightMetricsKey = "STEM-GURM";
unicode = 0A72;
},
{
glyphname = "ura-gurmukhi";
layers = (
{
anchors = (
{
name = bindu;
position = "{684, 680}";
},
{
name = bottom;
position = "{397, 2}";
},
{
name = candra;
position = "{810, 650}";
},
{
name = caret_1;
position = "{396, 30}";
},
{
name = nukta;
position = "{92, -18}";
}
);
layerId = "56A87FB8-163D-4578-80C9-082B510993A7";
paths = (
{
closed = 1;
nodes = (
"537 -13 OFFCURVE",
"619 71 OFFCURVE",
"619 165 CURVE SMOOTH",
"619 250 OFFCURVE",
"551 338 OFFCURVE",
"408 368 CURVE",
"416 307 LINE",
"569 362 OFFCURVE",
"626 463 OFFCURVE",
"626 598 CURVE SMOOTH",
"626 803 OFFCURVE",
"506 949 OFFCURVE",
"320 949 CURVE SMOOTH",
"157 949 OFFCURVE",
"43 836 OFFCURVE",
"43 542 CURVE SMOOTH",
"43 268 OFFCURVE",
"144 -13 OFFCURVE",
"397 -13 CURVE SMOOTH"
);
},
{
closed = 1;
nodes = (
"225 115 OFFCURVE",
"187 356 OFFCURVE",
"187 531 CURVE SMOOTH",
"187 722 OFFCURVE",
"229 821 OFFCURVE",
"337 821 CURVE SMOOTH",
"431 821 OFFCURVE",
"480 751 OFFCURVE",
"480 621 CURVE SMOOTH",
"480 502 OFFCURVE",
"436 417 OFFCURVE",
"270 417 CURVE SMOOTH",
"131 417 LINE",
"131 305 LINE",
"315 305 LINE SMOOTH",
"422 305 OFFCURVE",
"470 245 OFFCURVE",
"470 192 CURVE SMOOTH",
"470 148 OFFCURVE",
"436 115 OFFCURVE",
"377 115 CURVE SMOOTH"
);
},
{
closed = 1;
nodes = (
"685 564 LINE",
"685 691 LINE",
"-17 691 LINE",
"-17 564 LINE"
);
}
);
width = 668;
}
);
unicode = 0A73;
},
{
glyphname = "ekonkar-gurmukhi";
layers = (
{
layerId = "56A87FB8-163D-4578-80C9-082B510993A7";
paths = (
{
closed = 1;
nodes = (
"1155 -13 OFFCURVE",
"1238 70 OFFCURVE",
"1238 163 CURVE SMOOTH",
"1238 240 OFFCURVE",
"1184 317 OFFCURVE",
"1067 353 CURVE",
"1073 323 LINE",
"1192 375 OFFCURVE",
"1242 465 OFFCURVE",
"1245 579 CURVE",
"1097 578 LINE",
"1088 482 OFFCURVE",
"1037 414 OFFCURVE",
"888 414 CURVE SMOOTH",
"798 414 LINE",
"816 303 LINE",
"934 303 LINE SMOOTH",
"1041 303 OFFCURVE",
"1089 243 OFFCURVE",
"1089 191 CURVE SMOOTH",
"1089 148 OFFCURVE",
"1055 115 OFFCURVE",
"998 115 CURVE SMOOTH",
"835 115 OFFCURVE",
"806 382 OFFCURVE",
"806 538 CURVE SMOOTH",
"806 754 OFFCURVE",
"853 901 OFFCURVE",
"1131 901 CURVE SMOOTH",
"1168 901 OFFCURVE",
"1205 896 OFFCURVE",
"1231 888 CURVE",
"1140 911 LINE",
"1165 831 OFFCURVE",
"1244 789 OFFCURVE",
"1329 789 CURVE SMOOTH",
"1347 789 OFFCURVE",
"1366 791 OFFCURVE",
"1384 795 CURVE",
"1432 889 LINE",
"1372 944 OFFCURVE",
"1271 992 OFFCURVE",
"1226 1000 CURVE",
"1245 967 LINE",
"1242 980 OFFCURVE",
"1241 991 OFFCURVE",
"1241 1004 CURVE SMOOTH",
"1241 1092 OFFCURVE",
"1306 1150 OFFCURVE",
"1395 1150 CURVE SMOOTH",
"1476 1150 OFFCURVE",
"1560 1102 OFFCURVE",
"1600 1019 CURVE",
"1700 1074 LINE",
"1641 1203 OFFCURVE",
"1511 1271 OFFCURVE",
"1389 1271 CURVE SMOOTH",
"1233 1271 OFFCURVE",
"1121 1160 OFFCURVE",
"1121 1016 CURVE",
"1185 1014 LINE",
"1134 1022 OFFCURVE",
"1101 1024 OFFCURVE",
"1084 1024 CURVE SMOOTH",
"828 1024 OFFCURVE",
"662 903 OFFCURVE",
"662 553 CURVE SMOOTH",
"662 263 OFFCURVE",
"765 -13 OFFCURVE",
"1017 -13 CURVE SMOOTH"
);
},
{
closed = 1;
nodes = (
"645 100 LINE",
"608 107 OFFCURVE",
"580 135 OFFCURVE",
"580 174 CURVE SMOOTH",
"580 392 LINE SMOOTH",
"580 593 OFFCURVE",
"448 706 OFFCURVE",
"288 706 CURVE SMOOTH",
"158 706 OFFCURVE",
"46 630 OFFCURVE",
"46 484 CURVE SMOOTH",
"46 329 OFFCURVE",
"172 238 OFFCURVE",
"310 238 CURVE SMOOTH",
"362 238 OFFCURVE",
"416 251 OFFCURVE",
"459 283 CURVE",
"433 308 LINE",
"433 185 LINE SMOOTH",
"433 67 OFFCURVE",
"515 -1 OFFCURVE",
"605 -19 CURVE"
);
},
{
closed = 1;
nodes = (
"239 365 OFFCURVE",
"187 403 OFFCURVE",
"187 469 CURVE SMOOTH",
"187 537 OFFCURVE",
"240 577 OFFCURVE",
"305 577 CURVE SMOOTH",
"381 577 OFFCURVE",
"445 524 OFFCURVE",
"442 408 CURVE",
"446 482 LINE",
"440 408 OFFCURVE",
"373 365 OFFCURVE",
"304 365 CURVE SMOOTH"
);
},
{
closed = 1;
nodes = (
"1302 564 LINE",
"1302 691 LINE",
"804 691 LINE",
"791 564 LINE"
);
}
);
width = 1387;
}
);
leftMetricsKey = "one-gurmukhi";
unicode = 0A74;
},
{
glyphname = "ya-gurmukhi.post";
layers = (
{
anchors = (
{
name = bindu;
position = "{386, 680}";
},
{
name = bottom;
position = "{408, 0}";
},
{
name = candra;
position = "{386, 690}";
},
{
name = caret_1;
position = "{157, 30}";
},
{
name = nukta;
position = "{156, -30}";
},
{
name = top;
position = "{406, 670}";
}
);
layerId = "56A87FB8-163D-4578-80C9-082B510993A7";
paths = (
{
closed = 1;
nodes = (
"21 87 LINE SMOOTH",
"147 87 OFFCURVE",
"249 145 OFFCURVE",
"249 279 CURVE SMOOTH",
"249 325 LINE",
"209 292 LINE",
"350 292 LINE",
"350 419 LINE",
"108 419 LINE",
"108 301 LINE SMOOTH",
"108 228 OFFCURVE",
"50 212 OFFCURVE",
"14 212 CURVE SMOOTH",
"-94 212 LINE",
"-94 87 LINE"
);
},
{
closed = 1;
nodes = (
"372 564 LINE",
"372 691 LINE",
"0 691 LINE",
"0 564 LINE"
);
},
{
closed = 1;
nodes = (
"482 0 LINE",
"482 626 LINE",
"444 564 LINE",
"557 564 LINE",
"557 691 LINE",
"331 691 LINE",
"331 0 LINE"
);
}
);
width = 557;
}
);
rightMetricsKey = "STEM-GURM";
},
{
glyphname = "ekonkar-gurmukhi.ss01";
layers = (
{
layerId = "56A87FB8-163D-4578-80C9-082B510993A7";
paths = (
{
closed = 1;
nodes = (
"1097 578 LINE",
"1088 482 OFFCURVE",
"1037 414 OFFCURVE",
"888 414 CURVE SMOOTH",
"798 414 LINE",
"816 303 LINE",
"934 303 LINE SMOOTH",
"1041 303 OFFCURVE",
"1089 243 OFFCURVE",
"1089 191 CURVE SMOOTH",
"1089 148 OFFCURVE",
"1055 115 OFFCURVE",
"998 115 CURVE SMOOTH",
"828 115 OFFCURVE",
"806 407 OFFCURVE",
"806 540 CURVE SMOOTH",
"806 732 OFFCURVE",
"846 899 OFFCURVE",
"1074 899 CURVE SMOOTH",
"1085 899 OFFCURVE",
"1096 898 OFFCURVE",
"1105 896 CURVE",
"1141 823 OFFCURVE",
"1215 795 OFFCURVE",
"1285 795 CURVE SMOOTH",
"1304 795 OFFCURVE",
"1323 797 OFFCURVE",
"1341 801 CURVE",
"1390 896 LINE",
"1339 941 OFFCURVE",
"1272 979 OFFCURVE",
"1200 1002 CURVE",
"1198 1010 OFFCURVE",
"1198 1018 OFFCURVE",
"1198 1027 CURVE SMOOTH",
"1198 1236 OFFCURVE",
"1353 1369 OFFCURVE",
"1566 1369 CURVE SMOOTH",
"1682 1369 OFFCURVE",
"1796 1328 OFFCURVE",
"1878 1261 CURVE",
"1935 1350 LINE",
"1843 1440 OFFCURVE",
"1703 1493 OFFCURVE",
"1557 1493 CURVE SMOOTH",
"1291 1493 OFFCURVE",
"1078 1323 OFFCURVE",
"1078 1037 CURVE SMOOTH",
"1078 1017 OFFCURVE",
"1078 999 OFFCURVE",
"1079 979 CURVE",
"1107 1020 LINE",
"1094 1023 OFFCURVE",
"1079 1024 OFFCURVE",
"1067 1024 CURVE SMOOTH",
"820 1024 OFFCURVE",
"662 899 OFFCURVE",
"662 552 CURVE SMOOTH",
"662 265 OFFCURVE",
"765 -13 OFFCURVE",
"1017 -13 CURVE SMOOTH",
"1155 -13 OFFCURVE",
"1238 70 OFFCURVE",
"1238 163 CURVE SMOOTH",
"1238 240 OFFCURVE",
"1184 317 OFFCURVE",
"1067 353 CURVE",
"1073 323 LINE",
"1192 375 OFFCURVE",
"1242 465 OFFCURVE",
"1245 579 CURVE"
);
},
{
closed = 1;
nodes = (
"645 100 LINE",
"608 107 OFFCURVE",
"580 135 OFFCURVE",
"580 174 CURVE SMOOTH",
"580 392 LINE SMOOTH",
"580 593 OFFCURVE",
"448 706 OFFCURVE",
"288 706 CURVE SMOOTH",
"158 706 OFFCURVE",
"46 630 OFFCURVE",
"46 484 CURVE SMOOTH",
"46 329 OFFCURVE",
"172 238 OFFCURVE",
"309 238 CURVE SMOOTH",
"362 238 OFFCURVE",
"416 251 OFFCURVE",
"459 283 CURVE",
"433 308 LINE",
"433 185 LINE SMOOTH",
"433 67 OFFCURVE",
"515 -1 OFFCURVE",
"605 -19 CURVE"
);
},
{
closed = 1;
nodes = (
"239 365 OFFCURVE",
"187 403 OFFCURVE",
"187 469 CURVE SMOOTH",
"187 537 OFFCURVE",
"240 577 OFFCURVE",
"305 577 CURVE SMOOTH",
"381 577 OFFCURVE",
"445 524 OFFCURVE",
"442 408 CURVE",
"446 482 LINE",
"440 408 OFFCURVE",
"373 365 OFFCURVE",
"304 365 CURVE SMOOTH"
);
},
{
closed = 1;
nodes = (
"1302 564 LINE",
"1302 691 LINE",
"804 691 LINE",
"791 564 LINE"
);
}
);
width = 1387;
}
);
leftMetricsKey = "one-gurmukhi";
},
{
glyphname = zero;
layers = (
{
layerId = "56A87FB8-163D-4578-80C9-082B510993A7";
paths = (
{
closed = 1;
nodes = (
"134 706 OFFCURVE",
"38 579 OFFCURVE",
"38 351 CURVE SMOOTH",
"38 122 OFFCURVE",
"134 -4 OFFCURVE",
"309 -4 CURVE SMOOTH",
"483 -4 OFFCURVE",
"579 122 OFFCURVE",
"579 351 CURVE SMOOTH",
"579 579 OFFCURVE",
"483 706 OFFCURVE",
"309 706 CURVE SMOOTH"
);
},
{
closed = 1;
nodes = (
"389 590 OFFCURVE",
"426 518 OFFCURVE",
"426 351 CURVE SMOOTH",
"426 185 OFFCURVE",
"389 112 OFFCURVE",
"309 112 CURVE SMOOTH",
"228 112 OFFCURVE",
"191 185 OFFCURVE",
"191 351 CURVE SMOOTH",
"191 518 OFFCURVE",
"228 590 OFFCURVE",
"309 590 CURVE SMOOTH"
);
}
);
width = 617;
}
);
note = zero;
unicode = 0030;
},
{
glyphname = one;
layers = (
{
layerId = "56A87FB8-163D-4578-80C9-082B510993A7";
paths = (
{
closed = 1;
nodes = (
"396 0 LINE",
"396 701 LINE",
"98 701 LINE",
"98 567 LINE",
"238 567 LINE",
"238 0 LINE"
);
}
);
width = 617;
}
);
note = one;
unicode = 0031;
},
{
glyphname = two;
layers = (
{
layerId = "56A87FB8-163D-4578-80C9-082B510993A7";
paths = (
{
closed = 1;
nodes = (
"211 708 OFFCURVE",
"116 669 OFFCURVE",
"30 604 CURVE",
"92 486 LINE",
"155 540 OFFCURVE",
"227 574 OFFCURVE",
"287 574 CURVE SMOOTH",
"348 574 OFFCURVE",
"383 548 OFFCURVE",
"383 503 CURVE SMOOTH",
"383 469 OFFCURVE",
"352 421 OFFCURVE",
"307 376 CURVE SMOOTH",
"48 109 LINE",
"48 0 LINE",
"574 0 LINE",
"574 133 LINE",
"252 133 LINE",
"415 294 LINE SMOOTH",
"492 374 OFFCURVE",
"549 452 OFFCURVE",
"549 527 CURVE SMOOTH",
"549 637 OFFCURVE",
"450 708 OFFCURVE",
"310 708 CURVE SMOOTH"
);
}
);
width = 617;
}
);
note = two;
unicode = 0032;
},
{
glyphname = three;
layers = (
{
layerId = "56A87FB8-163D-4578-80C9-082B510993A7";
paths = (
{
closed = 1;
nodes = (
"325 415 LINE",
"528 605 LINE",
"528 700 LINE",
"50 700 LINE",
"50 572 LINE",
"336 572 LINE",
"157 400 LINE",
"157 313 LINE",
"269 313 LINE SMOOTH",
"358 313 OFFCURVE",
"408 281 OFFCURVE",
"408 217 CURVE SMOOTH",
"408 156 OFFCURVE",
"358 118 OFFCURVE",
"270 118 CURVE SMOOTH",
"201 118 OFFCURVE",
"134 147 OFFCURVE",
"78 201 CURVE",
"14 75 LINE",
"81 26 OFFCURVE",
"183 -7 OFFCURVE",
"282 -7 CURVE SMOOTH",
"454 -7 OFFCURVE",
"563 86 OFFCURVE",
"563 219 CURVE SMOOTH",
"563 328 OFFCURVE",
"481 396 OFFCURVE",
"363 410 CURVE SMOOTH"
);
}
);
width = 617;
}
);
note = three;
unicode = 0033;
},
{
glyphname = four;
layers = (
{
layerId = "56A87FB8-163D-4578-80C9-082B510993A7";
paths = (
{
closed = 1;
nodes = (
"253 701 LINE",
"30 269 LINE",
"30 159 LINE",
"357 159 LINE",
"357 0 LINE",
"502 0 LINE",
"502 159 LINE",
"598 159 LINE",
"598 286 LINE",
"503 286 LINE",
"502 441 LINE",
"357 441 LINE",
"357 286 LINE",
"194 286 LINE",
"403 701 LINE"
);
}
);
width = 617;
}
);
note = four;
unicode = 0034;
},
{
glyphname = five;
layers = (
{
layerId = "56A87FB8-163D-4578-80C9-082B510993A7";
paths = (
{
closed = 1;
nodes = (
"83 701 LINE",
"83 312 LINE",
"129 316 OFFCURVE",
"237 318 OFFCURVE",
"277 318 CURVE SMOOTH",
"358 318 OFFCURVE",
"405 283 OFFCURVE",
"405 224 CURVE SMOOTH",
"405 159 OFFCURVE",
"358 121 OFFCURVE",
"276 121 CURVE SMOOTH",
"211 121 OFFCURVE",
"144 150 OFFCURVE",
"88 204 CURVE",
"24 79 LINE",
"98 28 OFFCURVE",
"203 -6 OFFCURVE",
"294 -6 CURVE SMOOTH",
"464 -6 OFFCURVE",
"574 89 OFFCURVE",
"574 234 CURVE SMOOTH",
"574 359 OFFCURVE",
"469 446 OFFCURVE",
"307 446 CURVE SMOOTH",
"288 446 OFFCURVE",
"249 446 OFFCURVE",
"228 446 CURVE",
"228 569 LINE",
"543 569 LINE",
"543 701 LINE"
);
}
);
width = 617;
}
);
note = five;
unicode = 0035;
},
{
glyphname = six;
layers = (
{
layerId = "56A87FB8-163D-4578-80C9-082B510993A7";
paths = (
{
closed = 1;
nodes = (
"164 708 OFFCURVE",
"42 562 OFFCURVE",
"42 338 CURVE SMOOTH",
"42 123 OFFCURVE",
"153 -7 OFFCURVE",
"335 -7 CURVE SMOOTH",
"488 -7 OFFCURVE",
"589 85 OFFCURVE",
"589 232 CURVE SMOOTH",
"589 369 OFFCURVE",
"502 459 OFFCURVE",
"365 459 CURVE SMOOTH",
"284 459 OFFCURVE",
"225 428 OFFCURVE",
"190 375 CURVE",
"187 502 OFFCURVE",
"245 584 OFFCURVE",
"364 584 CURVE SMOOTH",
"417 584 OFFCURVE",
"472 568 OFFCURVE",
"513 539 CURVE",
"572 652 LINE",
"514 686 OFFCURVE",
"428 708 OFFCURVE",
"354 708 CURVE SMOOTH"
);
},
{
closed = 1;
nodes = (
"403 341 OFFCURVE",
"445 300 OFFCURVE",
"445 233 CURVE SMOOTH",
"445 162 OFFCURVE",
"399 122 OFFCURVE",
"328 122 CURVE SMOOTH",
"246 122 OFFCURVE",
"209 175 OFFCURVE",
"210 230 CURVE SMOOTH",
"209 292 OFFCURVE",
"254 341 OFFCURVE",
"332 341 CURVE SMOOTH"
);
}
);
width = 617;
}
);
note = six;
unicode = 0036;
},
{
glyphname = seven;
layers = (
{
layerId = "56A87FB8-163D-4578-80C9-082B510993A7";
paths = (
{
closed = 1;
nodes = (
"41 701 LINE",
"41 471 LINE",
"181 471 LINE",
"182 569 LINE",
"416 569 LINE",
"147 0 LINE",
"315 0 LINE",
"591 588 LINE",
"591 701 LINE"
);
}
);
width = 617;
}
);
note = seven;
unicode = 0037;
},
{
glyphname = eight;
layers = (
{
layerId = "56A87FB8-163D-4578-80C9-082B510993A7";
paths = (
{
closed = 1;
nodes = (
"161 708 OFFCURVE",
"68 638 OFFCURVE",
"68 527 CURVE SMOOTH",
"68 464 OFFCURVE",
"105 408 OFFCURVE",
"166 375 CURVE",
"85 344 OFFCURVE",
"32 276 OFFCURVE",
"32 195 CURVE SMOOTH",
"32 71 OFFCURVE",
"140 -7 OFFCURVE",
"309 -7 CURVE SMOOTH",
"478 -7 OFFCURVE",
"585 72 OFFCURVE",
"585 198 CURVE SMOOTH",
"585 278 OFFCURVE",
"536 344 OFFCURVE",
"459 375 CURVE",
"515 405 OFFCURVE",
"549 459 OFFCURVE",
"549 521 CURVE SMOOTH",
"549 636 OFFCURVE",
"456 708 OFFCURVE",
"308 708 CURVE SMOOTH"
);
},
{
closed = 1;
nodes = (
"390 309 OFFCURVE",
"437 273 OFFCURVE",
"437 211 CURVE SMOOTH",
"437 148 OFFCURVE",
"390 112 OFFCURVE",
"309 112 CURVE SMOOTH",
"227 112 OFFCURVE",
"181 148 OFFCURVE",
"181 212 CURVE SMOOTH",
"181 274 OFFCURVE",
"227 309 OFFCURVE",
"308 309 CURVE SMOOTH"
);
},
{
closed = 1;
nodes = (
"378 599 OFFCURVE",
"417 568 OFFCURVE",
"417 513 CURVE SMOOTH",
"417 459 OFFCURVE",
"378 428 OFFCURVE",
"309 428 CURVE SMOOTH",
"239 428 OFFCURVE",
"200 459 OFFCURVE",
"200 513 CURVE SMOOTH",
"200 568 OFFCURVE",
"239 599 OFFCURVE",
"309 599 CURVE SMOOTH"
);
}
);
width = 617;
}
);
note = eight;
unicode = 0038;
},
{
glyphname = nine;
layers = (
{
layerId = "56A87FB8-163D-4578-80C9-082B510993A7";
paths = (
{
closed = 1;
nodes = (
"455 -7 OFFCURVE",
"576 139 OFFCURVE",
"576 363 CURVE SMOOTH",
"576 578 OFFCURVE",
"466 708 OFFCURVE",
"284 708 CURVE SMOOTH",
"132 708 OFFCURVE",
"32 616 OFFCURVE",
"32 469 CURVE SMOOTH",
"32 332 OFFCURVE",
"118 242 OFFCURVE",
"254 242 CURVE SMOOTH",
"335 242 OFFCURVE",
"393 273 OFFCURVE",
"428 327 CURVE",
"430 199 OFFCURVE",
"374 117 OFFCURVE",
"255 117 CURVE SMOOTH",
"202 117 OFFCURVE",
"148 133 OFFCURVE",
"107 162 CURVE",
"48 50 LINE",
"106 15 OFFCURVE",
"191 -7 OFFCURVE",
"264 -7 CURVE SMOOTH"
);
},
{
closed = 1;
nodes = (
"217 360 OFFCURVE",
"175 401 OFFCURVE",
"175 468 CURVE SMOOTH",
"175 539 OFFCURVE",
"220 580 OFFCURVE",
"291 580 CURVE SMOOTH",
"373 580 OFFCURVE",
"409 526 OFFCURVE",
"409 471 CURVE SMOOTH",
"409 409 OFFCURVE",
"365 360 OFFCURVE",
"287 360 CURVE SMOOTH"
);
}
);
width = 617;
}
);
note = nine;
unicode = 0039;
},
{
glyphname = zero.lf;
layers = (
{
layerId = "56A87FB8-163D-4578-80C9-082B510993A7";
paths = (
{
closed = 1;
nodes = (
"153 705 OFFCURVE",
"44 579 OFFCURVE",
"44 351 CURVE SMOOTH",
"44 122 OFFCURVE",
"153 -5 OFFCURVE",
"350 -5 CURVE SMOOTH",
"546 -5 OFFCURVE",
"656 122 OFFCURVE",
"656 351 CURVE SMOOTH",
"656 579 OFFCURVE",
"546 705 OFFCURVE",
"350 705 CURVE SMOOTH"
);
},
{
closed = 1;
nodes = (
"448 584 OFFCURVE",
"494 515 OFFCURVE",
"494 351 CURVE SMOOTH",
"494 186 OFFCURVE",
"448 116 OFFCURVE",
"350 116 CURVE SMOOTH",
"251 116 OFFCURVE",
"206 186 OFFCURVE",
"206 351 CURVE SMOOTH",
"206 515 OFFCURVE",
"251 584 OFFCURVE",
"350 584 CURVE SMOOTH"
);
}
);
width = 699;
}
);
},
{
glyphname = one.lf;
lastChange = "2016-05-14 08:45:32 +0000";
layers = (
{
layerId = "56A87FB8-163D-4578-80C9-082B510993A7";
paths = (
{
closed = 1;
nodes = (
"299 0 LINE",
"299 700 LINE",
"9 700 LINE",
"9 567 LINE",
"141 567 LINE",
"141 0 LINE"
);
}
);
width = 404;
}
);
},
{
glyphname = two.lf;
layers = (
{
layerId = "56A87FB8-163D-4578-80C9-082B510993A7";
paths = (
{
closed = 1;
nodes = (
"203 707 OFFCURVE",
"109 668 OFFCURVE",
"25 603 CURVE",
"86 485 LINE",
"148 539 OFFCURVE",
"218 573 OFFCURVE",
"277 573 CURVE SMOOTH",
"334 573 OFFCURVE",
"368 547 OFFCURVE",
"368 503 CURVE SMOOTH",
"368 469 OFFCURVE",
"338 420 OFFCURVE",
"295 376 CURVE SMOOTH",
"43 108 LINE",
"43 0 LINE",
"558 0 LINE",
"558 132 LINE",
"247 132 LINE",
"403 294 LINE SMOOTH",
"478 372 OFFCURVE",
"534 451 OFFCURVE",
"534 526 CURVE SMOOTH",
"534 636 OFFCURVE",
"436 707 OFFCURVE",
"300 707 CURVE SMOOTH"
);
}
);
width = 596;
}
);
},
{
glyphname = three.lf;
layers = (
{
layerId = "56A87FB8-163D-4578-80C9-082B510993A7";
paths = (
{
closed = 1;
nodes = (
"301 414 LINE",
"484 605 LINE",
"484 699 LINE",
"34 699 LINE",
"34 571 LINE",
"297 571 LINE SMOOTH",
"133 400 LINE",
"133 312 LINE",
"240 312 LINE SMOOTH",
"318 312 OFFCURVE",
"361 280 OFFCURVE",
"361 217 CURVE SMOOTH",
"362 156 OFFCURVE",
"318 119 OFFCURVE",
"241 119 CURVE SMOOTH",
"178 119 OFFCURVE",
"116 147 OFFCURVE",
"64 200 CURVE",
"0 75 LINE",
"63 26 OFFCURVE",
"160 -7 OFFCURVE",
"253 -7 CURVE SMOOTH",
"414 -7 OFFCURVE",
"516 86 OFFCURVE",
"516 219 CURVE SMOOTH",
"516 328 OFFCURVE",
"441 395 OFFCURVE",
"335 410 CURVE SMOOTH"
);
}
);
width = 552;
}
);
},
{
glyphname = four.lf;
layers = (
{
layerId = "56A87FB8-163D-4578-80C9-082B510993A7";
paths = (
{
closed = 1;
nodes = (
"255 700 LINE",
"28 270 LINE",
"28 158 LINE",
"361 158 LINE",
"361 0 LINE",
"508 0 LINE",
"508 158 LINE",
"605 158 LINE",
"605 286 LINE",
"508 286 LINE",
"508 440 LINE",
"361 440 LINE",
"361 286 LINE",
"193 286 LINE",
"407 700 LINE"
);
}
);
width = 622;
}
);
},
{
glyphname = five.lf;
layers = (
{
layerId = "56A87FB8-163D-4578-80C9-082B510993A7";
paths = (
{
closed = 1;
nodes = (
"75 700 LINE",
"75 312 LINE",
"120 315 OFFCURVE",
"226 317 OFFCURVE",
"264 317 CURVE SMOOTH",
"339 317 OFFCURVE",
"384 283 OFFCURVE",
"384 223 CURVE SMOOTH",
"384 159 OFFCURVE",
"340 121 OFFCURVE",
"263 121 CURVE SMOOTH",
"200 121 OFFCURVE",
"135 150 OFFCURVE",
"81 204 CURVE",
"18 79 LINE",
"90 28 OFFCURVE",
"193 -6 OFFCURVE",
"281 -6 CURVE SMOOTH",
"447 -6 OFFCURVE",
"554 88 OFFCURVE",
"554 234 CURVE SMOOTH",
"554 359 OFFCURVE",
"451 446 OFFCURVE",
"293 446 CURVE SMOOTH",
"276 446 OFFCURVE",
"240 445 OFFCURVE",
"220 445 CURVE",
"220 568 LINE",
"524 568 LINE",
"524 700 LINE"
);
}
);
width = 589;
}
);
},
{
glyphname = six.lf;
layers = (
{
layerId = "56A87FB8-163D-4578-80C9-082B510993A7";
paths = (
{
closed = 1;
nodes = (
"167 707 OFFCURVE",
"44 562 OFFCURVE",
"44 339 CURVE SMOOTH",
"44 124 OFFCURVE",
"156 -7 OFFCURVE",
"341 -7 CURVE SMOOTH",
"495 -7 OFFCURVE",
"597 85 OFFCURVE",
"597 233 CURVE SMOOTH",
"597 369 OFFCURVE",
"510 459 OFFCURVE",
"371 459 CURVE SMOOTH",
"290 459 OFFCURVE",
"231 428 OFFCURVE",
"196 377 CURVE",
"194 501 OFFCURVE",
"251 580 OFFCURVE",
"371 580 CURVE SMOOTH",
"424 580 OFFCURVE",
"479 564 OFFCURVE",
"520 535 CURVE",
"581 651 LINE",
"523 685 OFFCURVE",
"435 707 OFFCURVE",
"360 707 CURVE SMOOTH"
);
},
{
closed = 1;
nodes = (
"408 338 OFFCURVE",
"450 299 OFFCURVE",
"450 234 CURVE SMOOTH",
"450 164 OFFCURVE",
"405 125 OFFCURVE",
"334 125 CURVE SMOOTH",
"252 125 OFFCURVE",
"215 177 OFFCURVE",
"216 231 CURVE SMOOTH",
"215 291 OFFCURVE",
"260 338 OFFCURVE",
"337 338 CURVE SMOOTH"
);
}
);
width = 628;
}
);
leftMetricsKey = zero.lf;
},
{
glyphname = seven.lf;
layers = (
{
layerId = "56A87FB8-163D-4578-80C9-082B510993A7";
paths = (
{
closed = 1;
nodes = (
"34 700 LINE",
"34 470 LINE",
"174 470 LINE",
"174 568 LINE",
"393 568 LINE",
"135 0 LINE",
"303 0 LINE",
"568 587 LINE",
"568 700 LINE"
);
}
);
width = 586;
}
);
},
{
glyphname = eight.lf;
layers = (
{
layerId = "56A87FB8-163D-4578-80C9-082B510993A7";
paths = (
{
closed = 1;
nodes = (
"169 707 OFFCURVE",
"73 637 OFFCURVE",
"73 525 CURVE SMOOTH",
"73 463 OFFCURVE",
"112 407 OFFCURVE",
"174 375 CURVE",
"90 344 OFFCURVE",
"37 276 OFFCURVE",
"37 195 CURVE SMOOTH",
"37 71 OFFCURVE",
"146 -7 OFFCURVE",
"318 -7 CURVE SMOOTH",
"490 -7 OFFCURVE",
"599 72 OFFCURVE",
"599 197 CURVE SMOOTH",
"599 277 OFFCURVE",
"549 344 OFFCURVE",
"470 375 CURVE",
"528 404 OFFCURVE",
"564 459 OFFCURVE",
"564 521 CURVE SMOOTH",
"564 635 OFFCURVE",
"468 707 OFFCURVE",
"318 707 CURVE SMOOTH"
);
},
{
closed = 1;
nodes = (
"403 308 OFFCURVE",
"451 273 OFFCURVE",
"451 211 CURVE SMOOTH",
"451 148 OFFCURVE",
"403 113 OFFCURVE",
"319 113 CURVE SMOOTH",
"234 113 OFFCURVE",
"187 148 OFFCURVE",
"187 212 CURVE SMOOTH",
"187 273 OFFCURVE",
"235 308 OFFCURVE",
"318 308 CURVE SMOOTH"
);
},
{
closed = 1;
nodes = (
"390 598 OFFCURVE",
"430 567 OFFCURVE",
"430 512 CURVE SMOOTH",
"430 458 OFFCURVE",
"390 427 OFFCURVE",
"318 427 CURVE SMOOTH",
"247 427 OFFCURVE",
"206 458 OFFCURVE",
"206 512 CURVE SMOOTH",
"206 567 OFFCURVE",
"247 598 OFFCURVE",
"318 598 CURVE SMOOTH"
);
}
);
width = 637;
}
);
},
{
glyphname = zero.osf;
layers = (
{
layerId = "56A87FB8-163D-4578-80C9-082B510993A7";
paths = (
{
closed = 1;
nodes = (
"167 605 OFFCURVE",
"44 483 OFFCURVE",
"44 301 CURVE SMOOTH",
"44 118 OFFCURVE",
"167 -5 OFFCURVE",
"350 -5 CURVE SMOOTH",
"533 -5 OFFCURVE",
"656 118 OFFCURVE",
"656 301 CURVE SMOOTH",
"656 483 OFFCURVE",
"533 605 OFFCURVE",
"350 605 CURVE SMOOTH"
);
},
{
closed = 1;
nodes = (
"436 481 OFFCURVE",
"494 412 OFFCURVE",
"494 301 CURVE SMOOTH",
"494 188 OFFCURVE",
"436 119 OFFCURVE",
"350 119 CURVE SMOOTH",
"264 119 OFFCURVE",
"206 188 OFFCURVE",
"206 301 CURVE SMOOTH",
"206 412 OFFCURVE",
"264 481 OFFCURVE",
"350 481 CURVE SMOOTH"
);
}
);
width = 699;
}
);
},
{
glyphname = one.osf;
lastChange = "2016-05-14 08:45:32 +0000";
layers = (
{
layerId = "56A87FB8-163D-4578-80C9-082B510993A7";
paths = (
{
closed = 1;
nodes = (
"299 0 LINE",
"299 600 LINE",
"9 600 LINE",
"9 466 LINE",
"141 466 LINE",
"141 0 LINE"
);
}
);
width = 404;
}
);
},
{
glyphname = two.osf;
layers = (
{
layerId = "56A87FB8-163D-4578-80C9-082B510993A7";
paths = (
{
closed = 1;
nodes = (
"189 609 OFFCURVE",
"104 575 OFFCURVE",
"25 517 CURVE",
"85 399 LINE",
"142 446 OFFCURVE",
"204 476 OFFCURVE",
"255 476 CURVE SMOOTH",
"301 476 OFFCURVE",
"327 457 OFFCURVE",
"327 426 CURVE SMOOTH",
"327 401 OFFCURVE",
"302 364 OFFCURVE",
"267 330 CURVE SMOOTH",
"43 106 LINE",
"43 0 LINE",
"511 0 LINE",
"511 132 LINE",
"248 132 LINE",
"375 249 LINE",
"443 316 OFFCURVE",
"492 384 OFFCURVE",
"492 450 CURVE SMOOTH",
"492 546 OFFCURVE",
"403 609 OFFCURVE",
"280 609 CURVE SMOOTH"
);
}
);
width = 549;
}
);
leftMetricsKey = two.lf;
rightMetricsKey = two.lf;
},
{
glyphname = three.osf;
layers = (
{
layerId = "56A87FB8-163D-4578-80C9-082B510993A7";
paths = (
{
closed = 1;
nodes = (
"301 315 LINE",
"484 504 LINE",
"484 599 LINE",
"34 599 LINE",
"34 471 LINE",
"297 471 LINE SMOOTH",
"132 300 LINE",
"132 212 LINE",
"240 212 LINE SMOOTH",
"317 212 OFFCURVE",
"361 180 OFFCURVE",
"361 117 CURVE SMOOTH",
"361 56 OFFCURVE",
"318 18 OFFCURVE",
"241 18 CURVE SMOOTH",
"178 18 OFFCURVE",
"115 47 OFFCURVE",
"64 101 CURVE",
"0 -25 LINE",
"63 -74 OFFCURVE",
"160 -107 OFFCURVE",
"253 -107 CURVE SMOOTH",
"413 -107 OFFCURVE",
"516 -14 OFFCURVE",
"516 119 CURVE SMOOTH",
"516 227 OFFCURVE",
"442 295 OFFCURVE",
"335 310 CURVE SMOOTH"
);
}
);
width = 552;
}
);
},
{
glyphname = four.osf;
layers = (
{
layerId = "56A87FB8-163D-4578-80C9-082B510993A7";
paths = (
{
closed = 1;
nodes = (
"255 600 LINE",
"28 170 LINE",
"28 58 LINE",
"361 58 LINE",
"361 -100 LINE",
"508 -100 LINE",
"508 58 LINE",
"605 58 LINE",
"605 186 LINE",
"508 186 LINE",
"508 340 LINE",
"361 340 LINE",
"361 186 LINE",
"192 186 LINE",
"407 600 LINE"
);
}
);
width = 622;
}
);
},
{
glyphname = five.osf;
layers = (
{
layerId = "56A87FB8-163D-4578-80C9-082B510993A7";
paths = (
{
closed = 1;
nodes = (
"75 600 LINE",
"75 212 LINE",
"119 215 OFFCURVE",
"225 217 OFFCURVE",
"263 217 CURVE SMOOTH",
"339 217 OFFCURVE",
"384 183 OFFCURVE",
"384 124 CURVE SMOOTH",
"384 59 OFFCURVE",
"339 21 OFFCURVE",
"263 21 CURVE SMOOTH",
"200 21 OFFCURVE",
"135 50 OFFCURVE",
"81 104 CURVE",
"18 -21 LINE",
"90 -72 OFFCURVE",
"192 -106 OFFCURVE",
"281 -106 CURVE SMOOTH",
"446 -106 OFFCURVE",
"553 -11 OFFCURVE",
"553 134 CURVE SMOOTH",
"553 259 OFFCURVE",
"451 346 OFFCURVE",
"293 346 CURVE SMOOTH",
"276 346 OFFCURVE",
"240 345 OFFCURVE",
"220 345 CURVE",
"220 468 LINE",
"524 468 LINE",
"523 600 LINE"
);
}
);
width = 589;
}
);
},
{
glyphname = six.osf;
layers = (
{
layerId = "56A87FB8-163D-4578-80C9-082B510993A7";
paths = (
{
closed = 1;
nodes = (
"167 707 OFFCURVE",
"44 562 OFFCURVE",
"44 339 CURVE SMOOTH",
"44 124 OFFCURVE",
"156 -7 OFFCURVE",
"341 -7 CURVE SMOOTH",
"495 -7 OFFCURVE",
"597 85 OFFCURVE",
"597 233 CURVE SMOOTH",
"597 369 OFFCURVE",
"510 459 OFFCURVE",
"371 459 CURVE SMOOTH",
"290 459 OFFCURVE",
"231 428 OFFCURVE",
"196 377 CURVE",
"194 501 OFFCURVE",
"251 580 OFFCURVE",
"371 580 CURVE SMOOTH",
"424 580 OFFCURVE",
"479 564 OFFCURVE",
"520 535 CURVE",
"581 651 LINE",
"523 685 OFFCURVE",
"435 707 OFFCURVE",
"360 707 CURVE SMOOTH"
);
},
{
closed = 1;
nodes = (
"408 338 OFFCURVE",
"450 299 OFFCURVE",
"450 234 CURVE SMOOTH",
"450 164 OFFCURVE",
"405 125 OFFCURVE",
"334 125 CURVE SMOOTH",
"252 125 OFFCURVE",
"215 177 OFFCURVE",
"216 231 CURVE SMOOTH",
"215 291 OFFCURVE",
"260 338 OFFCURVE",
"337 338 CURVE SMOOTH"
);
}
);
width = 628;
}
);
leftMetricsKey = zero.lf;
},
{
glyphname = seven.osf;
layers = (
{
layerId = "56A87FB8-163D-4578-80C9-082B510993A7";
paths = (
{
closed = 1;
nodes = (
"34 600 LINE",
"34 370 LINE",
"173 370 LINE",
"174 468 LINE",
"392 468 LINE",
"135 -100 LINE",
"302 -100 LINE",
"568 487 LINE",
"568 600 LINE"
);
}
);
width = 587;
}
);
},
{
glyphname = eight.osf;
layers = (
{
layerId = "56A87FB8-163D-4578-80C9-082B510993A7";
paths = (
{
closed = 1;
nodes = (
"169 707 OFFCURVE",
"73 637 OFFCURVE",
"73 525 CURVE SMOOTH",
"73 463 OFFCURVE",
"112 407 OFFCURVE",
"174 375 CURVE",
"90 344 OFFCURVE",
"37 276 OFFCURVE",
"37 195 CURVE SMOOTH",
"37 71 OFFCURVE",
"146 -7 OFFCURVE",
"318 -7 CURVE SMOOTH",
"490 -7 OFFCURVE",
"599 72 OFFCURVE",
"599 197 CURVE SMOOTH",
"599 277 OFFCURVE",
"549 344 OFFCURVE",
"470 375 CURVE",
"528 404 OFFCURVE",
"564 459 OFFCURVE",
"564 521 CURVE SMOOTH",
"564 635 OFFCURVE",
"468 707 OFFCURVE",
"318 707 CURVE SMOOTH"
);
},
{
closed = 1;
nodes = (
"403 308 OFFCURVE",
"451 273 OFFCURVE",
"451 211 CURVE SMOOTH",
"451 148 OFFCURVE",
"403 113 OFFCURVE",
"319 113 CURVE SMOOTH",
"234 113 OFFCURVE",
"187 148 OFFCURVE",
"187 212 CURVE SMOOTH",
"187 273 OFFCURVE",
"235 308 OFFCURVE",
"318 308 CURVE SMOOTH"
);
},
{
closed = 1;
nodes = (
"390 598 OFFCURVE",
"430 567 OFFCURVE",
"430 512 CURVE SMOOTH",
"430 458 OFFCURVE",
"390 427 OFFCURVE",
"318 427 CURVE SMOOTH",
"247 427 OFFCURVE",
"206 458 OFFCURVE",
"206 512 CURVE SMOOTH",
"206 567 OFFCURVE",
"247 598 OFFCURVE",
"318 598 CURVE SMOOTH"
);
}
);
width = 637;
}
);
},
{
glyphname = zero.tosf;
layers = (
{
layerId = "56A87FB8-163D-4578-80C9-082B510993A7";
paths = (
{
closed = 1;
nodes = (
"143 606 OFFCURVE",
"32 482 OFFCURVE",
"32 301 CURVE SMOOTH",
"32 119 OFFCURVE",
"143 -4 OFFCURVE",
"309 -4 CURVE SMOOTH",
"475 -4 OFFCURVE",
"586 119 OFFCURVE",
"586 301 CURVE SMOOTH",
"586 482 OFFCURVE",
"475 606 OFFCURVE",
"309 606 CURVE SMOOTH"
);
},
{
closed = 1;
nodes = (
"386 490 OFFCURVE",
"438 417 OFFCURVE",
"438 301 CURVE SMOOTH",
"438 184 OFFCURVE",
"386 111 OFFCURVE",
"309 111 CURVE SMOOTH",
"232 111 OFFCURVE",
"179 184 OFFCURVE",
"179 301 CURVE SMOOTH",
"179 417 OFFCURVE",
"232 490 OFFCURVE",
"309 490 CURVE SMOOTH"
);
}
);
width = 617;
}
);
userData = {
RMXScaler = {
source = zero.osf;
};
};
},
{
glyphname = one.tosf;
layers = (
{
layerId = "56A87FB8-163D-4578-80C9-082B510993A7";
paths = (
{
closed = 1;
nodes = (
"406 0 LINE",
"406 601 LINE",
"106 601 LINE",
"106 467 LINE",
"248 467 LINE",
"248 0 LINE"
);
}
);
width = 617;
}
);
userData = {
RMXScaler = {
source = one.osf;
};
};
},
{
glyphname = two.tosf;
layers = (
{
layerId = "56A87FB8-163D-4578-80C9-082B510993A7";
paths = (
{
closed = 1;
nodes = (
"216 609 OFFCURVE",
"125 576 OFFCURVE",
"42 518 CURVE",
"102 400 LINE",
"163 447 OFFCURVE",
"231 477 OFFCURVE",
"288 477 CURVE SMOOTH",
"342 477 OFFCURVE",
"373 459 OFFCURVE",
"373 427 CURVE SMOOTH",
"373 402 OFFCURVE",
"345 365 OFFCURVE",
"305 330 CURVE SMOOTH",
"59 107 LINE",
"60 0 LINE",
"562 0 LINE",
"562 132 LINE",
"265 132 LINE",
"412 250 LINE",
"487 317 OFFCURVE",
"539 385 OFFCURVE",
"539 451 CURVE SMOOTH",
"539 547 OFFCURVE",
"444 609 OFFCURVE",
"311 609 CURVE SMOOTH"
);
}
);
width = 617;
}
);
userData = {
RMXScaler = {
source = two.osf;
};
};
},
{
glyphname = three.tosf;
layers = (
{
layerId = "56A87FB8-163D-4578-80C9-082B510993A7";
paths = (
{
closed = 1;
nodes = (
"325 315 LINE",
"528 505 LINE",
"528 600 LINE",
"49 600 LINE",
"50 472 LINE",
"336 472 LINE",
"156 300 LINE",
"156 213 LINE",
"269 213 LINE SMOOTH",
"357 213 OFFCURVE",
"408 181 OFFCURVE",
"408 117 CURVE SMOOTH",
"408 56 OFFCURVE",
"358 18 OFFCURVE",
"270 18 CURVE SMOOTH",
"201 18 OFFCURVE",
"134 47 OFFCURVE",
"78 101 CURVE",
"14 -25 LINE",
"80 -74 OFFCURVE",
"183 -107 OFFCURVE",
"282 -107 CURVE SMOOTH",
"454 -107 OFFCURVE",
"562 -14 OFFCURVE",
"562 119 CURVE SMOOTH",
"562 228 OFFCURVE",
"481 296 OFFCURVE",
"362 310 CURVE SMOOTH"
);
}
);
width = 617;
}
);
},
{
glyphname = four.tosf;
layers = (
{
layerId = "56A87FB8-163D-4578-80C9-082B510993A7";
paths = (
{
closed = 1;
nodes = (
"252 601 LINE",
"30 169 LINE",
"30 59 LINE",
"356 59 LINE",
"356 -100 LINE",
"502 -100 LINE",
"502 59 LINE",
"597 59 LINE",
"597 186 LINE",
"502 186 LINE",
"502 341 LINE",
"356 341 LINE",
"357 186 LINE",
"194 186 LINE",
"403 601 LINE"
);
}
);
width = 617;
}
);
},
{
glyphname = five.tosf;
layers = (
{
layerId = "56A87FB8-163D-4578-80C9-082B510993A7";
paths = (
{
closed = 1;
nodes = (
"83 601 LINE",
"83 212 LINE",
"129 216 OFFCURVE",
"237 218 OFFCURVE",
"277 218 CURVE SMOOTH",
"357 218 OFFCURVE",
"404 183 OFFCURVE",
"404 124 CURVE SMOOTH",
"404 59 OFFCURVE",
"357 21 OFFCURVE",
"276 21 CURVE SMOOTH",
"211 21 OFFCURVE",
"144 50 OFFCURVE",
"88 104 CURVE",
"24 -21 LINE",
"98 -72 OFFCURVE",
"203 -106 OFFCURVE",
"294 -106 CURVE SMOOTH",
"464 -106 OFFCURVE",
"574 -11 OFFCURVE",
"574 134 CURVE SMOOTH",
"574 259 OFFCURVE",
"469 346 OFFCURVE",
"306 346 CURVE SMOOTH",
"288 346 OFFCURVE",
"249 346 OFFCURVE",
"228 346 CURVE",
"228 469 LINE",
"543 469 LINE",
"543 601 LINE"
);
}
);
width = 617;
}
);
},
{
glyphname = six.tosf;
layers = (
{
layerId = "56A87FB8-163D-4578-80C9-082B510993A7";
paths = (
{
closed = 1;
nodes = (
"164 708 OFFCURVE",
"42 562 OFFCURVE",
"42 338 CURVE SMOOTH",
"42 123 OFFCURVE",
"153 -7 OFFCURVE",
"335 -7 CURVE SMOOTH",
"488 -7 OFFCURVE",
"589 85 OFFCURVE",
"589 232 CURVE SMOOTH",
"589 369 OFFCURVE",
"502 459 OFFCURVE",
"365 459 CURVE SMOOTH",
"284 459 OFFCURVE",
"225 428 OFFCURVE",
"190 375 CURVE",
"187 502 OFFCURVE",
"245 584 OFFCURVE",
"364 584 CURVE SMOOTH",
"417 584 OFFCURVE",
"472 568 OFFCURVE",
"513 539 CURVE",
"572 652 LINE",
"514 686 OFFCURVE",
"429 708 OFFCURVE",
"354 708 CURVE SMOOTH"
);
},
{
closed = 1;
nodes = (
"403 341 OFFCURVE",
"445 300 OFFCURVE",
"445 233 CURVE SMOOTH",
"445 162 OFFCURVE",
"399 122 OFFCURVE",
"328 122 CURVE SMOOTH",
"246 122 OFFCURVE",
"209 175 OFFCURVE",
"210 230 CURVE SMOOTH",
"209 292 OFFCURVE",
"254 341 OFFCURVE",
"332 341 CURVE SMOOTH"
);
}
);
width = 617;
}
);
},
{
glyphname = seven.tosf;
layers = (
{
layerId = "56A87FB8-163D-4578-80C9-082B510993A7";
paths = (
{
closed = 1;
nodes = (
"41 601 LINE",
"41 371 LINE",
"181 371 LINE",
"182 469 LINE",
"416 469 LINE",
"147 -100 LINE",
"314 -100 LINE",
"590 488 LINE",
"590 601 LINE"
);
}
);
width = 617;
}
);
},
{
glyphname = eight.tosf;
layers = (
{
layerId = "56A87FB8-163D-4578-80C9-082B510993A7";
paths = (
{
closed = 1;
nodes = (
"161 708 OFFCURVE",
"67 638 OFFCURVE",
"67 527 CURVE SMOOTH",
"67 464 OFFCURVE",
"105 408 OFFCURVE",
"166 375 CURVE",
"84 344 OFFCURVE",
"32 276 OFFCURVE",
"32 195 CURVE SMOOTH",
"32 71 OFFCURVE",
"140 -7 OFFCURVE",
"308 -7 CURVE SMOOTH",
"477 -7 OFFCURVE",
"585 72 OFFCURVE",
"585 198 CURVE SMOOTH",
"585 278 OFFCURVE",
"536 344 OFFCURVE",
"458 375 CURVE",
"514 405 OFFCURVE",
"549 459 OFFCURVE",
"549 521 CURVE SMOOTH",
"549 636 OFFCURVE",
"456 708 OFFCURVE",
"307 708 CURVE SMOOTH"
);
},
{
closed = 1;
nodes = (
"390 309 OFFCURVE",
"437 273 OFFCURVE",
"437 211 CURVE SMOOTH",
"437 148 OFFCURVE",
"390 112 OFFCURVE",
"309 112 CURVE SMOOTH",
"227 112 OFFCURVE",
"181 148 OFFCURVE",
"181 212 CURVE SMOOTH",
"181 274 OFFCURVE",
"227 309 OFFCURVE",
"309 309 CURVE SMOOTH"
);
},
{
closed = 1;
nodes = (
"378 599 OFFCURVE",
"417 568 OFFCURVE",
"417 513 CURVE SMOOTH",
"417 459 OFFCURVE",
"378 428 OFFCURVE",
"309 428 CURVE SMOOTH",
"239 428 OFFCURVE",
"200 459 OFFCURVE",
"200 513 CURVE SMOOTH",
"200 568 OFFCURVE",
"239 599 OFFCURVE",
"309 599 CURVE SMOOTH"
);
}
);
width = 617;
}
);
},
{
glyphname = nine.tosf;
layers = (
{
layerId = "56A87FB8-163D-4578-80C9-082B510993A7";
paths = (
{
closed = 1;
nodes = (
"455 -107 OFFCURVE",
"577 39 OFFCURVE",
"577 263 CURVE SMOOTH",
"577 478 OFFCURVE",
"466 608 OFFCURVE",
"284 608 CURVE SMOOTH",
"132 608 OFFCURVE",
"32 516 OFFCURVE",
"32 369 CURVE SMOOTH",
"32 232 OFFCURVE",
"118 142 OFFCURVE",
"255 142 CURVE SMOOTH",
"335 142 OFFCURVE",
"393 173 OFFCURVE",
"428 227 CURVE",
"431 99 OFFCURVE",
"374 17 OFFCURVE",
"255 17 CURVE SMOOTH",
"202 17 OFFCURVE",
"148 33 OFFCURVE",
"107 62 CURVE",
"48 -50 LINE",
"106 -85 OFFCURVE",
"191 -107 OFFCURVE",
"265 -107 CURVE SMOOTH"
);
},
{
closed = 1;
nodes = (
"216 260 OFFCURVE",
"175 301 OFFCURVE",
"175 368 CURVE SMOOTH",
"175 439 OFFCURVE",
"220 480 OFFCURVE",
"290 480 CURVE SMOOTH",
"372 480 OFFCURVE",
"409 426 OFFCURVE",
"408 371 CURVE SMOOTH",
"409 309 OFFCURVE",
"365 260 OFFCURVE",
"287 260 CURVE SMOOTH"
);
}
);
width = 617;
}
);
},
{
glyphname = zero.dnom;
layers = (
{
layerId = "56A87FB8-163D-4578-80C9-082B510993A7";
paths = (
{
closed = 1;
nodes = (
"108 419 OFFCURVE",
"34 338 OFFCURVE",
"34 208 CURVE SMOOTH",
"34 77 OFFCURVE",
"108 -3 OFFCURVE",
"226 -3 CURVE SMOOTH",
"344 -3 OFFCURVE",
"418 77 OFFCURVE",
"418 208 CURVE SMOOTH",
"418 338 OFFCURVE",
"344 419 OFFCURVE",
"226 419 CURVE SMOOTH"
);
},
{
closed = 1;
nodes = (
"284 333 OFFCURVE",
"319 286 OFFCURVE",
"319 208 CURVE SMOOTH",
"319 130 OFFCURVE",
"284 83 OFFCURVE",
"226 83 CURVE SMOOTH",
"167 83 OFFCURVE",
"133 130 OFFCURVE",
"133 208 CURVE SMOOTH",
"133 286 OFFCURVE",
"167 333 OFFCURVE",
"226 333 CURVE SMOOTH"
);
}
);
width = 451;
}
);
},
{
glyphname = one.dnom;
layers = (
{
layerId = "56A87FB8-163D-4578-80C9-082B510993A7";
paths = (
{
closed = 1;
nodes = (
"201 416 LINE",
"12 416 LINE",
"12 329 LINE",
"93 329 LINE",
"93 0 LINE",
"201 0 LINE"
);
}
);
width = 270;
}
);
},
{
glyphname = two.dnom;
layers = (
{
layerId = "56A87FB8-163D-4578-80C9-082B510993A7";
paths = (
{
closed = 1;
nodes = (
"135 420 OFFCURVE",
"76 397 OFFCURVE",
"21 357 CURVE",
"63 279 LINE",
"102 311 OFFCURVE",
"146 332 OFFCURVE",
"181 332 CURVE",
"212 332 OFFCURVE",
"231 319 OFFCURVE",
"231 296 CURVE",
"231 277 OFFCURVE",
"213 250 OFFCURVE",
"189 226 CURVE SMOOTH",
"34 70 LINE",
"34 0 LINE",
"358 0 LINE",
"358 84 LINE",
"172 84 LINE",
"263 173 LINE SMOOTH",
"311 219 OFFCURVE",
"345 266 OFFCURVE",
"345 311 CURVE",
"345 377 OFFCURVE",
"283 420 OFFCURVE",
"198 420 CURVE"
);
}
);
width = 387;
}
);
},
{
glyphname = three.dnom;
layers = (
{
layerId = "56A87FB8-163D-4578-80C9-082B510993A7";
paths = (
{
closed = 1;
nodes = (
"205 248 LINE",
"314 352 LINE",
"314 415 LINE",
"28 415 LINE",
"28 335 LINE",
"190 335 LINE",
"90 238 LINE",
"90 180 LINE",
"159 180 LINE SMOOTH",
"202 180 OFFCURVE",
"227 163 OFFCURVE",
"227 130 CURVE SMOOTH",
"227 96 OFFCURVE",
"203 77 OFFCURVE",
"159 77 CURVE SMOOTH",
"121 77 OFFCURVE",
"83 94 OFFCURVE",
"51 129 CURVE",
"7 46 LINE",
"46 15 OFFCURVE",
"108 -5 OFFCURVE",
"168 -5 CURVE SMOOTH",
"269 -5 OFFCURVE",
"334 51 OFFCURVE",
"334 131 CURVE SMOOTH",
"334 195 OFFCURVE",
"289 235 OFFCURVE",
"226 244 CURVE SMOOTH"
);
}
);
width = 361;
}
);
},
{
glyphname = four.dnom;
layers = (
{
layerId = "56A87FB8-163D-4578-80C9-082B510993A7";
paths = (
{
closed = 1;
nodes = (
"267 416 LINE",
"162 416 LINE",
"25 163 LINE",
"25 90 LINE",
"231 90 LINE",
"231 0 LINE",
"333 0 LINE",
"333 90 LINE",
"392 90 LINE",
"392 168 LINE",
"333 168 LINE",
"333 260 LINE",
"231 260 LINE",
"231 168 LINE",
"136 168 LINE"
);
}
);
width = 407;
}
);
},
{
glyphname = five.dnom;
layers = (
{
layerId = "56A87FB8-163D-4578-80C9-082B510993A7";
paths = (
{
closed = 1;
nodes = (
"337 416 LINE",
"53 416 LINE",
"53 177 LINE",
"81 180 OFFCURVE",
"149 182 OFFCURVE",
"171 182 CURVE",
"214 182 OFFCURVE",
"239 164 OFFCURVE",
"239 133 CURVE",
"239 97 OFFCURVE",
"214 77 OFFCURVE",
"171 77 CURVE",
"133 77 OFFCURVE",
"93 95 OFFCURVE",
"61 131 CURVE",
"17 47 LINE",
"62 16 OFFCURVE",
"128 -5 OFFCURVE",
"184 -5 CURVE",
"289 -5 OFFCURVE",
"356 53 OFFCURVE",
"356 140 CURVE",
"356 215 OFFCURVE",
"292 262 OFFCURVE",
"193 262 CURVE",
"184 262 OFFCURVE",
"164 261 OFFCURVE",
"154 259 CURVE",
"154 332 LINE",
"337 332 LINE"
);
}
);
width = 383;
}
);
},
{
glyphname = six.dnom;
layers = (
{
layerId = "56A87FB8-163D-4578-80C9-082B510993A7";
paths = (
{
closed = 1;
nodes = (
"112 420 OFFCURVE",
"34 334 OFFCURVE",
"34 202 CURVE SMOOTH",
"34 74 OFFCURVE",
"105 -5 OFFCURVE",
"221 -5 CURVE SMOOTH",
"318 -5 OFFCURVE",
"382 51 OFFCURVE",
"382 139 CURVE SMOOTH",
"382 220 OFFCURVE",
"328 273 OFFCURVE",
"243 273 CURVE SMOOTH",
"192 273 OFFCURVE",
"156 254 OFFCURVE",
"139 224 CURVE",
"135 296 OFFCURVE",
"172 336 OFFCURVE",
"240 336 CURVE SMOOTH",
"275 336 OFFCURVE",
"307 327 OFFCURVE",
"332 309 CURVE",
"374 386 LINE",
"337 407 OFFCURVE",
"282 420 OFFCURVE",
"234 420 CURVE SMOOTH"
);
},
{
closed = 1;
nodes = (
"258 194 OFFCURVE",
"281 174 OFFCURVE",
"281 140 CURVE SMOOTH",
"281 103 OFFCURVE",
"257 83 OFFCURVE",
"216 83 CURVE SMOOTH",
"171 83 OFFCURVE",
"151 108 OFFCURVE",
"151 138 CURVE",
"151 171 OFFCURVE",
"175 194 OFFCURVE",
"218 194 CURVE SMOOTH"
);
}
);
width = 407;
}
);
},
{
glyphname = seven.dnom;
layers = (
{
layerId = "56A87FB8-163D-4578-80C9-082B510993A7";
paths = (
{
closed = 1;
nodes = (
"366 416 LINE",
"28 416 LINE",
"28 272 LINE",
"124 272 LINE",
"124 332 LINE",
"246 332 LINE",
"89 0 LINE",
"205 0 LINE",
"366 341 LINE"
);
}
);
width = 384;
}
);
},
{
glyphname = eight.dnom;
layers = (
{
layerId = "56A87FB8-163D-4578-80C9-082B510993A7";
paths = (
{
closed = 1;
nodes = (
"112 420 OFFCURVE",
"51 378 OFFCURVE",
"51 312 CURVE SMOOTH",
"51 276 OFFCURVE",
"75 242 OFFCURVE",
"112 222 CURVE",
"61 204 OFFCURVE",
"29 163 OFFCURVE",
"29 116 CURVE SMOOTH",
"29 42 OFFCURVE",
"98 -5 OFFCURVE",
"207 -5 CURVE SMOOTH",
"315 -5 OFFCURVE",
"384 42 OFFCURVE",
"384 118 CURVE SMOOTH",
"384 164 OFFCURVE",
"354 204 OFFCURVE",
"307 222 CURVE",
"340 241 OFFCURVE",
"362 273 OFFCURVE",
"362 308 CURVE SMOOTH",
"362 377 OFFCURVE",
"301 420 OFFCURVE",
"206 420 CURVE SMOOTH"
);
},
{
closed = 1;
nodes = (
"255 179 OFFCURVE",
"282 160 OFFCURVE",
"282 127 CURVE SMOOTH",
"282 93 OFFCURVE",
"255 75 OFFCURVE",
"207 75 CURVE SMOOTH",
"159 75 OFFCURVE",
"133 93 OFFCURVE",
"133 127 CURVE SMOOTH",
"133 160 OFFCURVE",
"160 179 OFFCURVE",
"207 179 CURVE SMOOTH"
);
},
{
closed = 1;
nodes = (
"247 349 OFFCURVE",
"269 332 OFFCURVE",
"269 302 CURVE SMOOTH",
"269 273 OFFCURVE",
"247 257 OFFCURVE",
"206 257 CURVE SMOOTH",
"166 257 OFFCURVE",
"143 273 OFFCURVE",
"143 302 CURVE SMOOTH",
"143 332 OFFCURVE",
"166 349 OFFCURVE",
"206 349 CURVE SMOOTH"
);
}
);
width = 413;
}
);
},
{
glyphname = nine.dnom;
layers = (
{
layerId = "56A87FB8-163D-4578-80C9-082B510993A7";
paths = (
{
closed = 1;
nodes = (
"297 -5 OFFCURVE",
"375 82 OFFCURVE",
"375 214 CURVE SMOOTH",
"375 341 OFFCURVE",
"305 420 OFFCURVE",
"189 420 CURVE SMOOTH",
"91 420 OFFCURVE",
"27 365 OFFCURVE",
"27 277 CURVE SMOOTH",
"27 196 OFFCURVE",
"82 142 OFFCURVE",
"166 142 CURVE SMOOTH",
"218 142 OFFCURVE",
"253 163 OFFCURVE",
"271 191 CURVE",
"274 119 OFFCURVE",
"238 80 OFFCURVE",
"169 80 CURVE SMOOTH",
"135 80 OFFCURVE",
"103 89 OFFCURVE",
"77 106 CURVE",
"36 30 LINE",
"72 9 OFFCURVE",
"127 -5 OFFCURVE",
"176 -5 CURVE SMOOTH"
);
},
{
closed = 1;
nodes = (
"152 222 OFFCURVE",
"129 242 OFFCURVE",
"129 276 CURVE SMOOTH",
"129 313 OFFCURVE",
"153 333 OFFCURVE",
"193 333 CURVE SMOOTH",
"239 333 OFFCURVE",
"259 308 OFFCURVE",
"259 278 CURVE",
"259 245 OFFCURVE",
"235 222 OFFCURVE",
"192 222 CURVE SMOOTH"
);
}
);
width = 409;
}
);
},
{
glyphname = zero.numr;
layers = (
{
layerId = "56A87FB8-163D-4578-80C9-082B510993A7";
paths = (
{
closed = 1;
nodes = (
"108 703 OFFCURVE",
"34 623 OFFCURVE",
"34 493 CURVE SMOOTH",
"34 362 OFFCURVE",
"108 281 OFFCURVE",
"226 281 CURVE SMOOTH",
"344 281 OFFCURVE",
"418 362 OFFCURVE",
"418 493 CURVE SMOOTH",
"418 623 OFFCURVE",
"344 703 OFFCURVE",
"226 703 CURVE SMOOTH"
);
},
{
closed = 1;
nodes = (
"284 617 OFFCURVE",
"319 570 OFFCURVE",
"319 493 CURVE SMOOTH",
"319 414 OFFCURVE",
"284 368 OFFCURVE",
"226 368 CURVE SMOOTH",
"167 368 OFFCURVE",
"133 414 OFFCURVE",
"133 493 CURVE SMOOTH",
"133 570 OFFCURVE",
"167 617 OFFCURVE",
"226 617 CURVE SMOOTH"
);
}
);
width = 451;
}
);
},
{
glyphname = one.numr;
layers = (
{
layerId = "56A87FB8-163D-4578-80C9-082B510993A7";
paths = (
{
closed = 1;
nodes = (
"201 700 LINE",
"12 700 LINE",
"12 613 LINE",
"93 613 LINE",
"93 284 LINE",
"201 284 LINE"
);
}
);
width = 270;
}
);
},
{
glyphname = two.numr;
layers = (
{
layerId = "56A87FB8-163D-4578-80C9-082B510993A7";
paths = (
{
closed = 1;
nodes = (
"135 704 OFFCURVE",
"76 681 OFFCURVE",
"21 642 CURVE",
"63 563 LINE",
"102 596 OFFCURVE",
"146 616 OFFCURVE",
"181 616 CURVE",
"212 616 OFFCURVE",
"231 603 OFFCURVE",
"231 580 CURVE",
"231 561 OFFCURVE",
"213 535 OFFCURVE",
"189 511 CURVE SMOOTH",
"34 354 LINE",
"34 284 LINE",
"358 284 LINE",
"358 369 LINE",
"172 369 LINE",
"263 457 LINE SMOOTH",
"311 503 OFFCURVE",
"345 550 OFFCURVE",
"345 595 CURVE",
"345 661 OFFCURVE",
"283 704 OFFCURVE",
"198 704 CURVE"
);
}
);
width = 387;
}
);
},
{
glyphname = three.numr;
layers = (
{
layerId = "56A87FB8-163D-4578-80C9-082B510993A7";
paths = (
{
closed = 1;
nodes = (
"205 532 LINE",
"314 637 LINE",
"314 699 LINE",
"28 699 LINE",
"28 619 LINE",
"190 619 LINE",
"90 522 LINE",
"90 464 LINE",
"159 464 LINE SMOOTH",
"202 464 OFFCURVE",
"227 447 OFFCURVE",
"227 414 CURVE SMOOTH",
"227 381 OFFCURVE",
"203 361 OFFCURVE",
"159 361 CURVE SMOOTH",
"121 361 OFFCURVE",
"83 379 OFFCURVE",
"51 413 CURVE",
"7 330 LINE",
"46 299 OFFCURVE",
"108 279 OFFCURVE",
"168 279 CURVE SMOOTH",
"269 279 OFFCURVE",
"334 335 OFFCURVE",
"334 415 CURVE SMOOTH",
"334 479 OFFCURVE",
"289 519 OFFCURVE",
"226 528 CURVE SMOOTH"
);
}
);
width = 361;
}
);
},
{
glyphname = four.numr;
layers = (
{
layerId = "56A87FB8-163D-4578-80C9-082B510993A7";
paths = (
{
closed = 1;
nodes = (
"267 700 LINE",
"162 700 LINE",
"25 447 LINE",
"25 374 LINE",
"231 374 LINE",
"231 284 LINE",
"333 284 LINE",
"333 374 LINE",
"392 374 LINE",
"392 453 LINE",
"333 453 LINE",
"333 544 LINE",
"231 544 LINE",
"231 453 LINE",
"136 453 LINE"
);
}
);
width = 407;
}
);
},
{
glyphname = five.numr;
layers = (
{
layerId = "56A87FB8-163D-4578-80C9-082B510993A7";
paths = (
{
closed = 1;
nodes = (
"337 700 LINE",
"53 700 LINE",
"53 461 LINE",
"81 465 OFFCURVE",
"149 466 OFFCURVE",
"171 466 CURVE",
"214 466 OFFCURVE",
"239 448 OFFCURVE",
"239 417 CURVE",
"239 381 OFFCURVE",
"214 361 OFFCURVE",
"171 361 CURVE",
"133 361 OFFCURVE",
"93 380 OFFCURVE",
"61 415 CURVE",
"17 331 LINE",
"62 300 OFFCURVE",
"128 280 OFFCURVE",
"184 280 CURVE",
"289 280 OFFCURVE",
"356 337 OFFCURVE",
"356 424 CURVE",
"356 499 OFFCURVE",
"292 546 OFFCURVE",
"193 546 CURVE",
"184 546 OFFCURVE",
"164 545 OFFCURVE",
"154 543 CURVE",
"154 616 LINE",
"337 616 LINE"
);
}
);
width = 383;
}
);
},
{
glyphname = six.numr;
layers = (
{
layerId = "56A87FB8-163D-4578-80C9-082B510993A7";
paths = (
{
closed = 1;
nodes = (
"112 704 OFFCURVE",
"34 618 OFFCURVE",
"34 486 CURVE SMOOTH",
"34 358 OFFCURVE",
"105 279 OFFCURVE",
"221 279 CURVE SMOOTH",
"318 279 OFFCURVE",
"382 335 OFFCURVE",
"382 423 CURVE SMOOTH",
"382 504 OFFCURVE",
"328 558 OFFCURVE",
"243 558 CURVE SMOOTH",
"192 558 OFFCURVE",
"156 538 OFFCURVE",
"139 508 CURVE",
"135 580 OFFCURVE",
"172 620 OFFCURVE",
"240 620 CURVE SMOOTH",
"275 620 OFFCURVE",
"307 611 OFFCURVE",
"332 593 CURVE",
"374 670 LINE",
"337 691 OFFCURVE",
"282 704 OFFCURVE",
"234 704 CURVE SMOOTH"
);
},
{
closed = 1;
nodes = (
"258 478 OFFCURVE",
"281 459 OFFCURVE",
"281 424 CURVE SMOOTH",
"281 387 OFFCURVE",
"257 367 OFFCURVE",
"216 367 CURVE SMOOTH",
"171 367 OFFCURVE",
"151 392 OFFCURVE",
"151 422 CURVE",
"151 455 OFFCURVE",
"175 478 OFFCURVE",
"218 478 CURVE SMOOTH"
);
}
);
width = 407;
}
);
},
{
glyphname = seven.numr;
layers = (
{
layerId = "56A87FB8-163D-4578-80C9-082B510993A7";
paths = (
{
closed = 1;
nodes = (
"366 700 LINE",
"28 700 LINE",
"28 556 LINE",
"124 556 LINE",
"124 616 LINE",
"246 616 LINE",
"89 284 LINE",
"205 284 LINE",
"366 625 LINE"
);
}
);
width = 384;
}
);
},
{
glyphname = eight.numr;
layers = (
{
layerId = "56A87FB8-163D-4578-80C9-082B510993A7";
paths = (
{
closed = 1;
nodes = (
"112 704 OFFCURVE",
"51 662 OFFCURVE",
"51 596 CURVE SMOOTH",
"51 560 OFFCURVE",
"75 526 OFFCURVE",
"112 507 CURVE",
"61 488 OFFCURVE",
"29 447 OFFCURVE",
"29 400 CURVE SMOOTH",
"29 326 OFFCURVE",
"98 279 OFFCURVE",
"207 279 CURVE SMOOTH",
"315 279 OFFCURVE",
"384 326 OFFCURVE",
"384 402 CURVE SMOOTH",
"384 448 OFFCURVE",
"354 488 OFFCURVE",
"307 507 CURVE",
"340 525 OFFCURVE",
"362 557 OFFCURVE",
"362 592 CURVE SMOOTH",
"362 661 OFFCURVE",
"301 704 OFFCURVE",
"206 704 CURVE SMOOTH"
);
},
{
closed = 1;
nodes = (
"255 463 OFFCURVE",
"282 444 OFFCURVE",
"282 411 CURVE SMOOTH",
"282 377 OFFCURVE",
"255 359 OFFCURVE",
"207 359 CURVE SMOOTH",
"159 359 OFFCURVE",
"133 377 OFFCURVE",
"133 411 CURVE SMOOTH",
"133 444 OFFCURVE",
"160 463 OFFCURVE",
"207 463 CURVE SMOOTH"
);
},
{
closed = 1;
nodes = (
"247 633 OFFCURVE",
"269 616 OFFCURVE",
"269 586 CURVE SMOOTH",
"269 558 OFFCURVE",
"247 542 OFFCURVE",
"206 542 CURVE SMOOTH",
"166 542 OFFCURVE",
"143 558 OFFCURVE",
"143 586 CURVE SMOOTH",
"143 616 OFFCURVE",
"166 633 OFFCURVE",
"206 633 CURVE SMOOTH"
);
}
);
width = 413;
}
);
},
{
glyphname = nine.numr;
layers = (
{
layerId = "56A87FB8-163D-4578-80C9-082B510993A7";
paths = (
{
closed = 1;
nodes = (
"297 279 OFFCURVE",
"375 366 OFFCURVE",
"375 498 CURVE SMOOTH",
"375 626 OFFCURVE",
"305 704 OFFCURVE",
"189 704 CURVE SMOOTH",
"91 704 OFFCURVE",
"27 649 OFFCURVE",
"27 561 CURVE SMOOTH",
"27 480 OFFCURVE",
"82 426 OFFCURVE",
"166 426 CURVE SMOOTH",
"218 426 OFFCURVE",
"253 447 OFFCURVE",
"271 475 CURVE",
"274 403 OFFCURVE",
"238 364 OFFCURVE",
"169 364 CURVE SMOOTH",
"135 364 OFFCURVE",
"103 373 OFFCURVE",
"77 391 CURVE",
"36 314 LINE",
"72 293 OFFCURVE",
"127 279 OFFCURVE",
"176 279 CURVE SMOOTH"
);
},
{
closed = 1;
nodes = (
"152 506 OFFCURVE",
"129 526 OFFCURVE",
"129 560 CURVE SMOOTH",
"129 597 OFFCURVE",
"153 617 OFFCURVE",
"193 617 CURVE SMOOTH",
"239 617 OFFCURVE",
"259 592 OFFCURVE",
"259 562 CURVE",
"259 529 OFFCURVE",
"235 506 OFFCURVE",
"192 506 CURVE SMOOTH"
);
}
);
width = 409;
}
);
},
{
glyphname = onesuperior;
layers = (
{
layerId = "56A87FB8-163D-4578-80C9-082B510993A7";
paths = (
{
closed = 1;
nodes = (
"201 700 LINE",
"12 700 LINE",
"12 613 LINE",
"93 613 LINE",
"93 284 LINE",
"201 284 LINE"
);
}
);
width = 270;
}
);
unicode = 00B9;
},
{
glyphname = twosuperior;
layers = (
{
layerId = "56A87FB8-163D-4578-80C9-082B510993A7";
paths = (
{
closed = 1;
nodes = (
"135 704 OFFCURVE",
"76 681 OFFCURVE",
"21 642 CURVE",
"63 563 LINE",
"102 596 OFFCURVE",
"146 616 OFFCURVE",
"181 616 CURVE",
"212 616 OFFCURVE",
"231 603 OFFCURVE",
"231 580 CURVE",
"231 561 OFFCURVE",
"213 535 OFFCURVE",
"189 511 CURVE SMOOTH",
"34 354 LINE",
"34 284 LINE",
"358 284 LINE",
"358 369 LINE",
"172 369 LINE",
"263 457 LINE SMOOTH",
"311 503 OFFCURVE",
"345 550 OFFCURVE",
"345 595 CURVE",
"345 661 OFFCURVE",
"283 704 OFFCURVE",
"198 704 CURVE"
);
}
);
width = 387;
}
);
unicode = 00B2;
},
{
glyphname = threesuperior;
layers = (
{
layerId = "56A87FB8-163D-4578-80C9-082B510993A7";
paths = (
{
closed = 1;
nodes = (
"205 532 LINE",
"314 637 LINE",
"314 699 LINE",
"28 699 LINE",
"28 619 LINE",
"190 619 LINE",
"90 522 LINE",
"90 464 LINE",
"159 464 LINE SMOOTH",
"202 464 OFFCURVE",
"227 447 OFFCURVE",
"227 414 CURVE SMOOTH",
"227 381 OFFCURVE",
"203 361 OFFCURVE",
"159 361 CURVE SMOOTH",
"121 361 OFFCURVE",
"83 379 OFFCURVE",
"51 413 CURVE",
"7 330 LINE",
"46 299 OFFCURVE",
"108 279 OFFCURVE",
"168 279 CURVE SMOOTH",
"269 279 OFFCURVE",
"334 335 OFFCURVE",
"334 415 CURVE SMOOTH",
"334 479 OFFCURVE",
"289 519 OFFCURVE",
"226 528 CURVE SMOOTH"
);
}
);
width = 361;
}
);
unicode = 00B3;
},
{
glyphname = fraction;
layers = (
{
layerId = "56A87FB8-163D-4578-80C9-082B510993A7";
paths = (
{
closed = 1;
nodes = (
"375 700 LINE",
"230 700 LINE",
"-275 0 LINE",
"-130 0 LINE"
);
}
);
width = 105;
}
);
unicode = 2044;
},
{
glyphname = "zero-gurmukhi";
layers = (
{
layerId = "56A87FB8-163D-4578-80C9-082B510993A7";
paths = (
{
closed = 1;
nodes = (
"588 43 OFFCURVE",
"704 184 OFFCURVE",
"704 342 CURVE SMOOTH",
"704 503 OFFCURVE",
"584 650 OFFCURVE",
"375 650 CURVE SMOOTH",
"170 650 OFFCURVE",
"55 509 OFFCURVE",
"55 352 CURVE SMOOTH",
"55 190 OFFCURVE",
"175 43 OFFCURVE",
"386 43 CURVE SMOOTH"
);
},
{
closed = 1;
nodes = (
"285 170 OFFCURVE",
"207 234 OFFCURVE",
"207 342 CURVE SMOOTH",
"207 453 OFFCURVE",
"289 521 OFFCURVE",
"384 521 CURVE SMOOTH",
"475 521 OFFCURVE",
"551 458 OFFCURVE",
"551 348 CURVE SMOOTH",
"551 236 OFFCURVE",
"470 170 OFFCURVE",
"376 170 CURVE SMOOTH"
);
}
);
width = 759;
}
);
unicode = 0A66;
},
{
glyphname = "one-gurmukhi";
layers = (
{
layerId = "56A87FB8-163D-4578-80C9-082B510993A7";
paths = (
{
closed = 1;
nodes = (
"580 0 LINE",
"580 392 LINE SMOOTH",
"580 593 OFFCURVE",
"450 706 OFFCURVE",
"285 706 CURVE SMOOTH",
"158 706 OFFCURVE",
"46 630 OFFCURVE",
"46 482 CURVE SMOOTH",
"46 329 OFFCURVE",
"176 238 OFFCURVE",
"306 238 CURVE SMOOTH",
"363 238 OFFCURVE",
"415 250 OFFCURVE",
"458 282 CURVE",
"433 308 LINE",
"433 0 LINE"
);
},
{
closed = 1;
nodes = (
"239 365 OFFCURVE",
"187 403 OFFCURVE",
"187 469 CURVE SMOOTH",
"187 537 OFFCURVE",
"241 577 OFFCURVE",
"305 577 CURVE SMOOTH",
"382 577 OFFCURVE",
"444 526 OFFCURVE",
"442 407 CURVE",
"447 483 LINE",
"438 406 OFFCURVE",
"372 365 OFFCURVE",
"303 365 CURVE SMOOTH"
);
}
);
width = 649;
}
);
unicode = 0A67;
},
{
glyphname = "two-gurmukhi";
layers = (
{
layerId = "56A87FB8-163D-4578-80C9-082B510993A7";
paths = (
{
closed = 1;
nodes = (
"588 9 LINE",
"588 98 OFFCURVE",
"537 217 OFFCURVE",
"422 281 CURVE",
"425 244 LINE",
"515 291 OFFCURVE",
"563 365 OFFCURVE",
"563 458 CURVE SMOOTH",
"563 622 OFFCURVE",
"420 708 OFFCURVE",
"255 708 CURVE SMOOTH",
"173 708 OFFCURVE",
"97 687 OFFCURVE",
"39 642 CURVE",
"97 529 LINE",
"149 558 OFFCURVE",
"215 577 OFFCURVE",
"275 577 CURVE SMOOTH",
"361 577 OFFCURVE",
"423 538 OFFCURVE",
"423 461 CURVE SMOOTH",
"423 394 OFFCURVE",
"373 341 OFFCURVE",
"271 330 CURVE",
"341 328 LINE",
"298 346 OFFCURVE",
"247 355 OFFCURVE",
"198 355 CURVE SMOOTH",
"157 355 OFFCURVE",
"116 348 OFFCURVE",
"78 333 CURVE",
"87 209 LINE",
"121 199 OFFCURVE",
"161 194 OFFCURVE",
"205 194 CURVE SMOOTH",
"256 194 OFFCURVE",
"315 200 OFFCURVE",
"364 216 CURVE",
"301 218 LINE",
"416 200 OFFCURVE",
"436 89 OFFCURVE",
"436 13 CURVE",
"436 1 LINE",
"588 0 LINE"
);
}
);
width = 629;
}
);
unicode = 0A68;
},
{
glyphname = "three-gurmukhi";
layers = (
{
layerId = "56A87FB8-163D-4578-80C9-082B510993A7";
paths = (
{
closed = 1;
nodes = (
"305 -119 LINE",
"321 15 LINE",
"275 -10 LINE",
"286 -12 OFFCURVE",
"297 -12 OFFCURVE",
"307 -12 CURVE SMOOTH",
"487 -12 OFFCURVE",
"587 76 OFFCURVE",
"587 181 CURVE SMOOTH",
"587 259 OFFCURVE",
"531 325 OFFCURVE",
"417 356 CURVE",
"422 333 LINE",
"526 360 OFFCURVE",
"579 416 OFFCURVE",
"579 496 CURVE SMOOTH",
"579 636 OFFCURVE",
"434 707 OFFCURVE",
"282 707 CURVE SMOOTH",
"198 707 OFFCURVE",
"114 685 OFFCURVE",
"58 642 CURVE",
"116 529 LINE",
"161 557 OFFCURVE",
"232 577 OFFCURVE",
"299 577 CURVE SMOOTH",
"373 577 OFFCURVE",
"432 554 OFFCURVE",
"432 497 CURVE SMOOTH",
"432 452 OFFCURVE",
"394 410 OFFCURVE",
"275 413 CURVE",
"359 405 LINE",
"310 425 OFFCURVE",
"260 430 OFFCURVE",
"214 430 CURVE SMOOTH",
"183 430 OFFCURVE",
"152 427 OFFCURVE",
"122 420 CURVE",
"131 295 LINE",
"164 285 OFFCURVE",
"202 280 OFFCURVE",
"241 280 CURVE SMOOTH",
"288 280 OFFCURVE",
"340 288 OFFCURVE",
"383 300 CURVE",
"314 299 LINE",
"404 298 OFFCURVE",
"438 254 OFFCURVE",
"438 205 CURVE SMOOTH",
"438 135 OFFCURVE",
"369 106 OFFCURVE",
"288 106 CURVE SMOOTH",
"277 106 OFFCURVE",
"266 107 OFFCURVE",
"255 108 CURVE",
"305 87 LINE",
"267 149 OFFCURVE",
"182 174 OFFCURVE",
"95 184 CURVE",
"57 79 LINE",
"84 47 OFFCURVE",
"125 21 OFFCURVE",
"168 6 CURVE",
"154 -104 LINE",
"154 -119 LINE"
);
}
);
width = 645;
}
);
unicode = 0A69;
},
{
glyphname = "four-gurmukhi";
layers = (
{
layerId = "56A87FB8-163D-4578-80C9-082B510993A7";
paths = (
{
closed = 1;
nodes = (
"519 -7 OFFCURVE",
"625 66 OFFCURVE",
"625 173 CURVE SMOOTH",
"625 237 OFFCURVE",
"576 291 OFFCURVE",
"492 322 CURVE",
"492 294 LINE",
"583 328 OFFCURVE",
"644 394 OFFCURVE",
"644 492 CURVE SMOOTH",
"644 607 OFFCURVE",
"538 685 OFFCURVE",
"411 702 CURVE",
"397 574 LINE",
"453 565 OFFCURVE",
"491 535 OFFCURVE",
"491 490 CURVE SMOOTH",
"491 431 OFFCURVE",
"428 396 OFFCURVE",
"350 396 CURVE SMOOTH",
"272 396 OFFCURVE",
"209 431 OFFCURVE",
"209 489 CURVE SMOOTH",
"209 535 OFFCURVE",
"248 565 OFFCURVE",
"304 574 CURVE",
"290 702 LINE",
"158 687 OFFCURVE",
"56 611 OFFCURVE",
"56 500 CURVE SMOOTH",
"56 418 OFFCURVE",
"118 360 OFFCURVE",
"211 332 CURVE",
"201 358 LINE",
"127 325 OFFCURVE",
"75 268 OFFCURVE",
"75 182 CURVE SMOOTH",
"75 70 OFFCURVE",
"183 -7 OFFCURVE",
"353 -7 CURVE SMOOTH"
);
},
{
closed = 1;
nodes = (
"265 102 OFFCURVE",
"224 145 OFFCURVE",
"224 191 CURVE SMOOTH",
"224 238 OFFCURVE",
"268 283 OFFCURVE",
"349 283 CURVE SMOOTH",
"431 283 OFFCURVE",
"474 240 OFFCURVE",
"474 194 CURVE SMOOTH",
"474 148 OFFCURVE",
"430 102 OFFCURVE",
"345 102 CURVE SMOOTH"
);
}
);
width = 699;
}
);
unicode = 0A6A;
},
{
glyphname = "five-gurmukhi";
layers = (
{
layerId = "56A87FB8-163D-4578-80C9-082B510993A7";
paths = (
{
closed = 1;
nodes = (
"396 94 OFFCURVE",
"475 111 OFFCURVE",
"525 143 CURVE",
"495 318 LINE",
"454 242 OFFCURVE",
"381 221 OFFCURVE",
"323 221 CURVE SMOOTH",
"200 221 OFFCURVE",
"177 288 OFFCURVE",
"172 317 CURVE",
"152 244 LINE",
"241 301 OFFCURVE",
"271 386 OFFCURVE",
"271 480 CURVE SMOOTH",
"271 549 OFFCURVE",
"254 623 OFFCURVE",
"234 691 CURVE",
"92 690 LINE",
"93 675 LINE",
"112 624 OFFCURVE",
"125 568 OFFCURVE",
"125 513 CURVE SMOOTH",
"125 440 OFFCURVE",
"101 372 OFFCURVE",
"37 325 CURVE",
"64 178 OFFCURVE",
"185 94 OFFCURVE",
"333 94 CURVE SMOOTH"
);
},
{
closed = 1;
nodes = (
"634 0 LINE",
"634 691 LINE",
"483 691 LINE",
"483 0 LINE"
);
}
);
width = 704;
}
);
unicode = 0A6B;
},
{
glyphname = "six-gurmukhi";
layers = (
{
layerId = "56A87FB8-163D-4578-80C9-082B510993A7";
paths = (
{
closed = 1;
nodes = (
"431 -14 OFFCURVE",
"508 0 OFFCURVE",
"564 29 CURVE",
"533 148 LINE",
"483 131 OFFCURVE",
"409 115 OFFCURVE",
"344 115 CURVE SMOOTH",
"262 115 OFFCURVE",
"195 139 OFFCURVE",
"195 199 CURVE SMOOTH",
"195 251 OFFCURVE",
"243 294 OFFCURVE",
"387 288 CURVE",
"299 296 LINE",
"338 284 OFFCURVE",
"376 280 OFFCURVE",
"410 280 CURVE SMOOTH",
"443 280 OFFCURVE",
"474 284 OFFCURVE",
"504 291 CURVE",
"513 415 LINE",
"474 425 OFFCURVE",
"430 430 OFFCURVE",
"390 430 CURVE SMOOTH",
"336 430 OFFCURVE",
"284 422 OFFCURVE",
"241 408 CURVE",
"305 403 LINE",
"231 414 OFFCURVE",
"206 451 OFFCURVE",
"206 491 CURVE SMOOTH",
"206 554 OFFCURVE",
"267 581 OFFCURVE",
"345 581 CURVE SMOOTH",
"356 581 OFFCURVE",
"367 579 OFFCURVE",
"377 579 CURVE",
"320 596 LINE",
"360 563 OFFCURVE",
"412 545 OFFCURVE",
"465 543 CURVE SMOOTH",
"488 543 OFFCURVE",
"510 545 OFFCURVE",
"531 551 CURVE",
"554 661 LINE",
"500 685 OFFCURVE",
"429 704 OFFCURVE",
"356 707 CURVE",
"405 688 LINE",
"389 696 OFFCURVE",
"377 719 OFFCURVE",
"377 745 CURVE SMOOTH",
"377 797 OFFCURVE",
"416 821 OFFCURVE",
"457 821 CURVE SMOOTH",
"472 821 OFFCURVE",
"488 818 OFFCURVE",
"503 811 CURVE",
"552 909 LINE",
"524 931 OFFCURVE",
"489 940 OFFCURVE",
"451 940 CURVE SMOOTH",
"352 940 OFFCURVE",
"257 880 OFFCURVE",
"257 748 CURVE SMOOTH",
"257 722 OFFCURVE",
"261 698 OFFCURVE",
"273 673 CURVE",
"302 704 LINE",
"293 704 OFFCURVE",
"285 704 OFFCURVE",
"276 704 CURVE SMOOTH",
"136 687 OFFCURVE",
"62 605 OFFCURVE",
"62 517 CURVE SMOOTH",
"62 451 OFFCURVE",
"104 381 OFFCURVE",
"202 338 CURVE",
"203 370 LINE",
"103 340 OFFCURVE",
"56 278 OFFCURVE",
"56 204 CURVE SMOOTH",
"56 63 OFFCURVE",
"219 -14 OFFCURVE",
"368 -14 CURVE SMOOTH"
);
}
);
width = 621;
}
);
unicode = 0A6C;
},
{
glyphname = "seven-gurmukhi";
layers = (
{
layerId = "56A87FB8-163D-4578-80C9-082B510993A7";
paths = (
{
closed = 1;
nodes = (
"202 706 OFFCURVE",
"115 601 OFFCURVE",
"115 487 CURVE SMOOTH",
"115 438 OFFCURVE",
"132 391 OFFCURVE",
"160 350 CURVE",
"287 404 LINE",
"276 420 OFFCURVE",
"266 456 OFFCURVE",
"266 481 CURVE SMOOTH",
"266 528 OFFCURVE",
"302 574 OFFCURVE",
"367 574 CURVE SMOOTH",
"458 574 OFFCURVE",
"502 482 OFFCURVE",
"502 373 CURVE SMOOTH",
"502 202 OFFCURVE",
"395 115 OFFCURVE",
"245 115 CURVE SMOOTH",
"188 115 OFFCURVE",
"128 128 OFFCURVE",
"66 151 CURVE",
"35 32 LINE",
"104 3 OFFCURVE",
"184 -13 OFFCURVE",
"261 -13 CURVE SMOOTH",
"470 -13 OFFCURVE",
"646 101 OFFCURVE",
"646 363 CURVE SMOOTH",
"646 557 OFFCURVE",
"540 706 OFFCURVE",
"359 706 CURVE SMOOTH"
);
}
);
width = 699;
}
);
unicode = 0A6D;
},
{
glyphname = "eight-gurmukhi";
layers = (
{
layerId = "56A87FB8-163D-4578-80C9-082B510993A7";
paths = (
{
closed = 1;
nodes = (
"570 -13 OFFCURVE",
"634 3 OFFCURVE",
"683 28 CURVE",
"652 148 LINE",
"600 129 OFFCURVE",
"544 115 OFFCURVE",
"487 115 CURVE SMOOTH",
"382 115 OFFCURVE",
"305 158 OFFCURVE",
"305 259 CURVE SMOOTH",
"305 448 LINE",
"657 448 LINE",
"657 574 LINE",
"279 574 LINE",
"237 620 OFFCURVE",
"148 640 OFFCURVE",
"70 646 CURVE",
"24 542 LINE",
"61 498 OFFCURVE",
"111 471 OFFCURVE",
"162 458 CURVE",
"162 274 LINE SMOOTH",
"162 104 OFFCURVE",
"318 -13 OFFCURVE",
"499 -13 CURVE SMOOTH"
);
}
);
width = 738;
}
);
unicode = 0A6E;
},
{
glyphname = "nine-gurmukhi";
layers = (
{
components = (
{
name = "eight-gurmukhi";
}
);
layerId = "56A87FB8-163D-4578-80C9-082B510993A7";
paths = (
{
closed = 1;
nodes = (
"652 438 OFFCURVE",
"679 443 OFFCURVE",
"703 451 CURVE",
"658 574 LINE",
"645 569 OFFCURVE",
"631 567 OFFCURVE",
"617 567 CURVE SMOOTH",
"574 567 OFFCURVE",
"534 592 OFFCURVE",
"534 646 CURVE SMOOTH",
"534 698 OFFCURVE",
"573 723 OFFCURVE",
"614 723 CURVE SMOOTH",
"629 723 OFFCURVE",
"645 720 OFFCURVE",
"659 713 CURVE",
"709 811 LINE",
"681 833 OFFCURVE",
"645 841 OFFCURVE",
"609 841 CURVE SMOOTH",
"508 841 OFFCURVE",
"414 781 OFFCURVE",
"414 648 CURVE SMOOTH",
"414 505 OFFCURVE",
"521 438 OFFCURVE",
"625 438 CURVE SMOOTH"
);
}
);
width = 756;
}
);
leftMetricsKey = "eight-gurmukhi";
unicode = 0A6F;
},
{
glyphname = asterisk;
layers = (
{
layerId = "56A87FB8-163D-4578-80C9-082B510993A7";
paths = (
{
closed = 1;
nodes = (
"344 507 LINE",
"257 555 LINE",
"344 602 LINE",
"305 672 LINE",
"221 622 LINE",
"223 719 LINE",
"145 719 LINE",
"146 622 LINE",
"62 673 LINE",
"23 602 LINE",
"109 555 LINE",
"23 507 LINE",
"62 438 LINE",
"147 488 LINE",
"145 391 LINE",
"223 391 LINE",
"220 487 LINE",
"305 437 LINE"
);
}
);
width = 368;
}
);
unicode = 002A;
},
{
glyphname = bullet;
layers = (
{
layerId = "56A87FB8-163D-4578-80C9-082B510993A7";
paths = (
{
closed = 1;
nodes = (
"88 396 OFFCURVE",
"40 348 OFFCURVE",
"40 280 CURVE SMOOTH",
"40 210 OFFCURVE",
"88 162 OFFCURVE",
"154 162 CURVE SMOOTH",
"220 162 OFFCURVE",
"268 210 OFFCURVE",
"268 280 CURVE SMOOTH",
"268 348 OFFCURVE",
"220 396 OFFCURVE",
"154 396 CURVE SMOOTH"
);
}
);
width = 308;
}
);
leftMetricsKey = period;
rightMetricsKey = period;
unicode = 2022;
},
{
glyphname = comma;
layers = (
{
layerId = "56A87FB8-163D-4578-80C9-082B510993A7";
paths = (
{
closed = 1;
nodes = (
"30 -92 LINE",
"105 -92 LINE",
"172 9 LINE SMOOTH",
"185 27 OFFCURVE",
"193 47 OFFCURVE",
"193 71 CURVE SMOOTH",
"193 121 OFFCURVE",
"158 149 OFFCURVE",
"118 149 CURVE SMOOTH",
"74 149 OFFCURVE",
"42 117 OFFCURVE",
"42 71 CURVE SMOOTH",
"42 28 OFFCURVE",
"71 -8 OFFCURVE",
"136 -7 CURVE",
"96 67 LINE"
);
}
);
width = 232;
}
);
unicode = 002C;
},
